%TF.GenerationSoftware,KiCad,Pcbnew,8.0.2*%
%TF.CreationDate,2024-05-12T20:24:52-06:00*%
%TF.ProjectId,devBoard,64657642-6f61-4726-942e-6b696361645f,rev?*%
%TF.SameCoordinates,Original*%
%TF.FileFunction,Drillmap*%
%TF.FilePolarity,Positive*%
%FSLAX45Y45*%
G04 Gerber Fmt 4.5, Leading zero omitted, Abs format (unit mm)*
G04 Created by KiCad (PCBNEW 8.0.2) date 2024-05-12 20:24:52*
%MOMM*%
%LPD*%
G01*
G04 APERTURE LIST*
%ADD10C,0.050000*%
%ADD11C,0.200000*%
G04 APERTURE END LIST*
D10*
X20874740Y-14732000D02*
G75*
G02*
X20590760Y-14732000I-141990J0D01*
G01*
X20590760Y-14732000D02*
G75*
G02*
X20874740Y-14732000I141990J0D01*
G01*
X7031740Y-14732000D02*
G75*
G02*
X6747760Y-14732000I-141990J0D01*
G01*
X6747760Y-14732000D02*
G75*
G02*
X7031740Y-14732000I141990J0D01*
G01*
X7031740Y-3429000D02*
G75*
G02*
X6747760Y-3429000I-141990J0D01*
G01*
X6747760Y-3429000D02*
G75*
G02*
X7031740Y-3429000I141990J0D01*
G01*
X20874740Y-3429000D02*
G75*
G02*
X20590760Y-3429000I-141990J0D01*
G01*
X20590760Y-3429000D02*
G75*
G02*
X20874740Y-3429000I141990J0D01*
G01*
X21050250Y-5334000D02*
X21050250Y-3111500D01*
X19843750Y-5334000D02*
X21050250Y-5334000D01*
X19843750Y-6413500D02*
X19843750Y-5334000D01*
X21050250Y-6413500D02*
X19843750Y-6413500D01*
X21050250Y-11366500D02*
X21050250Y-6413500D01*
X19843750Y-11366500D02*
X21050250Y-11366500D01*
X19843750Y-12509500D02*
X19843750Y-11366500D01*
X21050250Y-12509500D02*
X19843750Y-12509500D01*
X21050250Y-15049500D02*
X21050250Y-12509500D01*
X6572250Y-15049500D02*
X21050250Y-15049500D01*
X6572250Y-3111500D02*
X6572250Y-15049500D01*
X21050250Y-3111500D02*
X6572250Y-3111500D01*
D11*
X6830527Y-15363484D02*
X6830527Y-15163484D01*
X6830527Y-15163484D02*
X6878146Y-15163484D01*
X6878146Y-15163484D02*
X6906717Y-15173008D01*
X6906717Y-15173008D02*
X6925765Y-15192055D01*
X6925765Y-15192055D02*
X6935289Y-15211103D01*
X6935289Y-15211103D02*
X6944812Y-15249198D01*
X6944812Y-15249198D02*
X6944812Y-15277769D01*
X6944812Y-15277769D02*
X6935289Y-15315865D01*
X6935289Y-15315865D02*
X6925765Y-15334912D01*
X6925765Y-15334912D02*
X6906717Y-15353960D01*
X6906717Y-15353960D02*
X6878146Y-15363484D01*
X6878146Y-15363484D02*
X6830527Y-15363484D01*
X7030527Y-15363484D02*
X7030527Y-15230150D01*
X7030527Y-15268246D02*
X7040051Y-15249198D01*
X7040051Y-15249198D02*
X7049574Y-15239674D01*
X7049574Y-15239674D02*
X7068622Y-15230150D01*
X7068622Y-15230150D02*
X7087670Y-15230150D01*
X7154336Y-15363484D02*
X7154336Y-15230150D01*
X7154336Y-15163484D02*
X7144812Y-15173008D01*
X7144812Y-15173008D02*
X7154336Y-15182531D01*
X7154336Y-15182531D02*
X7163860Y-15173008D01*
X7163860Y-15173008D02*
X7154336Y-15163484D01*
X7154336Y-15163484D02*
X7154336Y-15182531D01*
X7278146Y-15363484D02*
X7259098Y-15353960D01*
X7259098Y-15353960D02*
X7249574Y-15334912D01*
X7249574Y-15334912D02*
X7249574Y-15163484D01*
X7382908Y-15363484D02*
X7363860Y-15353960D01*
X7363860Y-15353960D02*
X7354336Y-15334912D01*
X7354336Y-15334912D02*
X7354336Y-15163484D01*
X7611479Y-15363484D02*
X7611479Y-15163484D01*
X7611479Y-15163484D02*
X7678146Y-15306341D01*
X7678146Y-15306341D02*
X7744812Y-15163484D01*
X7744812Y-15163484D02*
X7744812Y-15363484D01*
X7925765Y-15363484D02*
X7925765Y-15258722D01*
X7925765Y-15258722D02*
X7916241Y-15239674D01*
X7916241Y-15239674D02*
X7897193Y-15230150D01*
X7897193Y-15230150D02*
X7859098Y-15230150D01*
X7859098Y-15230150D02*
X7840051Y-15239674D01*
X7925765Y-15353960D02*
X7906717Y-15363484D01*
X7906717Y-15363484D02*
X7859098Y-15363484D01*
X7859098Y-15363484D02*
X7840051Y-15353960D01*
X7840051Y-15353960D02*
X7830527Y-15334912D01*
X7830527Y-15334912D02*
X7830527Y-15315865D01*
X7830527Y-15315865D02*
X7840051Y-15296817D01*
X7840051Y-15296817D02*
X7859098Y-15287293D01*
X7859098Y-15287293D02*
X7906717Y-15287293D01*
X7906717Y-15287293D02*
X7925765Y-15277769D01*
X8021003Y-15230150D02*
X8021003Y-15430150D01*
X8021003Y-15239674D02*
X8040051Y-15230150D01*
X8040051Y-15230150D02*
X8078146Y-15230150D01*
X8078146Y-15230150D02*
X8097193Y-15239674D01*
X8097193Y-15239674D02*
X8106717Y-15249198D01*
X8106717Y-15249198D02*
X8116241Y-15268246D01*
X8116241Y-15268246D02*
X8116241Y-15325388D01*
X8116241Y-15325388D02*
X8106717Y-15344436D01*
X8106717Y-15344436D02*
X8097193Y-15353960D01*
X8097193Y-15353960D02*
X8078146Y-15363484D01*
X8078146Y-15363484D02*
X8040051Y-15363484D01*
X8040051Y-15363484D02*
X8021003Y-15353960D01*
X8201955Y-15344436D02*
X8211479Y-15353960D01*
X8211479Y-15353960D02*
X8201955Y-15363484D01*
X8201955Y-15363484D02*
X8192432Y-15353960D01*
X8192432Y-15353960D02*
X8201955Y-15344436D01*
X8201955Y-15344436D02*
X8201955Y-15363484D01*
X8201955Y-15239674D02*
X8211479Y-15249198D01*
X8211479Y-15249198D02*
X8201955Y-15258722D01*
X8201955Y-15258722D02*
X8192432Y-15249198D01*
X8192432Y-15249198D02*
X8201955Y-15239674D01*
X8201955Y-15239674D02*
X8201955Y-15258722D01*
M02*
