%TF.GenerationSoftware,KiCad,Pcbnew,8.0.2*%
%TF.CreationDate,2024-05-12T20:24:52-06:00*%
%TF.ProjectId,devBoard,64657642-6f61-4726-942e-6b696361645f,rev?*%
%TF.SameCoordinates,Original*%
%TF.FileFunction,Drillmap*%
%TF.FilePolarity,Positive*%
%FSLAX45Y45*%
G04 Gerber Fmt 4.5, Leading zero omitted, Abs format (unit mm)*
G04 Created by KiCad (PCBNEW 8.0.2) date 2024-05-12 20:24:52*
%MOMM*%
%LPD*%
G01*
G04 APERTURE LIST*
%ADD10C,0.050000*%
%ADD11C,0.200000*%
%ADD12C,0.100000*%
%ADD13C,0.110000*%
%ADD14C,0.130000*%
G04 APERTURE END LIST*
D10*
X20874740Y-14732000D02*
G75*
G02*
X20590760Y-14732000I-141990J0D01*
G01*
X20590760Y-14732000D02*
G75*
G02*
X20874740Y-14732000I141990J0D01*
G01*
X7031740Y-14732000D02*
G75*
G02*
X6747760Y-14732000I-141990J0D01*
G01*
X6747760Y-14732000D02*
G75*
G02*
X7031740Y-14732000I141990J0D01*
G01*
X7031740Y-3429000D02*
G75*
G02*
X6747760Y-3429000I-141990J0D01*
G01*
X6747760Y-3429000D02*
G75*
G02*
X7031740Y-3429000I141990J0D01*
G01*
X20874740Y-3429000D02*
G75*
G02*
X20590760Y-3429000I-141990J0D01*
G01*
X20590760Y-3429000D02*
G75*
G02*
X20874740Y-3429000I141990J0D01*
G01*
X21050250Y-5334000D02*
X21050250Y-3111500D01*
X19843750Y-5334000D02*
X21050250Y-5334000D01*
X19843750Y-6413500D02*
X19843750Y-5334000D01*
X21050250Y-6413500D02*
X19843750Y-6413500D01*
X21050250Y-11366500D02*
X21050250Y-6413500D01*
X19843750Y-11366500D02*
X21050250Y-11366500D01*
X19843750Y-12509500D02*
X19843750Y-11366500D01*
X21050250Y-12509500D02*
X19843750Y-12509500D01*
X21050250Y-15049500D02*
X21050250Y-12509500D01*
X6572250Y-15049500D02*
X21050250Y-15049500D01*
X6572250Y-3111500D02*
X6572250Y-15049500D01*
X21050250Y-3111500D02*
X6572250Y-3111500D01*
D11*
D12*
X9922750Y-4557000D02*
X9952750Y-4587000D01*
X9952750Y-4557000D02*
X9922750Y-4587000D01*
X11065750Y-11415000D02*
X11095750Y-11445000D01*
X11095750Y-11415000D02*
X11065750Y-11445000D01*
X11827750Y-4557000D02*
X11857750Y-4587000D01*
X11857750Y-4557000D02*
X11827750Y-4587000D01*
X12208750Y-4557000D02*
X12238750Y-4587000D01*
X12238750Y-4557000D02*
X12208750Y-4587000D01*
X12399250Y-11415000D02*
X12429250Y-11445000D01*
X12429250Y-11415000D02*
X12399250Y-11445000D01*
X12526250Y-8367000D02*
X12556250Y-8397000D01*
X12556250Y-8367000D02*
X12526250Y-8397000D01*
X12526250Y-8875000D02*
X12556250Y-8905000D01*
X12556250Y-8875000D02*
X12526250Y-8905000D01*
X13224750Y-7033500D02*
X13254750Y-7063500D01*
X13254750Y-7033500D02*
X13224750Y-7063500D01*
X13732750Y-6525500D02*
X13762750Y-6555500D01*
X13762750Y-6525500D02*
X13732750Y-6555500D01*
X13923250Y-4493500D02*
X13953250Y-4523500D01*
X13953250Y-4493500D02*
X13923250Y-4523500D01*
X13986750Y-13256500D02*
X14016750Y-13286500D01*
X14016750Y-13256500D02*
X13986750Y-13286500D01*
X14113750Y-7033500D02*
X14143750Y-7063500D01*
X14143750Y-7033500D02*
X14113750Y-7063500D01*
X14172750Y-12816500D02*
X14202750Y-12846500D01*
X14202750Y-12816500D02*
X14172750Y-12846500D01*
X14304250Y-13256500D02*
X14334250Y-13286500D01*
X14334250Y-13256500D02*
X14304250Y-13286500D01*
X14621750Y-10780000D02*
X14651750Y-10810000D01*
X14651750Y-10780000D02*
X14621750Y-10810000D01*
X14621750Y-11161000D02*
X14651750Y-11191000D01*
X14651750Y-11161000D02*
X14621750Y-11191000D01*
X14875750Y-10145000D02*
X14905750Y-10175000D01*
X14905750Y-10145000D02*
X14875750Y-10175000D01*
X15129750Y-8367000D02*
X15159750Y-8397000D01*
X15159750Y-8367000D02*
X15129750Y-8397000D01*
X15129750Y-8875000D02*
X15159750Y-8905000D01*
X15159750Y-8875000D02*
X15129750Y-8905000D01*
X15129750Y-12621500D02*
X15159750Y-12651500D01*
X15159750Y-12621500D02*
X15129750Y-12651500D01*
X15256750Y-6716000D02*
X15286750Y-6746000D01*
X15286750Y-6716000D02*
X15256750Y-6746000D01*
X15256750Y-7541500D02*
X15286750Y-7571500D01*
X15286750Y-7541500D02*
X15256750Y-7571500D01*
X15320250Y-12621500D02*
X15350250Y-12651500D01*
X15350250Y-12621500D02*
X15320250Y-12651500D01*
X15637750Y-12748500D02*
X15667750Y-12778500D01*
X15667750Y-12748500D02*
X15637750Y-12778500D01*
X15891750Y-9446500D02*
X15921750Y-9476500D01*
X15921750Y-9446500D02*
X15891750Y-9476500D01*
X15891750Y-10399000D02*
X15921750Y-10429000D01*
X15921750Y-10399000D02*
X15891750Y-10429000D01*
X15955250Y-12621500D02*
X15985250Y-12651500D01*
X15985250Y-12621500D02*
X15955250Y-12651500D01*
X15955250Y-12748500D02*
X15985250Y-12778500D01*
X15985250Y-12748500D02*
X15955250Y-12778500D01*
X16145750Y-9446500D02*
X16175750Y-9476500D01*
X16175750Y-9446500D02*
X16145750Y-9476500D01*
X16145750Y-10399000D02*
X16175750Y-10429000D01*
X16175750Y-10399000D02*
X16145750Y-10429000D01*
X16145750Y-12431000D02*
X16175750Y-12461000D01*
X16175750Y-12431000D02*
X16145750Y-12461000D01*
X16971250Y-4938000D02*
X17001250Y-4968000D01*
X17001250Y-4938000D02*
X16971250Y-4968000D01*
X17352250Y-4938000D02*
X17382250Y-4968000D01*
X17382250Y-4938000D02*
X17352250Y-4968000D01*
X17542750Y-4303000D02*
X17572750Y-4333000D01*
X17572750Y-4303000D02*
X17542750Y-4333000D01*
X17542750Y-4557000D02*
X17572750Y-4587000D01*
X17572750Y-4557000D02*
X17542750Y-4587000D01*
X17860250Y-12546500D02*
X17890250Y-12576500D01*
X17890250Y-12546500D02*
X17860250Y-12576500D01*
X17860250Y-12875500D02*
X17890250Y-12905500D01*
X17890250Y-12875500D02*
X17860250Y-12905500D01*
X18114250Y-6398500D02*
X18144250Y-6428500D01*
X18144250Y-6398500D02*
X18114250Y-6428500D01*
X18114250Y-10843500D02*
X18144250Y-10873500D01*
X18144250Y-10843500D02*
X18114250Y-10873500D01*
X18304750Y-6779500D02*
X18334750Y-6809500D01*
X18334750Y-6779500D02*
X18304750Y-6809500D01*
X18495250Y-6652500D02*
X18525250Y-6682500D01*
X18525250Y-6652500D02*
X18495250Y-6682500D01*
X18495250Y-7351000D02*
X18525250Y-7381000D01*
X18525250Y-7351000D02*
X18495250Y-7381000D01*
X18495250Y-9891000D02*
X18525250Y-9921000D01*
X18525250Y-9891000D02*
X18495250Y-9921000D01*
X18495250Y-10589500D02*
X18525250Y-10619500D01*
X18525250Y-10589500D02*
X18495250Y-10619500D01*
X18685750Y-6335000D02*
X18715750Y-6365000D01*
X18715750Y-6335000D02*
X18685750Y-6365000D01*
X18685750Y-7287500D02*
X18715750Y-7317500D01*
X18715750Y-7287500D02*
X18685750Y-7317500D01*
X18685750Y-9700500D02*
X18715750Y-9730500D01*
X18715750Y-9700500D02*
X18685750Y-9730500D01*
X18685750Y-10399000D02*
X18715750Y-10429000D01*
X18715750Y-10399000D02*
X18685750Y-10429000D01*
X15355250Y-10541000D02*
G75*
G02*
X15315250Y-10541000I-20000J0D01*
G01*
X15315250Y-10541000D02*
G75*
G02*
X15355250Y-10541000I20000J0D01*
G01*
X9493250Y-5304000D02*
X9493250Y-5364000D01*
X9463250Y-5334000D02*
X9523250Y-5334000D01*
X9937750Y-5304000D02*
X9937750Y-5364000D01*
X9907750Y-5334000D02*
X9967750Y-5334000D01*
X16287750Y-5304000D02*
X16287750Y-5364000D01*
X16257750Y-5334000D02*
X16317750Y-5334000D01*
X7998034Y-8219784D02*
X7998034Y-8163215D01*
X7941465Y-8163215D01*
X7941465Y-8219784D01*
X7998034Y-8219784D01*
X7998034Y-9235785D02*
X7998034Y-9179216D01*
X7941465Y-9179216D01*
X7941465Y-9235785D01*
X7998034Y-9235785D01*
X8061034Y-13109284D02*
X8061034Y-13052715D01*
X8004465Y-13052715D01*
X8004465Y-13109284D01*
X8061034Y-13109284D01*
X8569035Y-6695784D02*
X8569035Y-6639215D01*
X8512466Y-6639215D01*
X8512466Y-6695784D01*
X8569035Y-6695784D01*
X8569035Y-7711784D02*
X8569035Y-7655215D01*
X8512466Y-7655215D01*
X8512466Y-7711784D01*
X8569035Y-7711784D01*
X8569535Y-8219784D02*
X8569535Y-8163215D01*
X8512966Y-8163215D01*
X8512966Y-8219784D01*
X8569535Y-8219784D01*
X8569535Y-9235785D02*
X8569535Y-9179216D01*
X8512966Y-9179216D01*
X8512966Y-9235785D01*
X8569535Y-9235785D01*
X9077035Y-13109284D02*
X9077035Y-13052715D01*
X9020466Y-13052715D01*
X9020466Y-13109284D01*
X9077035Y-13109284D01*
X9268035Y-8219784D02*
X9268035Y-8163215D01*
X9211466Y-8163215D01*
X9211466Y-8219784D01*
X9268035Y-8219784D01*
X9268035Y-9235785D02*
X9268035Y-9179216D01*
X9211466Y-9179216D01*
X9211466Y-9235785D01*
X9268035Y-9235785D01*
X9394535Y-13109284D02*
X9394535Y-13052715D01*
X9337966Y-13052715D01*
X9337966Y-13109284D01*
X9394535Y-13109284D01*
X9902535Y-9172285D02*
X9902535Y-9115716D01*
X9845966Y-9115716D01*
X9845966Y-9172285D01*
X9902535Y-9172285D01*
X9902535Y-10188285D02*
X9902535Y-10131716D01*
X9845966Y-10131716D01*
X9845966Y-10188285D01*
X9902535Y-10188285D01*
X10283535Y-9172285D02*
X10283535Y-9115716D01*
X10226966Y-9115716D01*
X10226966Y-9172285D01*
X10283535Y-9172285D01*
X10283535Y-10188285D02*
X10283535Y-10131716D01*
X10226966Y-10131716D01*
X10226966Y-10188285D01*
X10283535Y-10188285D01*
X10410535Y-13109284D02*
X10410535Y-13052715D01*
X10353966Y-13052715D01*
X10353966Y-13109284D01*
X10410535Y-13109284D01*
X10791535Y-13109284D02*
X10791535Y-13052715D01*
X10734966Y-13052715D01*
X10734966Y-13109284D01*
X10791535Y-13109284D01*
X11172535Y-9172285D02*
X11172535Y-9115716D01*
X11115966Y-9115716D01*
X11115966Y-9172285D01*
X11172535Y-9172285D01*
X11172535Y-10188285D02*
X11172535Y-10131716D01*
X11115966Y-10131716D01*
X11115966Y-10188285D01*
X11172535Y-10188285D01*
X11553534Y-9172285D02*
X11553534Y-9115716D01*
X11496965Y-9115716D01*
X11496965Y-9172285D01*
X11553534Y-9172285D01*
X11553534Y-10188285D02*
X11553534Y-10131716D01*
X11496965Y-10131716D01*
X11496965Y-10188285D01*
X11553534Y-10188285D01*
X11807534Y-13109284D02*
X11807534Y-13052715D01*
X11750965Y-13052715D01*
X11750965Y-13109284D01*
X11807534Y-13109284D01*
X12188534Y-13109284D02*
X12188534Y-13052715D01*
X12131965Y-13052715D01*
X12131965Y-13109284D01*
X12188534Y-13109284D01*
X13204534Y-13109284D02*
X13204534Y-13052715D01*
X13147965Y-13052715D01*
X13147965Y-13109284D01*
X13204534Y-13109284D01*
X6948750Y-11345512D02*
X6991250Y-11303012D01*
X6948750Y-11260512D01*
X6906250Y-11303012D01*
X6948750Y-11345512D01*
X8998750Y-11345512D02*
X9041250Y-11303012D01*
X8998750Y-11260512D01*
X8956250Y-11303012D01*
X8998750Y-11345512D01*
X8368250Y-13988500D02*
X8458250Y-14078500D01*
X8458250Y-13988500D02*
X8368250Y-14078500D01*
X8458250Y-14033500D02*
G75*
G02*
X8368250Y-14033500I-45000J0D01*
G01*
X8368250Y-14033500D02*
G75*
G02*
X8458250Y-14033500I45000J0D01*
G01*
X8622250Y-13988500D02*
X8712250Y-14078500D01*
X8712250Y-13988500D02*
X8622250Y-14078500D01*
X8712250Y-14033500D02*
G75*
G02*
X8622250Y-14033500I-45000J0D01*
G01*
X8622250Y-14033500D02*
G75*
G02*
X8712250Y-14033500I45000J0D01*
G01*
X9701750Y-13988500D02*
X9791750Y-14078500D01*
X9791750Y-13988500D02*
X9701750Y-14078500D01*
X9791750Y-14033500D02*
G75*
G02*
X9701750Y-14033500I-45000J0D01*
G01*
X9701750Y-14033500D02*
G75*
G02*
X9791750Y-14033500I45000J0D01*
G01*
X9955750Y-13988500D02*
X10045750Y-14078500D01*
X10045750Y-13988500D02*
X9955750Y-14078500D01*
X10045750Y-14033500D02*
G75*
G02*
X9955750Y-14033500I-45000J0D01*
G01*
X9955750Y-14033500D02*
G75*
G02*
X10045750Y-14033500I45000J0D01*
G01*
X11098750Y-13988500D02*
X11188750Y-14078500D01*
X11188750Y-13988500D02*
X11098750Y-14078500D01*
X11188750Y-14033500D02*
G75*
G02*
X11098750Y-14033500I-45000J0D01*
G01*
X11098750Y-14033500D02*
G75*
G02*
X11188750Y-14033500I45000J0D01*
G01*
X11352750Y-13988500D02*
X11442750Y-14078500D01*
X11442750Y-13988500D02*
X11352750Y-14078500D01*
X11442750Y-14033500D02*
G75*
G02*
X11352750Y-14033500I-45000J0D01*
G01*
X11352750Y-14033500D02*
G75*
G02*
X11442750Y-14033500I45000J0D01*
G01*
X12495750Y-13988500D02*
X12585750Y-14078500D01*
X12585750Y-13988500D02*
X12495750Y-14078500D01*
X12585750Y-14033500D02*
G75*
G02*
X12495750Y-14033500I-45000J0D01*
G01*
X12495750Y-14033500D02*
G75*
G02*
X12585750Y-14033500I45000J0D01*
G01*
X12749750Y-13988500D02*
X12839750Y-14078500D01*
X12839750Y-13988500D02*
X12749750Y-14078500D01*
X12839750Y-14033500D02*
G75*
G02*
X12749750Y-14033500I-45000J0D01*
G01*
X12749750Y-14033500D02*
G75*
G02*
X12839750Y-14033500I45000J0D01*
G01*
X6839750Y-12777000D02*
X6939750Y-12877000D01*
X6939750Y-12777000D02*
X6839750Y-12877000D01*
X6889750Y-12777000D02*
X6889750Y-12877000D01*
X6839750Y-12827000D02*
X6939750Y-12827000D01*
X6839750Y-13031000D02*
X6939750Y-13131000D01*
X6939750Y-13031000D02*
X6839750Y-13131000D01*
X6889750Y-13031000D02*
X6889750Y-13131000D01*
X6839750Y-13081000D02*
X6939750Y-13081000D01*
X6839750Y-13285000D02*
X6939750Y-13385000D01*
X6939750Y-13285000D02*
X6839750Y-13385000D01*
X6889750Y-13285000D02*
X6889750Y-13385000D01*
X6839750Y-13335000D02*
X6939750Y-13335000D01*
X6839750Y-13539000D02*
X6939750Y-13639000D01*
X6939750Y-13539000D02*
X6839750Y-13639000D01*
X6889750Y-13539000D02*
X6889750Y-13639000D01*
X6839750Y-13589000D02*
X6939750Y-13589000D01*
X7157750Y-9729000D02*
X7257750Y-9829000D01*
X7257750Y-9729000D02*
X7157750Y-9829000D01*
X7207750Y-9729000D02*
X7207750Y-9829000D01*
X7157750Y-9779000D02*
X7257750Y-9779000D01*
X7411750Y-9729000D02*
X7511750Y-9829000D01*
X7511750Y-9729000D02*
X7411750Y-9829000D01*
X7461750Y-9729000D02*
X7461750Y-9829000D01*
X7411750Y-9779000D02*
X7511750Y-9779000D01*
X7538250Y-3442500D02*
X7638250Y-3542500D01*
X7638250Y-3442500D02*
X7538250Y-3542500D01*
X7588250Y-3442500D02*
X7588250Y-3542500D01*
X7538250Y-3492500D02*
X7638250Y-3492500D01*
X7538250Y-3887000D02*
X7638250Y-3987000D01*
X7638250Y-3887000D02*
X7538250Y-3987000D01*
X7588250Y-3887000D02*
X7588250Y-3987000D01*
X7538250Y-3937000D02*
X7638250Y-3937000D01*
X7792250Y-3442500D02*
X7892250Y-3542500D01*
X7892250Y-3442500D02*
X7792250Y-3542500D01*
X7842250Y-3442500D02*
X7842250Y-3542500D01*
X7792250Y-3492500D02*
X7892250Y-3492500D01*
X8046250Y-3442500D02*
X8146250Y-3542500D01*
X8146250Y-3442500D02*
X8046250Y-3542500D01*
X8096250Y-3442500D02*
X8096250Y-3542500D01*
X8046250Y-3492500D02*
X8146250Y-3492500D01*
X8300250Y-3442500D02*
X8400250Y-3542500D01*
X8400250Y-3442500D02*
X8300250Y-3542500D01*
X8350250Y-3442500D02*
X8350250Y-3542500D01*
X8300250Y-3492500D02*
X8400250Y-3492500D01*
X8554250Y-3442500D02*
X8654250Y-3542500D01*
X8654250Y-3442500D02*
X8554250Y-3542500D01*
X8604250Y-3442500D02*
X8604250Y-3542500D01*
X8554250Y-3492500D02*
X8654250Y-3492500D01*
X9316250Y-7252500D02*
X9416250Y-7352500D01*
X9416250Y-7252500D02*
X9316250Y-7352500D01*
X9366250Y-7252500D02*
X9366250Y-7352500D01*
X9316250Y-7302500D02*
X9416250Y-7302500D01*
X9379750Y-3442500D02*
X9479750Y-3542500D01*
X9479750Y-3442500D02*
X9379750Y-3542500D01*
X9429750Y-3442500D02*
X9429750Y-3542500D01*
X9379750Y-3492500D02*
X9479750Y-3492500D01*
X9506750Y-11124500D02*
X9606750Y-11224500D01*
X9606750Y-11124500D02*
X9506750Y-11224500D01*
X9556750Y-11124500D02*
X9556750Y-11224500D01*
X9506750Y-11174500D02*
X9606750Y-11174500D01*
X9506750Y-11378500D02*
X9606750Y-11478500D01*
X9606750Y-11378500D02*
X9506750Y-11478500D01*
X9556750Y-11378500D02*
X9556750Y-11478500D01*
X9506750Y-11428500D02*
X9606750Y-11428500D01*
X9506750Y-11632500D02*
X9606750Y-11732500D01*
X9606750Y-11632500D02*
X9506750Y-11732500D01*
X9556750Y-11632500D02*
X9556750Y-11732500D01*
X9506750Y-11682500D02*
X9606750Y-11682500D01*
X9570250Y-7252500D02*
X9670250Y-7352500D01*
X9670250Y-7252500D02*
X9570250Y-7352500D01*
X9620250Y-7252500D02*
X9620250Y-7352500D01*
X9570250Y-7302500D02*
X9670250Y-7302500D01*
X9633750Y-3442500D02*
X9733750Y-3542500D01*
X9733750Y-3442500D02*
X9633750Y-3542500D01*
X9683750Y-3442500D02*
X9683750Y-3542500D01*
X9633750Y-3492500D02*
X9733750Y-3492500D01*
X9824250Y-7252500D02*
X9924250Y-7352500D01*
X9924250Y-7252500D02*
X9824250Y-7352500D01*
X9874250Y-7252500D02*
X9874250Y-7352500D01*
X9824250Y-7302500D02*
X9924250Y-7302500D01*
X9887750Y-3442500D02*
X9987750Y-3542500D01*
X9987750Y-3442500D02*
X9887750Y-3542500D01*
X9937750Y-3442500D02*
X9937750Y-3542500D01*
X9887750Y-3492500D02*
X9987750Y-3492500D01*
X10078250Y-7252500D02*
X10178250Y-7352500D01*
X10178250Y-7252500D02*
X10078250Y-7352500D01*
X10128250Y-7252500D02*
X10128250Y-7352500D01*
X10078250Y-7302500D02*
X10178250Y-7302500D01*
X10141750Y-3442500D02*
X10241750Y-3542500D01*
X10241750Y-3442500D02*
X10141750Y-3542500D01*
X10191750Y-3442500D02*
X10191750Y-3542500D01*
X10141750Y-3492500D02*
X10241750Y-3492500D01*
X10141750Y-8078000D02*
X10241750Y-8178000D01*
X10241750Y-8078000D02*
X10141750Y-8178000D01*
X10191750Y-8078000D02*
X10191750Y-8178000D01*
X10141750Y-8128000D02*
X10241750Y-8128000D01*
X10141750Y-8332000D02*
X10241750Y-8432000D01*
X10241750Y-8332000D02*
X10141750Y-8432000D01*
X10191750Y-8332000D02*
X10191750Y-8432000D01*
X10141750Y-8382000D02*
X10241750Y-8382000D01*
X10141750Y-8586000D02*
X10241750Y-8686000D01*
X10241750Y-8586000D02*
X10141750Y-8686000D01*
X10191750Y-8586000D02*
X10191750Y-8686000D01*
X10141750Y-8636000D02*
X10241750Y-8636000D01*
X10395750Y-3442500D02*
X10495750Y-3542500D01*
X10495750Y-3442500D02*
X10395750Y-3542500D01*
X10445750Y-3442500D02*
X10445750Y-3542500D01*
X10395750Y-3492500D02*
X10495750Y-3492500D01*
X10395750Y-3887000D02*
X10495750Y-3987000D01*
X10495750Y-3887000D02*
X10395750Y-3987000D01*
X10445750Y-3887000D02*
X10445750Y-3987000D01*
X10395750Y-3937000D02*
X10495750Y-3937000D01*
X10649750Y-3442500D02*
X10749750Y-3542500D01*
X10749750Y-3442500D02*
X10649750Y-3542500D01*
X10699750Y-3442500D02*
X10699750Y-3542500D01*
X10649750Y-3492500D02*
X10749750Y-3492500D01*
X10649750Y-3887000D02*
X10749750Y-3987000D01*
X10749750Y-3887000D02*
X10649750Y-3987000D01*
X10699750Y-3887000D02*
X10699750Y-3987000D01*
X10649750Y-3937000D02*
X10749750Y-3937000D01*
X11157750Y-6490500D02*
X11257750Y-6590500D01*
X11257750Y-6490500D02*
X11157750Y-6590500D01*
X11207750Y-6490500D02*
X11207750Y-6590500D01*
X11157750Y-6540500D02*
X11257750Y-6540500D01*
X11158250Y-7252500D02*
X11258250Y-7352500D01*
X11258250Y-7252500D02*
X11158250Y-7352500D01*
X11208250Y-7252500D02*
X11208250Y-7352500D01*
X11158250Y-7302500D02*
X11258250Y-7302500D01*
X11284750Y-3442500D02*
X11384750Y-3542500D01*
X11384750Y-3442500D02*
X11284750Y-3542500D01*
X11334750Y-3442500D02*
X11334750Y-3542500D01*
X11284750Y-3492500D02*
X11384750Y-3492500D01*
X11284750Y-11063500D02*
X11384750Y-11163500D01*
X11384750Y-11063500D02*
X11284750Y-11163500D01*
X11334750Y-11063500D02*
X11334750Y-11163500D01*
X11284750Y-11113500D02*
X11384750Y-11113500D01*
X11284750Y-11823500D02*
X11384750Y-11923500D01*
X11384750Y-11823500D02*
X11284750Y-11923500D01*
X11334750Y-11823500D02*
X11334750Y-11923500D01*
X11284750Y-11873500D02*
X11384750Y-11873500D01*
X11411750Y-6490500D02*
X11511750Y-6590500D01*
X11511750Y-6490500D02*
X11411750Y-6590500D01*
X11461750Y-6490500D02*
X11461750Y-6590500D01*
X11411750Y-6540500D02*
X11511750Y-6540500D01*
X11411750Y-8078000D02*
X11511750Y-8178000D01*
X11511750Y-8078000D02*
X11411750Y-8178000D01*
X11461750Y-8078000D02*
X11461750Y-8178000D01*
X11411750Y-8128000D02*
X11511750Y-8128000D01*
X11411750Y-8332000D02*
X11511750Y-8432000D01*
X11511750Y-8332000D02*
X11411750Y-8432000D01*
X11461750Y-8332000D02*
X11461750Y-8432000D01*
X11411750Y-8382000D02*
X11511750Y-8382000D01*
X11411750Y-8586000D02*
X11511750Y-8686000D01*
X11511750Y-8586000D02*
X11411750Y-8686000D01*
X11461750Y-8586000D02*
X11461750Y-8686000D01*
X11411750Y-8636000D02*
X11511750Y-8636000D01*
X11412250Y-7252500D02*
X11512250Y-7352500D01*
X11512250Y-7252500D02*
X11412250Y-7352500D01*
X11462250Y-7252500D02*
X11462250Y-7352500D01*
X11412250Y-7302500D02*
X11512250Y-7302500D01*
X11538750Y-3442500D02*
X11638750Y-3542500D01*
X11638750Y-3442500D02*
X11538750Y-3542500D01*
X11588750Y-3442500D02*
X11588750Y-3542500D01*
X11538750Y-3492500D02*
X11638750Y-3492500D01*
X11792750Y-3442500D02*
X11892750Y-3542500D01*
X11892750Y-3442500D02*
X11792750Y-3542500D01*
X11842750Y-3442500D02*
X11842750Y-3542500D01*
X11792750Y-3492500D02*
X11892750Y-3492500D01*
X12046750Y-3442500D02*
X12146750Y-3542500D01*
X12146750Y-3442500D02*
X12046750Y-3542500D01*
X12096750Y-3442500D02*
X12096750Y-3542500D01*
X12046750Y-3492500D02*
X12146750Y-3492500D01*
X12300750Y-3442500D02*
X12400750Y-3542500D01*
X12400750Y-3442500D02*
X12300750Y-3542500D01*
X12350750Y-3442500D02*
X12350750Y-3542500D01*
X12300750Y-3492500D02*
X12400750Y-3492500D01*
X12300750Y-3887000D02*
X12400750Y-3987000D01*
X12400750Y-3887000D02*
X12300750Y-3987000D01*
X12350750Y-3887000D02*
X12350750Y-3987000D01*
X12300750Y-3937000D02*
X12400750Y-3937000D01*
X12554750Y-3442500D02*
X12654750Y-3542500D01*
X12654750Y-3442500D02*
X12554750Y-3542500D01*
X12604750Y-3442500D02*
X12604750Y-3542500D01*
X12554750Y-3492500D02*
X12654750Y-3492500D01*
X12554750Y-3887000D02*
X12654750Y-3987000D01*
X12654750Y-3887000D02*
X12554750Y-3987000D01*
X12604750Y-3887000D02*
X12604750Y-3987000D01*
X12554750Y-3937000D02*
X12654750Y-3937000D01*
X12935750Y-5665000D02*
X13035750Y-5765000D01*
X13035750Y-5665000D02*
X12935750Y-5765000D01*
X12985750Y-5665000D02*
X12985750Y-5765000D01*
X12935750Y-5715000D02*
X13035750Y-5715000D01*
X12935750Y-5919000D02*
X13035750Y-6019000D01*
X13035750Y-5919000D02*
X12935750Y-6019000D01*
X12985750Y-5919000D02*
X12985750Y-6019000D01*
X12935750Y-5969000D02*
X13035750Y-5969000D01*
X12935750Y-11761000D02*
X13035750Y-11861000D01*
X13035750Y-11761000D02*
X12935750Y-11861000D01*
X12985750Y-11761000D02*
X12985750Y-11861000D01*
X12935750Y-11811000D02*
X13035750Y-11811000D01*
X12935750Y-12015000D02*
X13035750Y-12115000D01*
X13035750Y-12015000D02*
X12935750Y-12115000D01*
X12985750Y-12015000D02*
X12985750Y-12115000D01*
X12935750Y-12065000D02*
X13035750Y-12065000D01*
X13189750Y-5665000D02*
X13289750Y-5765000D01*
X13289750Y-5665000D02*
X13189750Y-5765000D01*
X13239750Y-5665000D02*
X13239750Y-5765000D01*
X13189750Y-5715000D02*
X13289750Y-5715000D01*
X13189750Y-5919000D02*
X13289750Y-6019000D01*
X13289750Y-5919000D02*
X13189750Y-6019000D01*
X13239750Y-5919000D02*
X13239750Y-6019000D01*
X13189750Y-5969000D02*
X13289750Y-5969000D01*
X13189750Y-11761000D02*
X13289750Y-11861000D01*
X13289750Y-11761000D02*
X13189750Y-11861000D01*
X13239750Y-11761000D02*
X13239750Y-11861000D01*
X13189750Y-11811000D02*
X13289750Y-11811000D01*
X13189750Y-12015000D02*
X13289750Y-12115000D01*
X13289750Y-12015000D02*
X13189750Y-12115000D01*
X13239750Y-12015000D02*
X13239750Y-12115000D01*
X13189750Y-12065000D02*
X13289750Y-12065000D01*
X13253250Y-3442500D02*
X13353250Y-3542500D01*
X13353250Y-3442500D02*
X13253250Y-3542500D01*
X13303250Y-3442500D02*
X13303250Y-3542500D01*
X13253250Y-3492500D02*
X13353250Y-3492500D01*
X13443750Y-5665000D02*
X13543750Y-5765000D01*
X13543750Y-5665000D02*
X13443750Y-5765000D01*
X13493750Y-5665000D02*
X13493750Y-5765000D01*
X13443750Y-5715000D02*
X13543750Y-5715000D01*
X13443750Y-5919000D02*
X13543750Y-6019000D01*
X13543750Y-5919000D02*
X13443750Y-6019000D01*
X13493750Y-5919000D02*
X13493750Y-6019000D01*
X13443750Y-5969000D02*
X13543750Y-5969000D01*
X13443750Y-11761000D02*
X13543750Y-11861000D01*
X13543750Y-11761000D02*
X13443750Y-11861000D01*
X13493750Y-11761000D02*
X13493750Y-11861000D01*
X13443750Y-11811000D02*
X13543750Y-11811000D01*
X13443750Y-12015000D02*
X13543750Y-12115000D01*
X13543750Y-12015000D02*
X13443750Y-12115000D01*
X13493750Y-12015000D02*
X13493750Y-12115000D01*
X13443750Y-12065000D02*
X13543750Y-12065000D01*
X13507250Y-3442500D02*
X13607250Y-3542500D01*
X13607250Y-3442500D02*
X13507250Y-3542500D01*
X13557250Y-3442500D02*
X13557250Y-3542500D01*
X13507250Y-3492500D02*
X13607250Y-3492500D01*
X13697750Y-5665000D02*
X13797750Y-5765000D01*
X13797750Y-5665000D02*
X13697750Y-5765000D01*
X13747750Y-5665000D02*
X13747750Y-5765000D01*
X13697750Y-5715000D02*
X13797750Y-5715000D01*
X13697750Y-5919000D02*
X13797750Y-6019000D01*
X13797750Y-5919000D02*
X13697750Y-6019000D01*
X13747750Y-5919000D02*
X13747750Y-6019000D01*
X13697750Y-5969000D02*
X13797750Y-5969000D01*
X13697750Y-11761000D02*
X13797750Y-11861000D01*
X13797750Y-11761000D02*
X13697750Y-11861000D01*
X13747750Y-11761000D02*
X13747750Y-11861000D01*
X13697750Y-11811000D02*
X13797750Y-11811000D01*
X13697750Y-12015000D02*
X13797750Y-12115000D01*
X13797750Y-12015000D02*
X13697750Y-12115000D01*
X13747750Y-12015000D02*
X13747750Y-12115000D01*
X13697750Y-12065000D02*
X13797750Y-12065000D01*
X13761250Y-3442500D02*
X13861250Y-3542500D01*
X13861250Y-3442500D02*
X13761250Y-3542500D01*
X13811250Y-3442500D02*
X13811250Y-3542500D01*
X13761250Y-3492500D02*
X13861250Y-3492500D01*
X13951750Y-5665000D02*
X14051750Y-5765000D01*
X14051750Y-5665000D02*
X13951750Y-5765000D01*
X14001750Y-5665000D02*
X14001750Y-5765000D01*
X13951750Y-5715000D02*
X14051750Y-5715000D01*
X13951750Y-5919000D02*
X14051750Y-6019000D01*
X14051750Y-5919000D02*
X13951750Y-6019000D01*
X14001750Y-5919000D02*
X14001750Y-6019000D01*
X13951750Y-5969000D02*
X14051750Y-5969000D01*
X13951750Y-11761000D02*
X14051750Y-11861000D01*
X14051750Y-11761000D02*
X13951750Y-11861000D01*
X14001750Y-11761000D02*
X14001750Y-11861000D01*
X13951750Y-11811000D02*
X14051750Y-11811000D01*
X13951750Y-12015000D02*
X14051750Y-12115000D01*
X14051750Y-12015000D02*
X13951750Y-12115000D01*
X14001750Y-12015000D02*
X14001750Y-12115000D01*
X13951750Y-12065000D02*
X14051750Y-12065000D01*
X14015250Y-3442500D02*
X14115250Y-3542500D01*
X14115250Y-3442500D02*
X14015250Y-3542500D01*
X14065250Y-3442500D02*
X14065250Y-3542500D01*
X14015250Y-3492500D02*
X14115250Y-3492500D01*
X14137750Y-13793000D02*
X14237750Y-13893000D01*
X14237750Y-13793000D02*
X14137750Y-13893000D01*
X14187750Y-13793000D02*
X14187750Y-13893000D01*
X14137750Y-13843000D02*
X14237750Y-13843000D01*
X14205750Y-5665000D02*
X14305750Y-5765000D01*
X14305750Y-5665000D02*
X14205750Y-5765000D01*
X14255750Y-5665000D02*
X14255750Y-5765000D01*
X14205750Y-5715000D02*
X14305750Y-5715000D01*
X14205750Y-5919000D02*
X14305750Y-6019000D01*
X14305750Y-5919000D02*
X14205750Y-6019000D01*
X14255750Y-5919000D02*
X14255750Y-6019000D01*
X14205750Y-5969000D02*
X14305750Y-5969000D01*
X14205750Y-11761000D02*
X14305750Y-11861000D01*
X14305750Y-11761000D02*
X14205750Y-11861000D01*
X14255750Y-11761000D02*
X14255750Y-11861000D01*
X14205750Y-11811000D02*
X14305750Y-11811000D01*
X14205750Y-12015000D02*
X14305750Y-12115000D01*
X14305750Y-12015000D02*
X14205750Y-12115000D01*
X14255750Y-12015000D02*
X14255750Y-12115000D01*
X14205750Y-12065000D02*
X14305750Y-12065000D01*
X14267750Y-3908000D02*
X14367750Y-4008000D01*
X14367750Y-3908000D02*
X14267750Y-4008000D01*
X14317750Y-3908000D02*
X14317750Y-4008000D01*
X14267750Y-3958000D02*
X14367750Y-3958000D01*
X14269250Y-3442500D02*
X14369250Y-3542500D01*
X14369250Y-3442500D02*
X14269250Y-3542500D01*
X14319250Y-3442500D02*
X14319250Y-3542500D01*
X14269250Y-3492500D02*
X14369250Y-3492500D01*
X14391750Y-13793000D02*
X14491750Y-13893000D01*
X14491750Y-13793000D02*
X14391750Y-13893000D01*
X14441750Y-13793000D02*
X14441750Y-13893000D01*
X14391750Y-13843000D02*
X14491750Y-13843000D01*
X14459750Y-5665000D02*
X14559750Y-5765000D01*
X14559750Y-5665000D02*
X14459750Y-5765000D01*
X14509750Y-5665000D02*
X14509750Y-5765000D01*
X14459750Y-5715000D02*
X14559750Y-5715000D01*
X14459750Y-5919000D02*
X14559750Y-6019000D01*
X14559750Y-5919000D02*
X14459750Y-6019000D01*
X14509750Y-5919000D02*
X14509750Y-6019000D01*
X14459750Y-5969000D02*
X14559750Y-5969000D01*
X14459750Y-11761000D02*
X14559750Y-11861000D01*
X14559750Y-11761000D02*
X14459750Y-11861000D01*
X14509750Y-11761000D02*
X14509750Y-11861000D01*
X14459750Y-11811000D02*
X14559750Y-11811000D01*
X14459750Y-12015000D02*
X14559750Y-12115000D01*
X14559750Y-12015000D02*
X14459750Y-12115000D01*
X14509750Y-12015000D02*
X14509750Y-12115000D01*
X14459750Y-12065000D02*
X14559750Y-12065000D01*
X14521750Y-3908000D02*
X14621750Y-4008000D01*
X14621750Y-3908000D02*
X14521750Y-4008000D01*
X14571750Y-3908000D02*
X14571750Y-4008000D01*
X14521750Y-3958000D02*
X14621750Y-3958000D01*
X14523250Y-3442500D02*
X14623250Y-3542500D01*
X14623250Y-3442500D02*
X14523250Y-3542500D01*
X14573250Y-3442500D02*
X14573250Y-3542500D01*
X14523250Y-3492500D02*
X14623250Y-3492500D01*
X14713750Y-5665000D02*
X14813750Y-5765000D01*
X14813750Y-5665000D02*
X14713750Y-5765000D01*
X14763750Y-5665000D02*
X14763750Y-5765000D01*
X14713750Y-5715000D02*
X14813750Y-5715000D01*
X14713750Y-5919000D02*
X14813750Y-6019000D01*
X14813750Y-5919000D02*
X14713750Y-6019000D01*
X14763750Y-5919000D02*
X14763750Y-6019000D01*
X14713750Y-5969000D02*
X14813750Y-5969000D01*
X14713750Y-11761000D02*
X14813750Y-11861000D01*
X14813750Y-11761000D02*
X14713750Y-11861000D01*
X14763750Y-11761000D02*
X14763750Y-11861000D01*
X14713750Y-11811000D02*
X14813750Y-11811000D01*
X14713750Y-12015000D02*
X14813750Y-12115000D01*
X14813750Y-12015000D02*
X14713750Y-12115000D01*
X14763750Y-12015000D02*
X14763750Y-12115000D01*
X14713750Y-12065000D02*
X14813750Y-12065000D01*
X14775750Y-3908000D02*
X14875750Y-4008000D01*
X14875750Y-3908000D02*
X14775750Y-4008000D01*
X14825750Y-3908000D02*
X14825750Y-4008000D01*
X14775750Y-3958000D02*
X14875750Y-3958000D01*
X14777250Y-3442500D02*
X14877250Y-3542500D01*
X14877250Y-3442500D02*
X14777250Y-3542500D01*
X14827250Y-3442500D02*
X14827250Y-3542500D01*
X14777250Y-3492500D02*
X14877250Y-3492500D01*
X14967750Y-5665000D02*
X15067750Y-5765000D01*
X15067750Y-5665000D02*
X14967750Y-5765000D01*
X15017750Y-5665000D02*
X15017750Y-5765000D01*
X14967750Y-5715000D02*
X15067750Y-5715000D01*
X14967750Y-5919000D02*
X15067750Y-6019000D01*
X15067750Y-5919000D02*
X14967750Y-6019000D01*
X15017750Y-5919000D02*
X15017750Y-6019000D01*
X14967750Y-5969000D02*
X15067750Y-5969000D01*
X14967750Y-11761000D02*
X15067750Y-11861000D01*
X15067750Y-11761000D02*
X14967750Y-11861000D01*
X15017750Y-11761000D02*
X15017750Y-11861000D01*
X14967750Y-11811000D02*
X15067750Y-11811000D01*
X14967750Y-12015000D02*
X15067750Y-12115000D01*
X15067750Y-12015000D02*
X14967750Y-12115000D01*
X15017750Y-12015000D02*
X15017750Y-12115000D01*
X14967750Y-12065000D02*
X15067750Y-12065000D01*
X15029750Y-3908000D02*
X15129750Y-4008000D01*
X15129750Y-3908000D02*
X15029750Y-4008000D01*
X15079750Y-3908000D02*
X15079750Y-4008000D01*
X15029750Y-3958000D02*
X15129750Y-3958000D01*
X15031250Y-3442500D02*
X15131250Y-3542500D01*
X15131250Y-3442500D02*
X15031250Y-3542500D01*
X15081250Y-3442500D02*
X15081250Y-3542500D01*
X15031250Y-3492500D02*
X15131250Y-3492500D01*
X15221750Y-5665000D02*
X15321750Y-5765000D01*
X15321750Y-5665000D02*
X15221750Y-5765000D01*
X15271750Y-5665000D02*
X15271750Y-5765000D01*
X15221750Y-5715000D02*
X15321750Y-5715000D01*
X15221750Y-5919000D02*
X15321750Y-6019000D01*
X15321750Y-5919000D02*
X15221750Y-6019000D01*
X15271750Y-5919000D02*
X15271750Y-6019000D01*
X15221750Y-5969000D02*
X15321750Y-5969000D01*
X15221750Y-11761000D02*
X15321750Y-11861000D01*
X15321750Y-11761000D02*
X15221750Y-11861000D01*
X15271750Y-11761000D02*
X15271750Y-11861000D01*
X15221750Y-11811000D02*
X15321750Y-11811000D01*
X15221750Y-12015000D02*
X15321750Y-12115000D01*
X15321750Y-12015000D02*
X15221750Y-12115000D01*
X15271750Y-12015000D02*
X15271750Y-12115000D01*
X15221750Y-12065000D02*
X15321750Y-12065000D01*
X15344750Y-13793000D02*
X15444750Y-13893000D01*
X15444750Y-13793000D02*
X15344750Y-13893000D01*
X15394750Y-13793000D02*
X15394750Y-13893000D01*
X15344750Y-13843000D02*
X15444750Y-13843000D01*
X15475750Y-5665000D02*
X15575750Y-5765000D01*
X15575750Y-5665000D02*
X15475750Y-5765000D01*
X15525750Y-5665000D02*
X15525750Y-5765000D01*
X15475750Y-5715000D02*
X15575750Y-5715000D01*
X15475750Y-5919000D02*
X15575750Y-6019000D01*
X15575750Y-5919000D02*
X15475750Y-6019000D01*
X15525750Y-5919000D02*
X15525750Y-6019000D01*
X15475750Y-5969000D02*
X15575750Y-5969000D01*
X15475750Y-11761000D02*
X15575750Y-11861000D01*
X15575750Y-11761000D02*
X15475750Y-11861000D01*
X15525750Y-11761000D02*
X15525750Y-11861000D01*
X15475750Y-11811000D02*
X15575750Y-11811000D01*
X15475750Y-12015000D02*
X15575750Y-12115000D01*
X15575750Y-12015000D02*
X15475750Y-12115000D01*
X15525750Y-12015000D02*
X15525750Y-12115000D01*
X15475750Y-12065000D02*
X15575750Y-12065000D01*
X15598750Y-13793000D02*
X15698750Y-13893000D01*
X15698750Y-13793000D02*
X15598750Y-13893000D01*
X15648750Y-13793000D02*
X15648750Y-13893000D01*
X15598750Y-13843000D02*
X15698750Y-13843000D01*
X15729750Y-5665000D02*
X15829750Y-5765000D01*
X15829750Y-5665000D02*
X15729750Y-5765000D01*
X15779750Y-5665000D02*
X15779750Y-5765000D01*
X15729750Y-5715000D02*
X15829750Y-5715000D01*
X15729750Y-5919000D02*
X15829750Y-6019000D01*
X15829750Y-5919000D02*
X15729750Y-6019000D01*
X15779750Y-5919000D02*
X15779750Y-6019000D01*
X15729750Y-5969000D02*
X15829750Y-5969000D01*
X15729750Y-11761000D02*
X15829750Y-11861000D01*
X15829750Y-11761000D02*
X15729750Y-11861000D01*
X15779750Y-11761000D02*
X15779750Y-11861000D01*
X15729750Y-11811000D02*
X15829750Y-11811000D01*
X15729750Y-12015000D02*
X15829750Y-12115000D01*
X15829750Y-12015000D02*
X15729750Y-12115000D01*
X15779750Y-12015000D02*
X15779750Y-12115000D01*
X15729750Y-12065000D02*
X15829750Y-12065000D01*
X15983750Y-5665000D02*
X16083750Y-5765000D01*
X16083750Y-5665000D02*
X15983750Y-5765000D01*
X16033750Y-5665000D02*
X16033750Y-5765000D01*
X15983750Y-5715000D02*
X16083750Y-5715000D01*
X15983750Y-5919000D02*
X16083750Y-6019000D01*
X16083750Y-5919000D02*
X15983750Y-6019000D01*
X16033750Y-5919000D02*
X16033750Y-6019000D01*
X15983750Y-5969000D02*
X16083750Y-5969000D01*
X15983750Y-11761000D02*
X16083750Y-11861000D01*
X16083750Y-11761000D02*
X15983750Y-11861000D01*
X16033750Y-11761000D02*
X16033750Y-11861000D01*
X15983750Y-11811000D02*
X16083750Y-11811000D01*
X15983750Y-12015000D02*
X16083750Y-12115000D01*
X16083750Y-12015000D02*
X15983750Y-12115000D01*
X16033750Y-12015000D02*
X16033750Y-12115000D01*
X15983750Y-12065000D02*
X16083750Y-12065000D01*
X16237750Y-5665000D02*
X16337750Y-5765000D01*
X16337750Y-5665000D02*
X16237750Y-5765000D01*
X16287750Y-5665000D02*
X16287750Y-5765000D01*
X16237750Y-5715000D02*
X16337750Y-5715000D01*
X16237750Y-5919000D02*
X16337750Y-6019000D01*
X16337750Y-5919000D02*
X16237750Y-6019000D01*
X16287750Y-5919000D02*
X16287750Y-6019000D01*
X16237750Y-5969000D02*
X16337750Y-5969000D01*
X16237750Y-11761000D02*
X16337750Y-11861000D01*
X16337750Y-11761000D02*
X16237750Y-11861000D01*
X16287750Y-11761000D02*
X16287750Y-11861000D01*
X16237750Y-11811000D02*
X16337750Y-11811000D01*
X16237750Y-12015000D02*
X16337750Y-12115000D01*
X16337750Y-12015000D02*
X16237750Y-12115000D01*
X16287750Y-12015000D02*
X16287750Y-12115000D01*
X16237750Y-12065000D02*
X16337750Y-12065000D01*
X16491750Y-5665000D02*
X16591750Y-5765000D01*
X16591750Y-5665000D02*
X16491750Y-5765000D01*
X16541750Y-5665000D02*
X16541750Y-5765000D01*
X16491750Y-5715000D02*
X16591750Y-5715000D01*
X16491750Y-5919000D02*
X16591750Y-6019000D01*
X16591750Y-5919000D02*
X16491750Y-6019000D01*
X16541750Y-5919000D02*
X16541750Y-6019000D01*
X16491750Y-5969000D02*
X16591750Y-5969000D01*
X16491750Y-11761000D02*
X16591750Y-11861000D01*
X16591750Y-11761000D02*
X16491750Y-11861000D01*
X16541750Y-11761000D02*
X16541750Y-11861000D01*
X16491750Y-11811000D02*
X16591750Y-11811000D01*
X16491750Y-12015000D02*
X16591750Y-12115000D01*
X16591750Y-12015000D02*
X16491750Y-12115000D01*
X16541750Y-12015000D02*
X16541750Y-12115000D01*
X16491750Y-12065000D02*
X16591750Y-12065000D01*
X16492750Y-3442500D02*
X16592750Y-3542500D01*
X16592750Y-3442500D02*
X16492750Y-3542500D01*
X16542750Y-3442500D02*
X16542750Y-3542500D01*
X16492750Y-3492500D02*
X16592750Y-3492500D01*
X16745750Y-5665000D02*
X16845750Y-5765000D01*
X16845750Y-5665000D02*
X16745750Y-5765000D01*
X16795750Y-5665000D02*
X16795750Y-5765000D01*
X16745750Y-5715000D02*
X16845750Y-5715000D01*
X16745750Y-5919000D02*
X16845750Y-6019000D01*
X16845750Y-5919000D02*
X16745750Y-6019000D01*
X16795750Y-5919000D02*
X16795750Y-6019000D01*
X16745750Y-5969000D02*
X16845750Y-5969000D01*
X16745750Y-11761000D02*
X16845750Y-11861000D01*
X16845750Y-11761000D02*
X16745750Y-11861000D01*
X16795750Y-11761000D02*
X16795750Y-11861000D01*
X16745750Y-11811000D02*
X16845750Y-11811000D01*
X16745750Y-12015000D02*
X16845750Y-12115000D01*
X16845750Y-12015000D02*
X16745750Y-12115000D01*
X16795750Y-12015000D02*
X16795750Y-12115000D01*
X16745750Y-12065000D02*
X16845750Y-12065000D01*
X16746750Y-3442500D02*
X16846750Y-3542500D01*
X16846750Y-3442500D02*
X16746750Y-3542500D01*
X16796750Y-3442500D02*
X16796750Y-3542500D01*
X16746750Y-3492500D02*
X16846750Y-3492500D01*
X16999750Y-5665000D02*
X17099750Y-5765000D01*
X17099750Y-5665000D02*
X16999750Y-5765000D01*
X17049750Y-5665000D02*
X17049750Y-5765000D01*
X16999750Y-5715000D02*
X17099750Y-5715000D01*
X16999750Y-5919000D02*
X17099750Y-6019000D01*
X17099750Y-5919000D02*
X16999750Y-6019000D01*
X17049750Y-5919000D02*
X17049750Y-6019000D01*
X16999750Y-5969000D02*
X17099750Y-5969000D01*
X16999750Y-11761000D02*
X17099750Y-11861000D01*
X17099750Y-11761000D02*
X16999750Y-11861000D01*
X17049750Y-11761000D02*
X17049750Y-11861000D01*
X16999750Y-11811000D02*
X17099750Y-11811000D01*
X16999750Y-12015000D02*
X17099750Y-12115000D01*
X17099750Y-12015000D02*
X16999750Y-12115000D01*
X17049750Y-12015000D02*
X17049750Y-12115000D01*
X16999750Y-12065000D02*
X17099750Y-12065000D01*
X17000750Y-3442500D02*
X17100750Y-3542500D01*
X17100750Y-3442500D02*
X17000750Y-3542500D01*
X17050750Y-3442500D02*
X17050750Y-3542500D01*
X17000750Y-3492500D02*
X17100750Y-3492500D01*
X17253750Y-5665000D02*
X17353750Y-5765000D01*
X17353750Y-5665000D02*
X17253750Y-5765000D01*
X17303750Y-5665000D02*
X17303750Y-5765000D01*
X17253750Y-5715000D02*
X17353750Y-5715000D01*
X17253750Y-5919000D02*
X17353750Y-6019000D01*
X17353750Y-5919000D02*
X17253750Y-6019000D01*
X17303750Y-5919000D02*
X17303750Y-6019000D01*
X17253750Y-5969000D02*
X17353750Y-5969000D01*
X17253750Y-11761000D02*
X17353750Y-11861000D01*
X17353750Y-11761000D02*
X17253750Y-11861000D01*
X17303750Y-11761000D02*
X17303750Y-11861000D01*
X17253750Y-11811000D02*
X17353750Y-11811000D01*
X17253750Y-12015000D02*
X17353750Y-12115000D01*
X17353750Y-12015000D02*
X17253750Y-12115000D01*
X17303750Y-12015000D02*
X17303750Y-12115000D01*
X17253750Y-12065000D02*
X17353750Y-12065000D01*
X17254750Y-3442500D02*
X17354750Y-3542500D01*
X17354750Y-3442500D02*
X17254750Y-3542500D01*
X17304750Y-3442500D02*
X17304750Y-3542500D01*
X17254750Y-3492500D02*
X17354750Y-3492500D01*
X17507750Y-5665000D02*
X17607750Y-5765000D01*
X17607750Y-5665000D02*
X17507750Y-5765000D01*
X17557750Y-5665000D02*
X17557750Y-5765000D01*
X17507750Y-5715000D02*
X17607750Y-5715000D01*
X17507750Y-5919000D02*
X17607750Y-6019000D01*
X17607750Y-5919000D02*
X17507750Y-6019000D01*
X17557750Y-5919000D02*
X17557750Y-6019000D01*
X17507750Y-5969000D02*
X17607750Y-5969000D01*
X17507750Y-11761000D02*
X17607750Y-11861000D01*
X17607750Y-11761000D02*
X17507750Y-11861000D01*
X17557750Y-11761000D02*
X17557750Y-11861000D01*
X17507750Y-11811000D02*
X17607750Y-11811000D01*
X17507750Y-12015000D02*
X17607750Y-12115000D01*
X17607750Y-12015000D02*
X17507750Y-12115000D01*
X17557750Y-12015000D02*
X17557750Y-12115000D01*
X17507750Y-12065000D02*
X17607750Y-12065000D01*
X17761750Y-5665000D02*
X17861750Y-5765000D01*
X17861750Y-5665000D02*
X17761750Y-5765000D01*
X17811750Y-5665000D02*
X17811750Y-5765000D01*
X17761750Y-5715000D02*
X17861750Y-5715000D01*
X17761750Y-5919000D02*
X17861750Y-6019000D01*
X17861750Y-5919000D02*
X17761750Y-6019000D01*
X17811750Y-5919000D02*
X17811750Y-6019000D01*
X17761750Y-5969000D02*
X17861750Y-5969000D01*
X17761750Y-11761000D02*
X17861750Y-11861000D01*
X17861750Y-11761000D02*
X17761750Y-11861000D01*
X17811750Y-11761000D02*
X17811750Y-11861000D01*
X17761750Y-11811000D02*
X17861750Y-11811000D01*
X17761750Y-12015000D02*
X17861750Y-12115000D01*
X17861750Y-12015000D02*
X17761750Y-12115000D01*
X17811750Y-12015000D02*
X17811750Y-12115000D01*
X17761750Y-12065000D02*
X17861750Y-12065000D01*
X18777750Y-3442500D02*
X18877750Y-3542500D01*
X18877750Y-3442500D02*
X18777750Y-3542500D01*
X18827750Y-3442500D02*
X18827750Y-3542500D01*
X18777750Y-3492500D02*
X18877750Y-3492500D01*
X19031750Y-3442500D02*
X19131750Y-3542500D01*
X19131750Y-3442500D02*
X19031750Y-3542500D01*
X19081750Y-3442500D02*
X19081750Y-3542500D01*
X19031750Y-3492500D02*
X19131750Y-3492500D01*
X19285750Y-3442500D02*
X19385750Y-3542500D01*
X19385750Y-3442500D02*
X19285750Y-3542500D01*
X19335750Y-3442500D02*
X19335750Y-3542500D01*
X19285750Y-3492500D02*
X19385750Y-3492500D01*
X19539750Y-3442500D02*
X19639750Y-3542500D01*
X19639750Y-3442500D02*
X19539750Y-3542500D01*
X19589750Y-3442500D02*
X19589750Y-3542500D01*
X19539750Y-3492500D02*
X19639750Y-3492500D01*
X19793750Y-3442500D02*
X19893750Y-3542500D01*
X19893750Y-3442500D02*
X19793750Y-3542500D01*
X19843750Y-3442500D02*
X19843750Y-3542500D01*
X19793750Y-3492500D02*
X19893750Y-3492500D01*
X20047750Y-3442500D02*
X20147750Y-3542500D01*
X20147750Y-3442500D02*
X20047750Y-3542500D01*
X20097750Y-3442500D02*
X20097750Y-3542500D01*
X20047750Y-3492500D02*
X20147750Y-3492500D01*
D13*
X7058250Y-8200000D02*
X7168250Y-8310000D01*
X7168250Y-8200000D02*
X7058250Y-8310000D01*
X7152141Y-8293891D02*
X7152141Y-8216109D01*
X7074359Y-8216109D01*
X7074359Y-8293891D01*
X7152141Y-8293891D01*
X7058250Y-8454000D02*
X7168250Y-8564000D01*
X7168250Y-8454000D02*
X7058250Y-8564000D01*
X7152141Y-8547891D02*
X7152141Y-8470109D01*
X7074359Y-8470109D01*
X7074359Y-8547891D01*
X7152141Y-8547891D01*
X7058250Y-8708000D02*
X7168250Y-8818000D01*
X7168250Y-8708000D02*
X7058250Y-8818000D01*
X7152141Y-8801891D02*
X7152141Y-8724109D01*
X7074359Y-8724109D01*
X7074359Y-8801891D01*
X7152141Y-8801891D01*
X16706250Y-13526500D02*
X16816250Y-13636500D01*
X16816250Y-13526500D02*
X16706250Y-13636500D01*
X16800141Y-13620391D02*
X16800141Y-13542609D01*
X16722359Y-13542609D01*
X16722359Y-13620391D01*
X16800141Y-13620391D01*
X16706250Y-14176500D02*
X16816250Y-14286500D01*
X16816250Y-14176500D02*
X16706250Y-14286500D01*
X16800141Y-14270391D02*
X16800141Y-14192609D01*
X16722359Y-14192609D01*
X16722359Y-14270391D01*
X16800141Y-14270391D01*
X17156250Y-13526500D02*
X17266250Y-13636500D01*
X17266250Y-13526500D02*
X17156250Y-13636500D01*
X17250141Y-13620391D02*
X17250141Y-13542609D01*
X17172359Y-13542609D01*
X17172359Y-13620391D01*
X17250141Y-13620391D01*
X17156250Y-14176500D02*
X17266250Y-14286500D01*
X17266250Y-14176500D02*
X17156250Y-14286500D01*
X17250141Y-14270391D02*
X17250141Y-14192609D01*
X17172359Y-14192609D01*
X17172359Y-14270391D01*
X17250141Y-14270391D01*
X18039750Y-13526500D02*
X18149750Y-13636500D01*
X18149750Y-13526500D02*
X18039750Y-13636500D01*
X18133641Y-13620391D02*
X18133641Y-13542609D01*
X18055859Y-13542609D01*
X18055859Y-13620391D01*
X18133641Y-13620391D01*
X18039750Y-14176500D02*
X18149750Y-14286500D01*
X18149750Y-14176500D02*
X18039750Y-14286500D01*
X18133641Y-14270391D02*
X18133641Y-14192609D01*
X18055859Y-14192609D01*
X18055859Y-14270391D01*
X18133641Y-14270391D01*
X18489750Y-13526500D02*
X18599750Y-13636500D01*
X18599750Y-13526500D02*
X18489750Y-13636500D01*
X18583641Y-13620391D02*
X18583641Y-13542609D01*
X18505859Y-13542609D01*
X18505859Y-13620391D01*
X18583641Y-13620391D01*
X18489750Y-14176500D02*
X18599750Y-14286500D01*
X18599750Y-14176500D02*
X18489750Y-14286500D01*
X18583641Y-14270391D02*
X18583641Y-14192609D01*
X18505859Y-14192609D01*
X18505859Y-14270391D01*
X18583641Y-14270391D01*
X19373250Y-13526500D02*
X19483250Y-13636500D01*
X19483250Y-13526500D02*
X19373250Y-13636500D01*
X19467141Y-13620391D02*
X19467141Y-13542609D01*
X19389359Y-13542609D01*
X19389359Y-13620391D01*
X19467141Y-13620391D01*
X19373250Y-14176500D02*
X19483250Y-14286500D01*
X19483250Y-14176500D02*
X19373250Y-14286500D01*
X19467141Y-14270391D02*
X19467141Y-14192609D01*
X19389359Y-14192609D01*
X19389359Y-14270391D01*
X19467141Y-14270391D01*
X19823250Y-13526500D02*
X19933250Y-13636500D01*
X19933250Y-13526500D02*
X19823250Y-13636500D01*
X19917141Y-13620391D02*
X19917141Y-13542609D01*
X19839359Y-13542609D01*
X19839359Y-13620391D01*
X19917141Y-13620391D01*
X19823250Y-14176500D02*
X19933250Y-14286500D01*
X19933250Y-14176500D02*
X19823250Y-14286500D01*
X19917141Y-14270391D02*
X19917141Y-14192609D01*
X19839359Y-14192609D01*
X19839359Y-14270391D01*
X19917141Y-14270391D01*
D14*
X6981750Y-5590500D02*
X7111750Y-5720500D01*
X7111750Y-5590500D02*
X6981750Y-5720500D01*
X7046750Y-5720500D02*
X7111750Y-5655500D01*
X7046750Y-5590500D01*
X6981750Y-5655500D01*
X7046750Y-5720500D01*
X6981750Y-6090500D02*
X7111750Y-6220500D01*
X7111750Y-6090500D02*
X6981750Y-6220500D01*
X7046750Y-6220500D02*
X7111750Y-6155500D01*
X7046750Y-6090500D01*
X6981750Y-6155500D01*
X7046750Y-6220500D01*
X6981750Y-6860500D02*
X7111750Y-6990500D01*
X7111750Y-6860500D02*
X6981750Y-6990500D01*
X7046750Y-6990500D02*
X7111750Y-6925500D01*
X7046750Y-6860500D01*
X6981750Y-6925500D01*
X7046750Y-6990500D01*
X6981750Y-7360500D02*
X7111750Y-7490500D01*
X7111750Y-7360500D02*
X6981750Y-7490500D01*
X7046750Y-7490500D02*
X7111750Y-7425500D01*
X7046750Y-7360500D01*
X6981750Y-7425500D01*
X7046750Y-7490500D01*
X14000250Y-14476500D02*
X14130250Y-14606500D01*
X14130250Y-14476500D02*
X14000250Y-14606500D01*
X14065250Y-14606500D02*
X14130250Y-14541500D01*
X14065250Y-14476500D01*
X14000250Y-14541500D01*
X14065250Y-14606500D01*
X14500250Y-14476500D02*
X14630250Y-14606500D01*
X14630250Y-14476500D02*
X14500250Y-14606500D01*
X14565250Y-14606500D02*
X14630250Y-14541500D01*
X14565250Y-14476500D01*
X14500250Y-14541500D01*
X14565250Y-14606500D01*
X15206750Y-14476500D02*
X15336750Y-14606500D01*
X15336750Y-14476500D02*
X15206750Y-14606500D01*
X15271750Y-14606500D02*
X15336750Y-14541500D01*
X15271750Y-14476500D01*
X15206750Y-14541500D01*
X15271750Y-14606500D01*
X15706750Y-14476500D02*
X15836750Y-14606500D01*
X15836750Y-14476500D02*
X15706750Y-14606500D01*
X15771750Y-14606500D02*
X15836750Y-14541500D01*
X15771750Y-14476500D01*
X15706750Y-14541500D01*
X15771750Y-14606500D01*
D11*
X6830527Y-15363484D02*
X6830527Y-15163484D01*
X6830527Y-15163484D02*
X6878146Y-15163484D01*
X6878146Y-15163484D02*
X6906717Y-15173008D01*
X6906717Y-15173008D02*
X6925765Y-15192055D01*
X6925765Y-15192055D02*
X6935289Y-15211103D01*
X6935289Y-15211103D02*
X6944812Y-15249198D01*
X6944812Y-15249198D02*
X6944812Y-15277769D01*
X6944812Y-15277769D02*
X6935289Y-15315865D01*
X6935289Y-15315865D02*
X6925765Y-15334912D01*
X6925765Y-15334912D02*
X6906717Y-15353960D01*
X6906717Y-15353960D02*
X6878146Y-15363484D01*
X6878146Y-15363484D02*
X6830527Y-15363484D01*
X7030527Y-15363484D02*
X7030527Y-15230150D01*
X7030527Y-15268246D02*
X7040051Y-15249198D01*
X7040051Y-15249198D02*
X7049574Y-15239674D01*
X7049574Y-15239674D02*
X7068622Y-15230150D01*
X7068622Y-15230150D02*
X7087670Y-15230150D01*
X7154336Y-15363484D02*
X7154336Y-15230150D01*
X7154336Y-15163484D02*
X7144812Y-15173008D01*
X7144812Y-15173008D02*
X7154336Y-15182531D01*
X7154336Y-15182531D02*
X7163860Y-15173008D01*
X7163860Y-15173008D02*
X7154336Y-15163484D01*
X7154336Y-15163484D02*
X7154336Y-15182531D01*
X7278146Y-15363484D02*
X7259098Y-15353960D01*
X7259098Y-15353960D02*
X7249574Y-15334912D01*
X7249574Y-15334912D02*
X7249574Y-15163484D01*
X7382908Y-15363484D02*
X7363860Y-15353960D01*
X7363860Y-15353960D02*
X7354336Y-15334912D01*
X7354336Y-15334912D02*
X7354336Y-15163484D01*
X7611479Y-15363484D02*
X7611479Y-15163484D01*
X7611479Y-15163484D02*
X7678146Y-15306341D01*
X7678146Y-15306341D02*
X7744812Y-15163484D01*
X7744812Y-15163484D02*
X7744812Y-15363484D01*
X7925765Y-15363484D02*
X7925765Y-15258722D01*
X7925765Y-15258722D02*
X7916241Y-15239674D01*
X7916241Y-15239674D02*
X7897193Y-15230150D01*
X7897193Y-15230150D02*
X7859098Y-15230150D01*
X7859098Y-15230150D02*
X7840051Y-15239674D01*
X7925765Y-15353960D02*
X7906717Y-15363484D01*
X7906717Y-15363484D02*
X7859098Y-15363484D01*
X7859098Y-15363484D02*
X7840051Y-15353960D01*
X7840051Y-15353960D02*
X7830527Y-15334912D01*
X7830527Y-15334912D02*
X7830527Y-15315865D01*
X7830527Y-15315865D02*
X7840051Y-15296817D01*
X7840051Y-15296817D02*
X7859098Y-15287293D01*
X7859098Y-15287293D02*
X7906717Y-15287293D01*
X7906717Y-15287293D02*
X7925765Y-15277769D01*
X8021003Y-15230150D02*
X8021003Y-15430150D01*
X8021003Y-15239674D02*
X8040051Y-15230150D01*
X8040051Y-15230150D02*
X8078146Y-15230150D01*
X8078146Y-15230150D02*
X8097193Y-15239674D01*
X8097193Y-15239674D02*
X8106717Y-15249198D01*
X8106717Y-15249198D02*
X8116241Y-15268246D01*
X8116241Y-15268246D02*
X8116241Y-15325388D01*
X8116241Y-15325388D02*
X8106717Y-15344436D01*
X8106717Y-15344436D02*
X8097193Y-15353960D01*
X8097193Y-15353960D02*
X8078146Y-15363484D01*
X8078146Y-15363484D02*
X8040051Y-15363484D01*
X8040051Y-15363484D02*
X8021003Y-15353960D01*
X8201955Y-15344436D02*
X8211479Y-15353960D01*
X8211479Y-15353960D02*
X8201955Y-15363484D01*
X8201955Y-15363484D02*
X8192432Y-15353960D01*
X8192432Y-15353960D02*
X8201955Y-15344436D01*
X8201955Y-15344436D02*
X8201955Y-15363484D01*
X8201955Y-15239674D02*
X8211479Y-15249198D01*
X8211479Y-15249198D02*
X8201955Y-15258722D01*
X8201955Y-15258722D02*
X8192432Y-15249198D01*
X8192432Y-15249198D02*
X8201955Y-15239674D01*
X8201955Y-15239674D02*
X8201955Y-15258722D01*
D12*
X6539750Y-15677000D02*
X6569750Y-15707000D01*
X6569750Y-15677000D02*
X6539750Y-15707000D01*
D11*
X6868622Y-15583484D02*
X6887670Y-15583484D01*
X6887670Y-15583484D02*
X6906717Y-15593008D01*
X6906717Y-15593008D02*
X6916241Y-15602531D01*
X6916241Y-15602531D02*
X6925765Y-15621579D01*
X6925765Y-15621579D02*
X6935289Y-15659674D01*
X6935289Y-15659674D02*
X6935289Y-15707293D01*
X6935289Y-15707293D02*
X6925765Y-15745388D01*
X6925765Y-15745388D02*
X6916241Y-15764436D01*
X6916241Y-15764436D02*
X6906717Y-15773960D01*
X6906717Y-15773960D02*
X6887670Y-15783484D01*
X6887670Y-15783484D02*
X6868622Y-15783484D01*
X6868622Y-15783484D02*
X6849574Y-15773960D01*
X6849574Y-15773960D02*
X6840051Y-15764436D01*
X6840051Y-15764436D02*
X6830527Y-15745388D01*
X6830527Y-15745388D02*
X6821003Y-15707293D01*
X6821003Y-15707293D02*
X6821003Y-15659674D01*
X6821003Y-15659674D02*
X6830527Y-15621579D01*
X6830527Y-15621579D02*
X6840051Y-15602531D01*
X6840051Y-15602531D02*
X6849574Y-15593008D01*
X6849574Y-15593008D02*
X6868622Y-15583484D01*
X7021003Y-15764436D02*
X7030527Y-15773960D01*
X7030527Y-15773960D02*
X7021003Y-15783484D01*
X7021003Y-15783484D02*
X7011479Y-15773960D01*
X7011479Y-15773960D02*
X7021003Y-15764436D01*
X7021003Y-15764436D02*
X7021003Y-15783484D01*
X7097193Y-15583484D02*
X7221003Y-15583484D01*
X7221003Y-15583484D02*
X7154336Y-15659674D01*
X7154336Y-15659674D02*
X7182908Y-15659674D01*
X7182908Y-15659674D02*
X7201955Y-15669198D01*
X7201955Y-15669198D02*
X7211479Y-15678722D01*
X7211479Y-15678722D02*
X7221003Y-15697769D01*
X7221003Y-15697769D02*
X7221003Y-15745388D01*
X7221003Y-15745388D02*
X7211479Y-15764436D01*
X7211479Y-15764436D02*
X7201955Y-15773960D01*
X7201955Y-15773960D02*
X7182908Y-15783484D01*
X7182908Y-15783484D02*
X7125765Y-15783484D01*
X7125765Y-15783484D02*
X7106717Y-15773960D01*
X7106717Y-15773960D02*
X7097193Y-15764436D01*
X7344812Y-15583484D02*
X7363860Y-15583484D01*
X7363860Y-15583484D02*
X7382908Y-15593008D01*
X7382908Y-15593008D02*
X7392432Y-15602531D01*
X7392432Y-15602531D02*
X7401955Y-15621579D01*
X7401955Y-15621579D02*
X7411479Y-15659674D01*
X7411479Y-15659674D02*
X7411479Y-15707293D01*
X7411479Y-15707293D02*
X7401955Y-15745388D01*
X7401955Y-15745388D02*
X7392432Y-15764436D01*
X7392432Y-15764436D02*
X7382908Y-15773960D01*
X7382908Y-15773960D02*
X7363860Y-15783484D01*
X7363860Y-15783484D02*
X7344812Y-15783484D01*
X7344812Y-15783484D02*
X7325765Y-15773960D01*
X7325765Y-15773960D02*
X7316241Y-15764436D01*
X7316241Y-15764436D02*
X7306717Y-15745388D01*
X7306717Y-15745388D02*
X7297193Y-15707293D01*
X7297193Y-15707293D02*
X7297193Y-15659674D01*
X7297193Y-15659674D02*
X7306717Y-15621579D01*
X7306717Y-15621579D02*
X7316241Y-15602531D01*
X7316241Y-15602531D02*
X7325765Y-15593008D01*
X7325765Y-15593008D02*
X7344812Y-15583484D01*
X7535289Y-15583484D02*
X7554336Y-15583484D01*
X7554336Y-15583484D02*
X7573384Y-15593008D01*
X7573384Y-15593008D02*
X7582908Y-15602531D01*
X7582908Y-15602531D02*
X7592432Y-15621579D01*
X7592432Y-15621579D02*
X7601955Y-15659674D01*
X7601955Y-15659674D02*
X7601955Y-15707293D01*
X7601955Y-15707293D02*
X7592432Y-15745388D01*
X7592432Y-15745388D02*
X7582908Y-15764436D01*
X7582908Y-15764436D02*
X7573384Y-15773960D01*
X7573384Y-15773960D02*
X7554336Y-15783484D01*
X7554336Y-15783484D02*
X7535289Y-15783484D01*
X7535289Y-15783484D02*
X7516241Y-15773960D01*
X7516241Y-15773960D02*
X7506717Y-15764436D01*
X7506717Y-15764436D02*
X7497193Y-15745388D01*
X7497193Y-15745388D02*
X7487670Y-15707293D01*
X7487670Y-15707293D02*
X7487670Y-15659674D01*
X7487670Y-15659674D02*
X7497193Y-15621579D01*
X7497193Y-15621579D02*
X7506717Y-15602531D01*
X7506717Y-15602531D02*
X7516241Y-15593008D01*
X7516241Y-15593008D02*
X7535289Y-15583484D01*
X7687670Y-15783484D02*
X7687670Y-15650150D01*
X7687670Y-15669198D02*
X7697193Y-15659674D01*
X7697193Y-15659674D02*
X7716241Y-15650150D01*
X7716241Y-15650150D02*
X7744813Y-15650150D01*
X7744813Y-15650150D02*
X7763860Y-15659674D01*
X7763860Y-15659674D02*
X7773384Y-15678722D01*
X7773384Y-15678722D02*
X7773384Y-15783484D01*
X7773384Y-15678722D02*
X7782908Y-15659674D01*
X7782908Y-15659674D02*
X7801955Y-15650150D01*
X7801955Y-15650150D02*
X7830527Y-15650150D01*
X7830527Y-15650150D02*
X7849574Y-15659674D01*
X7849574Y-15659674D02*
X7859098Y-15678722D01*
X7859098Y-15678722D02*
X7859098Y-15783484D01*
X7954336Y-15783484D02*
X7954336Y-15650150D01*
X7954336Y-15669198D02*
X7963860Y-15659674D01*
X7963860Y-15659674D02*
X7982908Y-15650150D01*
X7982908Y-15650150D02*
X8011479Y-15650150D01*
X8011479Y-15650150D02*
X8030527Y-15659674D01*
X8030527Y-15659674D02*
X8040051Y-15678722D01*
X8040051Y-15678722D02*
X8040051Y-15783484D01*
X8040051Y-15678722D02*
X8049574Y-15659674D01*
X8049574Y-15659674D02*
X8068622Y-15650150D01*
X8068622Y-15650150D02*
X8097193Y-15650150D01*
X8097193Y-15650150D02*
X8116241Y-15659674D01*
X8116241Y-15659674D02*
X8125765Y-15678722D01*
X8125765Y-15678722D02*
X8125765Y-15783484D01*
X8516241Y-15573960D02*
X8344813Y-15831103D01*
X8773384Y-15583484D02*
X8792432Y-15583484D01*
X8792432Y-15583484D02*
X8811479Y-15593008D01*
X8811479Y-15593008D02*
X8821003Y-15602531D01*
X8821003Y-15602531D02*
X8830527Y-15621579D01*
X8830527Y-15621579D02*
X8840051Y-15659674D01*
X8840051Y-15659674D02*
X8840051Y-15707293D01*
X8840051Y-15707293D02*
X8830527Y-15745388D01*
X8830527Y-15745388D02*
X8821003Y-15764436D01*
X8821003Y-15764436D02*
X8811479Y-15773960D01*
X8811479Y-15773960D02*
X8792432Y-15783484D01*
X8792432Y-15783484D02*
X8773384Y-15783484D01*
X8773384Y-15783484D02*
X8754337Y-15773960D01*
X8754337Y-15773960D02*
X8744813Y-15764436D01*
X8744813Y-15764436D02*
X8735289Y-15745388D01*
X8735289Y-15745388D02*
X8725765Y-15707293D01*
X8725765Y-15707293D02*
X8725765Y-15659674D01*
X8725765Y-15659674D02*
X8735289Y-15621579D01*
X8735289Y-15621579D02*
X8744813Y-15602531D01*
X8744813Y-15602531D02*
X8754337Y-15593008D01*
X8754337Y-15593008D02*
X8773384Y-15583484D01*
X8925765Y-15764436D02*
X8935289Y-15773960D01*
X8935289Y-15773960D02*
X8925765Y-15783484D01*
X8925765Y-15783484D02*
X8916241Y-15773960D01*
X8916241Y-15773960D02*
X8925765Y-15764436D01*
X8925765Y-15764436D02*
X8925765Y-15783484D01*
X9059098Y-15583484D02*
X9078146Y-15583484D01*
X9078146Y-15583484D02*
X9097194Y-15593008D01*
X9097194Y-15593008D02*
X9106718Y-15602531D01*
X9106718Y-15602531D02*
X9116241Y-15621579D01*
X9116241Y-15621579D02*
X9125765Y-15659674D01*
X9125765Y-15659674D02*
X9125765Y-15707293D01*
X9125765Y-15707293D02*
X9116241Y-15745388D01*
X9116241Y-15745388D02*
X9106718Y-15764436D01*
X9106718Y-15764436D02*
X9097194Y-15773960D01*
X9097194Y-15773960D02*
X9078146Y-15783484D01*
X9078146Y-15783484D02*
X9059098Y-15783484D01*
X9059098Y-15783484D02*
X9040051Y-15773960D01*
X9040051Y-15773960D02*
X9030527Y-15764436D01*
X9030527Y-15764436D02*
X9021003Y-15745388D01*
X9021003Y-15745388D02*
X9011479Y-15707293D01*
X9011479Y-15707293D02*
X9011479Y-15659674D01*
X9011479Y-15659674D02*
X9021003Y-15621579D01*
X9021003Y-15621579D02*
X9030527Y-15602531D01*
X9030527Y-15602531D02*
X9040051Y-15593008D01*
X9040051Y-15593008D02*
X9059098Y-15583484D01*
X9316241Y-15783484D02*
X9201956Y-15783484D01*
X9259098Y-15783484D02*
X9259098Y-15583484D01*
X9259098Y-15583484D02*
X9240051Y-15612055D01*
X9240051Y-15612055D02*
X9221003Y-15631103D01*
X9221003Y-15631103D02*
X9201956Y-15640627D01*
X9506718Y-15783484D02*
X9392432Y-15783484D01*
X9449575Y-15783484D02*
X9449575Y-15583484D01*
X9449575Y-15583484D02*
X9430527Y-15612055D01*
X9430527Y-15612055D02*
X9411479Y-15631103D01*
X9411479Y-15631103D02*
X9392432Y-15640627D01*
X9621003Y-15669198D02*
X9601956Y-15659674D01*
X9601956Y-15659674D02*
X9592432Y-15650150D01*
X9592432Y-15650150D02*
X9582908Y-15631103D01*
X9582908Y-15631103D02*
X9582908Y-15621579D01*
X9582908Y-15621579D02*
X9592432Y-15602531D01*
X9592432Y-15602531D02*
X9601956Y-15593008D01*
X9601956Y-15593008D02*
X9621003Y-15583484D01*
X9621003Y-15583484D02*
X9659099Y-15583484D01*
X9659099Y-15583484D02*
X9678146Y-15593008D01*
X9678146Y-15593008D02*
X9687670Y-15602531D01*
X9687670Y-15602531D02*
X9697194Y-15621579D01*
X9697194Y-15621579D02*
X9697194Y-15631103D01*
X9697194Y-15631103D02*
X9687670Y-15650150D01*
X9687670Y-15650150D02*
X9678146Y-15659674D01*
X9678146Y-15659674D02*
X9659099Y-15669198D01*
X9659099Y-15669198D02*
X9621003Y-15669198D01*
X9621003Y-15669198D02*
X9601956Y-15678722D01*
X9601956Y-15678722D02*
X9592432Y-15688246D01*
X9592432Y-15688246D02*
X9582908Y-15707293D01*
X9582908Y-15707293D02*
X9582908Y-15745388D01*
X9582908Y-15745388D02*
X9592432Y-15764436D01*
X9592432Y-15764436D02*
X9601956Y-15773960D01*
X9601956Y-15773960D02*
X9621003Y-15783484D01*
X9621003Y-15783484D02*
X9659099Y-15783484D01*
X9659099Y-15783484D02*
X9678146Y-15773960D01*
X9678146Y-15773960D02*
X9687670Y-15764436D01*
X9687670Y-15764436D02*
X9697194Y-15745388D01*
X9697194Y-15745388D02*
X9697194Y-15707293D01*
X9697194Y-15707293D02*
X9687670Y-15688246D01*
X9687670Y-15688246D02*
X9678146Y-15678722D01*
X9678146Y-15678722D02*
X9659099Y-15669198D01*
X9773384Y-15583484D02*
X9773384Y-15621579D01*
X9849575Y-15583484D02*
X9849575Y-15621579D01*
X10144813Y-15859674D02*
X10135289Y-15850150D01*
X10135289Y-15850150D02*
X10116241Y-15821579D01*
X10116241Y-15821579D02*
X10106718Y-15802531D01*
X10106718Y-15802531D02*
X10097194Y-15773960D01*
X10097194Y-15773960D02*
X10087670Y-15726341D01*
X10087670Y-15726341D02*
X10087670Y-15688246D01*
X10087670Y-15688246D02*
X10097194Y-15640627D01*
X10097194Y-15640627D02*
X10106718Y-15612055D01*
X10106718Y-15612055D02*
X10116241Y-15593008D01*
X10116241Y-15593008D02*
X10135289Y-15564436D01*
X10135289Y-15564436D02*
X10144813Y-15554912D01*
X10306718Y-15650150D02*
X10306718Y-15783484D01*
X10259099Y-15573960D02*
X10211480Y-15716817D01*
X10211480Y-15716817D02*
X10335289Y-15716817D01*
X10440051Y-15669198D02*
X10421003Y-15659674D01*
X10421003Y-15659674D02*
X10411480Y-15650150D01*
X10411480Y-15650150D02*
X10401956Y-15631103D01*
X10401956Y-15631103D02*
X10401956Y-15621579D01*
X10401956Y-15621579D02*
X10411480Y-15602531D01*
X10411480Y-15602531D02*
X10421003Y-15593008D01*
X10421003Y-15593008D02*
X10440051Y-15583484D01*
X10440051Y-15583484D02*
X10478146Y-15583484D01*
X10478146Y-15583484D02*
X10497194Y-15593008D01*
X10497194Y-15593008D02*
X10506718Y-15602531D01*
X10506718Y-15602531D02*
X10516241Y-15621579D01*
X10516241Y-15621579D02*
X10516241Y-15631103D01*
X10516241Y-15631103D02*
X10506718Y-15650150D01*
X10506718Y-15650150D02*
X10497194Y-15659674D01*
X10497194Y-15659674D02*
X10478146Y-15669198D01*
X10478146Y-15669198D02*
X10440051Y-15669198D01*
X10440051Y-15669198D02*
X10421003Y-15678722D01*
X10421003Y-15678722D02*
X10411480Y-15688246D01*
X10411480Y-15688246D02*
X10401956Y-15707293D01*
X10401956Y-15707293D02*
X10401956Y-15745388D01*
X10401956Y-15745388D02*
X10411480Y-15764436D01*
X10411480Y-15764436D02*
X10421003Y-15773960D01*
X10421003Y-15773960D02*
X10440051Y-15783484D01*
X10440051Y-15783484D02*
X10478146Y-15783484D01*
X10478146Y-15783484D02*
X10497194Y-15773960D01*
X10497194Y-15773960D02*
X10506718Y-15764436D01*
X10506718Y-15764436D02*
X10516241Y-15745388D01*
X10516241Y-15745388D02*
X10516241Y-15707293D01*
X10516241Y-15707293D02*
X10506718Y-15688246D01*
X10506718Y-15688246D02*
X10497194Y-15678722D01*
X10497194Y-15678722D02*
X10478146Y-15669198D01*
X10754337Y-15783484D02*
X10754337Y-15583484D01*
X10840051Y-15783484D02*
X10840051Y-15678722D01*
X10840051Y-15678722D02*
X10830527Y-15659674D01*
X10830527Y-15659674D02*
X10811480Y-15650150D01*
X10811480Y-15650150D02*
X10782908Y-15650150D01*
X10782908Y-15650150D02*
X10763861Y-15659674D01*
X10763861Y-15659674D02*
X10754337Y-15669198D01*
X10963861Y-15783484D02*
X10944813Y-15773960D01*
X10944813Y-15773960D02*
X10935289Y-15764436D01*
X10935289Y-15764436D02*
X10925765Y-15745388D01*
X10925765Y-15745388D02*
X10925765Y-15688246D01*
X10925765Y-15688246D02*
X10935289Y-15669198D01*
X10935289Y-15669198D02*
X10944813Y-15659674D01*
X10944813Y-15659674D02*
X10963861Y-15650150D01*
X10963861Y-15650150D02*
X10992432Y-15650150D01*
X10992432Y-15650150D02*
X11011480Y-15659674D01*
X11011480Y-15659674D02*
X11021003Y-15669198D01*
X11021003Y-15669198D02*
X11030527Y-15688246D01*
X11030527Y-15688246D02*
X11030527Y-15745388D01*
X11030527Y-15745388D02*
X11021003Y-15764436D01*
X11021003Y-15764436D02*
X11011480Y-15773960D01*
X11011480Y-15773960D02*
X10992432Y-15783484D01*
X10992432Y-15783484D02*
X10963861Y-15783484D01*
X11144813Y-15783484D02*
X11125765Y-15773960D01*
X11125765Y-15773960D02*
X11116242Y-15754912D01*
X11116242Y-15754912D02*
X11116242Y-15583484D01*
X11297194Y-15773960D02*
X11278146Y-15783484D01*
X11278146Y-15783484D02*
X11240051Y-15783484D01*
X11240051Y-15783484D02*
X11221003Y-15773960D01*
X11221003Y-15773960D02*
X11211480Y-15754912D01*
X11211480Y-15754912D02*
X11211480Y-15678722D01*
X11211480Y-15678722D02*
X11221003Y-15659674D01*
X11221003Y-15659674D02*
X11240051Y-15650150D01*
X11240051Y-15650150D02*
X11278146Y-15650150D01*
X11278146Y-15650150D02*
X11297194Y-15659674D01*
X11297194Y-15659674D02*
X11306718Y-15678722D01*
X11306718Y-15678722D02*
X11306718Y-15697769D01*
X11306718Y-15697769D02*
X11211480Y-15716817D01*
X11382908Y-15773960D02*
X11401956Y-15783484D01*
X11401956Y-15783484D02*
X11440051Y-15783484D01*
X11440051Y-15783484D02*
X11459099Y-15773960D01*
X11459099Y-15773960D02*
X11468622Y-15754912D01*
X11468622Y-15754912D02*
X11468622Y-15745388D01*
X11468622Y-15745388D02*
X11459099Y-15726341D01*
X11459099Y-15726341D02*
X11440051Y-15716817D01*
X11440051Y-15716817D02*
X11411480Y-15716817D01*
X11411480Y-15716817D02*
X11392432Y-15707293D01*
X11392432Y-15707293D02*
X11382908Y-15688246D01*
X11382908Y-15688246D02*
X11382908Y-15678722D01*
X11382908Y-15678722D02*
X11392432Y-15659674D01*
X11392432Y-15659674D02*
X11411480Y-15650150D01*
X11411480Y-15650150D02*
X11440051Y-15650150D01*
X11440051Y-15650150D02*
X11459099Y-15659674D01*
X11535289Y-15859674D02*
X11544813Y-15850150D01*
X11544813Y-15850150D02*
X11563861Y-15821579D01*
X11563861Y-15821579D02*
X11573384Y-15802531D01*
X11573384Y-15802531D02*
X11582908Y-15773960D01*
X11582908Y-15773960D02*
X11592432Y-15726341D01*
X11592432Y-15726341D02*
X11592432Y-15688246D01*
X11592432Y-15688246D02*
X11582908Y-15640627D01*
X11582908Y-15640627D02*
X11573384Y-15612055D01*
X11573384Y-15612055D02*
X11563861Y-15593008D01*
X11563861Y-15593008D02*
X11544813Y-15564436D01*
X11544813Y-15564436D02*
X11535289Y-15554912D01*
D12*
X6569750Y-15956000D02*
G75*
G02*
X6529750Y-15956000I-20000J0D01*
G01*
X6529750Y-15956000D02*
G75*
G02*
X6569750Y-15956000I20000J0D01*
G01*
D11*
X6868622Y-15847484D02*
X6887670Y-15847484D01*
X6887670Y-15847484D02*
X6906717Y-15857008D01*
X6906717Y-15857008D02*
X6916241Y-15866531D01*
X6916241Y-15866531D02*
X6925765Y-15885579D01*
X6925765Y-15885579D02*
X6935289Y-15923674D01*
X6935289Y-15923674D02*
X6935289Y-15971293D01*
X6935289Y-15971293D02*
X6925765Y-16009388D01*
X6925765Y-16009388D02*
X6916241Y-16028436D01*
X6916241Y-16028436D02*
X6906717Y-16037960D01*
X6906717Y-16037960D02*
X6887670Y-16047484D01*
X6887670Y-16047484D02*
X6868622Y-16047484D01*
X6868622Y-16047484D02*
X6849574Y-16037960D01*
X6849574Y-16037960D02*
X6840051Y-16028436D01*
X6840051Y-16028436D02*
X6830527Y-16009388D01*
X6830527Y-16009388D02*
X6821003Y-15971293D01*
X6821003Y-15971293D02*
X6821003Y-15923674D01*
X6821003Y-15923674D02*
X6830527Y-15885579D01*
X6830527Y-15885579D02*
X6840051Y-15866531D01*
X6840051Y-15866531D02*
X6849574Y-15857008D01*
X6849574Y-15857008D02*
X6868622Y-15847484D01*
X7021003Y-16028436D02*
X7030527Y-16037960D01*
X7030527Y-16037960D02*
X7021003Y-16047484D01*
X7021003Y-16047484D02*
X7011479Y-16037960D01*
X7011479Y-16037960D02*
X7021003Y-16028436D01*
X7021003Y-16028436D02*
X7021003Y-16047484D01*
X7201955Y-15914150D02*
X7201955Y-16047484D01*
X7154336Y-15837960D02*
X7106717Y-15980817D01*
X7106717Y-15980817D02*
X7230527Y-15980817D01*
X7344812Y-15847484D02*
X7363860Y-15847484D01*
X7363860Y-15847484D02*
X7382908Y-15857008D01*
X7382908Y-15857008D02*
X7392432Y-15866531D01*
X7392432Y-15866531D02*
X7401955Y-15885579D01*
X7401955Y-15885579D02*
X7411479Y-15923674D01*
X7411479Y-15923674D02*
X7411479Y-15971293D01*
X7411479Y-15971293D02*
X7401955Y-16009388D01*
X7401955Y-16009388D02*
X7392432Y-16028436D01*
X7392432Y-16028436D02*
X7382908Y-16037960D01*
X7382908Y-16037960D02*
X7363860Y-16047484D01*
X7363860Y-16047484D02*
X7344812Y-16047484D01*
X7344812Y-16047484D02*
X7325765Y-16037960D01*
X7325765Y-16037960D02*
X7316241Y-16028436D01*
X7316241Y-16028436D02*
X7306717Y-16009388D01*
X7306717Y-16009388D02*
X7297193Y-15971293D01*
X7297193Y-15971293D02*
X7297193Y-15923674D01*
X7297193Y-15923674D02*
X7306717Y-15885579D01*
X7306717Y-15885579D02*
X7316241Y-15866531D01*
X7316241Y-15866531D02*
X7325765Y-15857008D01*
X7325765Y-15857008D02*
X7344812Y-15847484D01*
X7535289Y-15847484D02*
X7554336Y-15847484D01*
X7554336Y-15847484D02*
X7573384Y-15857008D01*
X7573384Y-15857008D02*
X7582908Y-15866531D01*
X7582908Y-15866531D02*
X7592432Y-15885579D01*
X7592432Y-15885579D02*
X7601955Y-15923674D01*
X7601955Y-15923674D02*
X7601955Y-15971293D01*
X7601955Y-15971293D02*
X7592432Y-16009388D01*
X7592432Y-16009388D02*
X7582908Y-16028436D01*
X7582908Y-16028436D02*
X7573384Y-16037960D01*
X7573384Y-16037960D02*
X7554336Y-16047484D01*
X7554336Y-16047484D02*
X7535289Y-16047484D01*
X7535289Y-16047484D02*
X7516241Y-16037960D01*
X7516241Y-16037960D02*
X7506717Y-16028436D01*
X7506717Y-16028436D02*
X7497193Y-16009388D01*
X7497193Y-16009388D02*
X7487670Y-15971293D01*
X7487670Y-15971293D02*
X7487670Y-15923674D01*
X7487670Y-15923674D02*
X7497193Y-15885579D01*
X7497193Y-15885579D02*
X7506717Y-15866531D01*
X7506717Y-15866531D02*
X7516241Y-15857008D01*
X7516241Y-15857008D02*
X7535289Y-15847484D01*
X7687670Y-16047484D02*
X7687670Y-15914150D01*
X7687670Y-15933198D02*
X7697193Y-15923674D01*
X7697193Y-15923674D02*
X7716241Y-15914150D01*
X7716241Y-15914150D02*
X7744813Y-15914150D01*
X7744813Y-15914150D02*
X7763860Y-15923674D01*
X7763860Y-15923674D02*
X7773384Y-15942722D01*
X7773384Y-15942722D02*
X7773384Y-16047484D01*
X7773384Y-15942722D02*
X7782908Y-15923674D01*
X7782908Y-15923674D02*
X7801955Y-15914150D01*
X7801955Y-15914150D02*
X7830527Y-15914150D01*
X7830527Y-15914150D02*
X7849574Y-15923674D01*
X7849574Y-15923674D02*
X7859098Y-15942722D01*
X7859098Y-15942722D02*
X7859098Y-16047484D01*
X7954336Y-16047484D02*
X7954336Y-15914150D01*
X7954336Y-15933198D02*
X7963860Y-15923674D01*
X7963860Y-15923674D02*
X7982908Y-15914150D01*
X7982908Y-15914150D02*
X8011479Y-15914150D01*
X8011479Y-15914150D02*
X8030527Y-15923674D01*
X8030527Y-15923674D02*
X8040051Y-15942722D01*
X8040051Y-15942722D02*
X8040051Y-16047484D01*
X8040051Y-15942722D02*
X8049574Y-15923674D01*
X8049574Y-15923674D02*
X8068622Y-15914150D01*
X8068622Y-15914150D02*
X8097193Y-15914150D01*
X8097193Y-15914150D02*
X8116241Y-15923674D01*
X8116241Y-15923674D02*
X8125765Y-15942722D01*
X8125765Y-15942722D02*
X8125765Y-16047484D01*
X8516241Y-15837960D02*
X8344813Y-16095103D01*
X8773384Y-15847484D02*
X8792432Y-15847484D01*
X8792432Y-15847484D02*
X8811479Y-15857008D01*
X8811479Y-15857008D02*
X8821003Y-15866531D01*
X8821003Y-15866531D02*
X8830527Y-15885579D01*
X8830527Y-15885579D02*
X8840051Y-15923674D01*
X8840051Y-15923674D02*
X8840051Y-15971293D01*
X8840051Y-15971293D02*
X8830527Y-16009388D01*
X8830527Y-16009388D02*
X8821003Y-16028436D01*
X8821003Y-16028436D02*
X8811479Y-16037960D01*
X8811479Y-16037960D02*
X8792432Y-16047484D01*
X8792432Y-16047484D02*
X8773384Y-16047484D01*
X8773384Y-16047484D02*
X8754337Y-16037960D01*
X8754337Y-16037960D02*
X8744813Y-16028436D01*
X8744813Y-16028436D02*
X8735289Y-16009388D01*
X8735289Y-16009388D02*
X8725765Y-15971293D01*
X8725765Y-15971293D02*
X8725765Y-15923674D01*
X8725765Y-15923674D02*
X8735289Y-15885579D01*
X8735289Y-15885579D02*
X8744813Y-15866531D01*
X8744813Y-15866531D02*
X8754337Y-15857008D01*
X8754337Y-15857008D02*
X8773384Y-15847484D01*
X8925765Y-16028436D02*
X8935289Y-16037960D01*
X8935289Y-16037960D02*
X8925765Y-16047484D01*
X8925765Y-16047484D02*
X8916241Y-16037960D01*
X8916241Y-16037960D02*
X8925765Y-16028436D01*
X8925765Y-16028436D02*
X8925765Y-16047484D01*
X9059098Y-15847484D02*
X9078146Y-15847484D01*
X9078146Y-15847484D02*
X9097194Y-15857008D01*
X9097194Y-15857008D02*
X9106718Y-15866531D01*
X9106718Y-15866531D02*
X9116241Y-15885579D01*
X9116241Y-15885579D02*
X9125765Y-15923674D01*
X9125765Y-15923674D02*
X9125765Y-15971293D01*
X9125765Y-15971293D02*
X9116241Y-16009388D01*
X9116241Y-16009388D02*
X9106718Y-16028436D01*
X9106718Y-16028436D02*
X9097194Y-16037960D01*
X9097194Y-16037960D02*
X9078146Y-16047484D01*
X9078146Y-16047484D02*
X9059098Y-16047484D01*
X9059098Y-16047484D02*
X9040051Y-16037960D01*
X9040051Y-16037960D02*
X9030527Y-16028436D01*
X9030527Y-16028436D02*
X9021003Y-16009388D01*
X9021003Y-16009388D02*
X9011479Y-15971293D01*
X9011479Y-15971293D02*
X9011479Y-15923674D01*
X9011479Y-15923674D02*
X9021003Y-15885579D01*
X9021003Y-15885579D02*
X9030527Y-15866531D01*
X9030527Y-15866531D02*
X9040051Y-15857008D01*
X9040051Y-15857008D02*
X9059098Y-15847484D01*
X9316241Y-16047484D02*
X9201956Y-16047484D01*
X9259098Y-16047484D02*
X9259098Y-15847484D01*
X9259098Y-15847484D02*
X9240051Y-15876055D01*
X9240051Y-15876055D02*
X9221003Y-15895103D01*
X9221003Y-15895103D02*
X9201956Y-15904627D01*
X9497194Y-15847484D02*
X9401956Y-15847484D01*
X9401956Y-15847484D02*
X9392432Y-15942722D01*
X9392432Y-15942722D02*
X9401956Y-15933198D01*
X9401956Y-15933198D02*
X9421003Y-15923674D01*
X9421003Y-15923674D02*
X9468622Y-15923674D01*
X9468622Y-15923674D02*
X9487670Y-15933198D01*
X9487670Y-15933198D02*
X9497194Y-15942722D01*
X9497194Y-15942722D02*
X9506718Y-15961769D01*
X9506718Y-15961769D02*
X9506718Y-16009388D01*
X9506718Y-16009388D02*
X9497194Y-16028436D01*
X9497194Y-16028436D02*
X9487670Y-16037960D01*
X9487670Y-16037960D02*
X9468622Y-16047484D01*
X9468622Y-16047484D02*
X9421003Y-16047484D01*
X9421003Y-16047484D02*
X9401956Y-16037960D01*
X9401956Y-16037960D02*
X9392432Y-16028436D01*
X9573384Y-15847484D02*
X9706718Y-15847484D01*
X9706718Y-15847484D02*
X9621003Y-16047484D01*
X9773384Y-15847484D02*
X9773384Y-15885579D01*
X9849575Y-15847484D02*
X9849575Y-15885579D01*
X10144813Y-16123674D02*
X10135289Y-16114150D01*
X10135289Y-16114150D02*
X10116241Y-16085579D01*
X10116241Y-16085579D02*
X10106718Y-16066531D01*
X10106718Y-16066531D02*
X10097194Y-16037960D01*
X10097194Y-16037960D02*
X10087670Y-15990341D01*
X10087670Y-15990341D02*
X10087670Y-15952246D01*
X10087670Y-15952246D02*
X10097194Y-15904627D01*
X10097194Y-15904627D02*
X10106718Y-15876055D01*
X10106718Y-15876055D02*
X10116241Y-15857008D01*
X10116241Y-15857008D02*
X10135289Y-15828436D01*
X10135289Y-15828436D02*
X10144813Y-15818912D01*
X10325765Y-16047484D02*
X10211480Y-16047484D01*
X10268622Y-16047484D02*
X10268622Y-15847484D01*
X10268622Y-15847484D02*
X10249575Y-15876055D01*
X10249575Y-15876055D02*
X10230527Y-15895103D01*
X10230527Y-15895103D02*
X10211480Y-15904627D01*
X10563861Y-16047484D02*
X10563861Y-15847484D01*
X10649575Y-16047484D02*
X10649575Y-15942722D01*
X10649575Y-15942722D02*
X10640051Y-15923674D01*
X10640051Y-15923674D02*
X10621003Y-15914150D01*
X10621003Y-15914150D02*
X10592432Y-15914150D01*
X10592432Y-15914150D02*
X10573384Y-15923674D01*
X10573384Y-15923674D02*
X10563861Y-15933198D01*
X10773384Y-16047484D02*
X10754337Y-16037960D01*
X10754337Y-16037960D02*
X10744813Y-16028436D01*
X10744813Y-16028436D02*
X10735289Y-16009388D01*
X10735289Y-16009388D02*
X10735289Y-15952246D01*
X10735289Y-15952246D02*
X10744813Y-15933198D01*
X10744813Y-15933198D02*
X10754337Y-15923674D01*
X10754337Y-15923674D02*
X10773384Y-15914150D01*
X10773384Y-15914150D02*
X10801956Y-15914150D01*
X10801956Y-15914150D02*
X10821003Y-15923674D01*
X10821003Y-15923674D02*
X10830527Y-15933198D01*
X10830527Y-15933198D02*
X10840051Y-15952246D01*
X10840051Y-15952246D02*
X10840051Y-16009388D01*
X10840051Y-16009388D02*
X10830527Y-16028436D01*
X10830527Y-16028436D02*
X10821003Y-16037960D01*
X10821003Y-16037960D02*
X10801956Y-16047484D01*
X10801956Y-16047484D02*
X10773384Y-16047484D01*
X10954337Y-16047484D02*
X10935289Y-16037960D01*
X10935289Y-16037960D02*
X10925765Y-16018912D01*
X10925765Y-16018912D02*
X10925765Y-15847484D01*
X11106718Y-16037960D02*
X11087670Y-16047484D01*
X11087670Y-16047484D02*
X11049575Y-16047484D01*
X11049575Y-16047484D02*
X11030527Y-16037960D01*
X11030527Y-16037960D02*
X11021003Y-16018912D01*
X11021003Y-16018912D02*
X11021003Y-15942722D01*
X11021003Y-15942722D02*
X11030527Y-15923674D01*
X11030527Y-15923674D02*
X11049575Y-15914150D01*
X11049575Y-15914150D02*
X11087670Y-15914150D01*
X11087670Y-15914150D02*
X11106718Y-15923674D01*
X11106718Y-15923674D02*
X11116242Y-15942722D01*
X11116242Y-15942722D02*
X11116242Y-15961769D01*
X11116242Y-15961769D02*
X11021003Y-15980817D01*
X11182908Y-16123674D02*
X11192432Y-16114150D01*
X11192432Y-16114150D02*
X11211480Y-16085579D01*
X11211480Y-16085579D02*
X11221003Y-16066531D01*
X11221003Y-16066531D02*
X11230527Y-16037960D01*
X11230527Y-16037960D02*
X11240051Y-15990341D01*
X11240051Y-15990341D02*
X11240051Y-15952246D01*
X11240051Y-15952246D02*
X11230527Y-15904627D01*
X11230527Y-15904627D02*
X11221003Y-15876055D01*
X11221003Y-15876055D02*
X11211480Y-15857008D01*
X11211480Y-15857008D02*
X11192432Y-15828436D01*
X11192432Y-15828436D02*
X11182908Y-15818912D01*
D12*
X6539750Y-16190000D02*
X6539750Y-16250000D01*
X6509750Y-16220000D02*
X6569750Y-16220000D01*
D11*
X6868622Y-16111484D02*
X6887670Y-16111484D01*
X6887670Y-16111484D02*
X6906717Y-16121008D01*
X6906717Y-16121008D02*
X6916241Y-16130531D01*
X6916241Y-16130531D02*
X6925765Y-16149579D01*
X6925765Y-16149579D02*
X6935289Y-16187674D01*
X6935289Y-16187674D02*
X6935289Y-16235293D01*
X6935289Y-16235293D02*
X6925765Y-16273388D01*
X6925765Y-16273388D02*
X6916241Y-16292436D01*
X6916241Y-16292436D02*
X6906717Y-16301960D01*
X6906717Y-16301960D02*
X6887670Y-16311484D01*
X6887670Y-16311484D02*
X6868622Y-16311484D01*
X6868622Y-16311484D02*
X6849574Y-16301960D01*
X6849574Y-16301960D02*
X6840051Y-16292436D01*
X6840051Y-16292436D02*
X6830527Y-16273388D01*
X6830527Y-16273388D02*
X6821003Y-16235293D01*
X6821003Y-16235293D02*
X6821003Y-16187674D01*
X6821003Y-16187674D02*
X6830527Y-16149579D01*
X6830527Y-16149579D02*
X6840051Y-16130531D01*
X6840051Y-16130531D02*
X6849574Y-16121008D01*
X6849574Y-16121008D02*
X6868622Y-16111484D01*
X7021003Y-16292436D02*
X7030527Y-16301960D01*
X7030527Y-16301960D02*
X7021003Y-16311484D01*
X7021003Y-16311484D02*
X7011479Y-16301960D01*
X7011479Y-16301960D02*
X7021003Y-16292436D01*
X7021003Y-16292436D02*
X7021003Y-16311484D01*
X7201955Y-16111484D02*
X7163860Y-16111484D01*
X7163860Y-16111484D02*
X7144812Y-16121008D01*
X7144812Y-16121008D02*
X7135289Y-16130531D01*
X7135289Y-16130531D02*
X7116241Y-16159103D01*
X7116241Y-16159103D02*
X7106717Y-16197198D01*
X7106717Y-16197198D02*
X7106717Y-16273388D01*
X7106717Y-16273388D02*
X7116241Y-16292436D01*
X7116241Y-16292436D02*
X7125765Y-16301960D01*
X7125765Y-16301960D02*
X7144812Y-16311484D01*
X7144812Y-16311484D02*
X7182908Y-16311484D01*
X7182908Y-16311484D02*
X7201955Y-16301960D01*
X7201955Y-16301960D02*
X7211479Y-16292436D01*
X7211479Y-16292436D02*
X7221003Y-16273388D01*
X7221003Y-16273388D02*
X7221003Y-16225769D01*
X7221003Y-16225769D02*
X7211479Y-16206722D01*
X7211479Y-16206722D02*
X7201955Y-16197198D01*
X7201955Y-16197198D02*
X7182908Y-16187674D01*
X7182908Y-16187674D02*
X7144812Y-16187674D01*
X7144812Y-16187674D02*
X7125765Y-16197198D01*
X7125765Y-16197198D02*
X7116241Y-16206722D01*
X7116241Y-16206722D02*
X7106717Y-16225769D01*
X7344812Y-16111484D02*
X7363860Y-16111484D01*
X7363860Y-16111484D02*
X7382908Y-16121008D01*
X7382908Y-16121008D02*
X7392432Y-16130531D01*
X7392432Y-16130531D02*
X7401955Y-16149579D01*
X7401955Y-16149579D02*
X7411479Y-16187674D01*
X7411479Y-16187674D02*
X7411479Y-16235293D01*
X7411479Y-16235293D02*
X7401955Y-16273388D01*
X7401955Y-16273388D02*
X7392432Y-16292436D01*
X7392432Y-16292436D02*
X7382908Y-16301960D01*
X7382908Y-16301960D02*
X7363860Y-16311484D01*
X7363860Y-16311484D02*
X7344812Y-16311484D01*
X7344812Y-16311484D02*
X7325765Y-16301960D01*
X7325765Y-16301960D02*
X7316241Y-16292436D01*
X7316241Y-16292436D02*
X7306717Y-16273388D01*
X7306717Y-16273388D02*
X7297193Y-16235293D01*
X7297193Y-16235293D02*
X7297193Y-16187674D01*
X7297193Y-16187674D02*
X7306717Y-16149579D01*
X7306717Y-16149579D02*
X7316241Y-16130531D01*
X7316241Y-16130531D02*
X7325765Y-16121008D01*
X7325765Y-16121008D02*
X7344812Y-16111484D01*
X7535289Y-16111484D02*
X7554336Y-16111484D01*
X7554336Y-16111484D02*
X7573384Y-16121008D01*
X7573384Y-16121008D02*
X7582908Y-16130531D01*
X7582908Y-16130531D02*
X7592432Y-16149579D01*
X7592432Y-16149579D02*
X7601955Y-16187674D01*
X7601955Y-16187674D02*
X7601955Y-16235293D01*
X7601955Y-16235293D02*
X7592432Y-16273388D01*
X7592432Y-16273388D02*
X7582908Y-16292436D01*
X7582908Y-16292436D02*
X7573384Y-16301960D01*
X7573384Y-16301960D02*
X7554336Y-16311484D01*
X7554336Y-16311484D02*
X7535289Y-16311484D01*
X7535289Y-16311484D02*
X7516241Y-16301960D01*
X7516241Y-16301960D02*
X7506717Y-16292436D01*
X7506717Y-16292436D02*
X7497193Y-16273388D01*
X7497193Y-16273388D02*
X7487670Y-16235293D01*
X7487670Y-16235293D02*
X7487670Y-16187674D01*
X7487670Y-16187674D02*
X7497193Y-16149579D01*
X7497193Y-16149579D02*
X7506717Y-16130531D01*
X7506717Y-16130531D02*
X7516241Y-16121008D01*
X7516241Y-16121008D02*
X7535289Y-16111484D01*
X7687670Y-16311484D02*
X7687670Y-16178150D01*
X7687670Y-16197198D02*
X7697193Y-16187674D01*
X7697193Y-16187674D02*
X7716241Y-16178150D01*
X7716241Y-16178150D02*
X7744813Y-16178150D01*
X7744813Y-16178150D02*
X7763860Y-16187674D01*
X7763860Y-16187674D02*
X7773384Y-16206722D01*
X7773384Y-16206722D02*
X7773384Y-16311484D01*
X7773384Y-16206722D02*
X7782908Y-16187674D01*
X7782908Y-16187674D02*
X7801955Y-16178150D01*
X7801955Y-16178150D02*
X7830527Y-16178150D01*
X7830527Y-16178150D02*
X7849574Y-16187674D01*
X7849574Y-16187674D02*
X7859098Y-16206722D01*
X7859098Y-16206722D02*
X7859098Y-16311484D01*
X7954336Y-16311484D02*
X7954336Y-16178150D01*
X7954336Y-16197198D02*
X7963860Y-16187674D01*
X7963860Y-16187674D02*
X7982908Y-16178150D01*
X7982908Y-16178150D02*
X8011479Y-16178150D01*
X8011479Y-16178150D02*
X8030527Y-16187674D01*
X8030527Y-16187674D02*
X8040051Y-16206722D01*
X8040051Y-16206722D02*
X8040051Y-16311484D01*
X8040051Y-16206722D02*
X8049574Y-16187674D01*
X8049574Y-16187674D02*
X8068622Y-16178150D01*
X8068622Y-16178150D02*
X8097193Y-16178150D01*
X8097193Y-16178150D02*
X8116241Y-16187674D01*
X8116241Y-16187674D02*
X8125765Y-16206722D01*
X8125765Y-16206722D02*
X8125765Y-16311484D01*
X8516241Y-16101960D02*
X8344813Y-16359103D01*
X8773384Y-16111484D02*
X8792432Y-16111484D01*
X8792432Y-16111484D02*
X8811479Y-16121008D01*
X8811479Y-16121008D02*
X8821003Y-16130531D01*
X8821003Y-16130531D02*
X8830527Y-16149579D01*
X8830527Y-16149579D02*
X8840051Y-16187674D01*
X8840051Y-16187674D02*
X8840051Y-16235293D01*
X8840051Y-16235293D02*
X8830527Y-16273388D01*
X8830527Y-16273388D02*
X8821003Y-16292436D01*
X8821003Y-16292436D02*
X8811479Y-16301960D01*
X8811479Y-16301960D02*
X8792432Y-16311484D01*
X8792432Y-16311484D02*
X8773384Y-16311484D01*
X8773384Y-16311484D02*
X8754337Y-16301960D01*
X8754337Y-16301960D02*
X8744813Y-16292436D01*
X8744813Y-16292436D02*
X8735289Y-16273388D01*
X8735289Y-16273388D02*
X8725765Y-16235293D01*
X8725765Y-16235293D02*
X8725765Y-16187674D01*
X8725765Y-16187674D02*
X8735289Y-16149579D01*
X8735289Y-16149579D02*
X8744813Y-16130531D01*
X8744813Y-16130531D02*
X8754337Y-16121008D01*
X8754337Y-16121008D02*
X8773384Y-16111484D01*
X8925765Y-16292436D02*
X8935289Y-16301960D01*
X8935289Y-16301960D02*
X8925765Y-16311484D01*
X8925765Y-16311484D02*
X8916241Y-16301960D01*
X8916241Y-16301960D02*
X8925765Y-16292436D01*
X8925765Y-16292436D02*
X8925765Y-16311484D01*
X9059098Y-16111484D02*
X9078146Y-16111484D01*
X9078146Y-16111484D02*
X9097194Y-16121008D01*
X9097194Y-16121008D02*
X9106718Y-16130531D01*
X9106718Y-16130531D02*
X9116241Y-16149579D01*
X9116241Y-16149579D02*
X9125765Y-16187674D01*
X9125765Y-16187674D02*
X9125765Y-16235293D01*
X9125765Y-16235293D02*
X9116241Y-16273388D01*
X9116241Y-16273388D02*
X9106718Y-16292436D01*
X9106718Y-16292436D02*
X9097194Y-16301960D01*
X9097194Y-16301960D02*
X9078146Y-16311484D01*
X9078146Y-16311484D02*
X9059098Y-16311484D01*
X9059098Y-16311484D02*
X9040051Y-16301960D01*
X9040051Y-16301960D02*
X9030527Y-16292436D01*
X9030527Y-16292436D02*
X9021003Y-16273388D01*
X9021003Y-16273388D02*
X9011479Y-16235293D01*
X9011479Y-16235293D02*
X9011479Y-16187674D01*
X9011479Y-16187674D02*
X9021003Y-16149579D01*
X9021003Y-16149579D02*
X9030527Y-16130531D01*
X9030527Y-16130531D02*
X9040051Y-16121008D01*
X9040051Y-16121008D02*
X9059098Y-16111484D01*
X9201956Y-16130531D02*
X9211479Y-16121008D01*
X9211479Y-16121008D02*
X9230527Y-16111484D01*
X9230527Y-16111484D02*
X9278146Y-16111484D01*
X9278146Y-16111484D02*
X9297194Y-16121008D01*
X9297194Y-16121008D02*
X9306718Y-16130531D01*
X9306718Y-16130531D02*
X9316241Y-16149579D01*
X9316241Y-16149579D02*
X9316241Y-16168627D01*
X9316241Y-16168627D02*
X9306718Y-16197198D01*
X9306718Y-16197198D02*
X9192432Y-16311484D01*
X9192432Y-16311484D02*
X9316241Y-16311484D01*
X9382908Y-16111484D02*
X9506718Y-16111484D01*
X9506718Y-16111484D02*
X9440051Y-16187674D01*
X9440051Y-16187674D02*
X9468622Y-16187674D01*
X9468622Y-16187674D02*
X9487670Y-16197198D01*
X9487670Y-16197198D02*
X9497194Y-16206722D01*
X9497194Y-16206722D02*
X9506718Y-16225769D01*
X9506718Y-16225769D02*
X9506718Y-16273388D01*
X9506718Y-16273388D02*
X9497194Y-16292436D01*
X9497194Y-16292436D02*
X9487670Y-16301960D01*
X9487670Y-16301960D02*
X9468622Y-16311484D01*
X9468622Y-16311484D02*
X9411479Y-16311484D01*
X9411479Y-16311484D02*
X9392432Y-16301960D01*
X9392432Y-16301960D02*
X9382908Y-16292436D01*
X9678146Y-16111484D02*
X9640051Y-16111484D01*
X9640051Y-16111484D02*
X9621003Y-16121008D01*
X9621003Y-16121008D02*
X9611479Y-16130531D01*
X9611479Y-16130531D02*
X9592432Y-16159103D01*
X9592432Y-16159103D02*
X9582908Y-16197198D01*
X9582908Y-16197198D02*
X9582908Y-16273388D01*
X9582908Y-16273388D02*
X9592432Y-16292436D01*
X9592432Y-16292436D02*
X9601956Y-16301960D01*
X9601956Y-16301960D02*
X9621003Y-16311484D01*
X9621003Y-16311484D02*
X9659099Y-16311484D01*
X9659099Y-16311484D02*
X9678146Y-16301960D01*
X9678146Y-16301960D02*
X9687670Y-16292436D01*
X9687670Y-16292436D02*
X9697194Y-16273388D01*
X9697194Y-16273388D02*
X9697194Y-16225769D01*
X9697194Y-16225769D02*
X9687670Y-16206722D01*
X9687670Y-16206722D02*
X9678146Y-16197198D01*
X9678146Y-16197198D02*
X9659099Y-16187674D01*
X9659099Y-16187674D02*
X9621003Y-16187674D01*
X9621003Y-16187674D02*
X9601956Y-16197198D01*
X9601956Y-16197198D02*
X9592432Y-16206722D01*
X9592432Y-16206722D02*
X9582908Y-16225769D01*
X9773384Y-16111484D02*
X9773384Y-16149579D01*
X9849575Y-16111484D02*
X9849575Y-16149579D01*
X10144813Y-16387674D02*
X10135289Y-16378150D01*
X10135289Y-16378150D02*
X10116241Y-16349579D01*
X10116241Y-16349579D02*
X10106718Y-16330531D01*
X10106718Y-16330531D02*
X10097194Y-16301960D01*
X10097194Y-16301960D02*
X10087670Y-16254341D01*
X10087670Y-16254341D02*
X10087670Y-16216246D01*
X10087670Y-16216246D02*
X10097194Y-16168627D01*
X10097194Y-16168627D02*
X10106718Y-16140055D01*
X10106718Y-16140055D02*
X10116241Y-16121008D01*
X10116241Y-16121008D02*
X10135289Y-16092436D01*
X10135289Y-16092436D02*
X10144813Y-16082912D01*
X10201956Y-16111484D02*
X10325765Y-16111484D01*
X10325765Y-16111484D02*
X10259099Y-16187674D01*
X10259099Y-16187674D02*
X10287670Y-16187674D01*
X10287670Y-16187674D02*
X10306718Y-16197198D01*
X10306718Y-16197198D02*
X10316241Y-16206722D01*
X10316241Y-16206722D02*
X10325765Y-16225769D01*
X10325765Y-16225769D02*
X10325765Y-16273388D01*
X10325765Y-16273388D02*
X10316241Y-16292436D01*
X10316241Y-16292436D02*
X10306718Y-16301960D01*
X10306718Y-16301960D02*
X10287670Y-16311484D01*
X10287670Y-16311484D02*
X10230527Y-16311484D01*
X10230527Y-16311484D02*
X10211480Y-16301960D01*
X10211480Y-16301960D02*
X10201956Y-16292436D01*
X10563861Y-16311484D02*
X10563861Y-16111484D01*
X10649575Y-16311484D02*
X10649575Y-16206722D01*
X10649575Y-16206722D02*
X10640051Y-16187674D01*
X10640051Y-16187674D02*
X10621003Y-16178150D01*
X10621003Y-16178150D02*
X10592432Y-16178150D01*
X10592432Y-16178150D02*
X10573384Y-16187674D01*
X10573384Y-16187674D02*
X10563861Y-16197198D01*
X10773384Y-16311484D02*
X10754337Y-16301960D01*
X10754337Y-16301960D02*
X10744813Y-16292436D01*
X10744813Y-16292436D02*
X10735289Y-16273388D01*
X10735289Y-16273388D02*
X10735289Y-16216246D01*
X10735289Y-16216246D02*
X10744813Y-16197198D01*
X10744813Y-16197198D02*
X10754337Y-16187674D01*
X10754337Y-16187674D02*
X10773384Y-16178150D01*
X10773384Y-16178150D02*
X10801956Y-16178150D01*
X10801956Y-16178150D02*
X10821003Y-16187674D01*
X10821003Y-16187674D02*
X10830527Y-16197198D01*
X10830527Y-16197198D02*
X10840051Y-16216246D01*
X10840051Y-16216246D02*
X10840051Y-16273388D01*
X10840051Y-16273388D02*
X10830527Y-16292436D01*
X10830527Y-16292436D02*
X10821003Y-16301960D01*
X10821003Y-16301960D02*
X10801956Y-16311484D01*
X10801956Y-16311484D02*
X10773384Y-16311484D01*
X10954337Y-16311484D02*
X10935289Y-16301960D01*
X10935289Y-16301960D02*
X10925765Y-16282912D01*
X10925765Y-16282912D02*
X10925765Y-16111484D01*
X11106718Y-16301960D02*
X11087670Y-16311484D01*
X11087670Y-16311484D02*
X11049575Y-16311484D01*
X11049575Y-16311484D02*
X11030527Y-16301960D01*
X11030527Y-16301960D02*
X11021003Y-16282912D01*
X11021003Y-16282912D02*
X11021003Y-16206722D01*
X11021003Y-16206722D02*
X11030527Y-16187674D01*
X11030527Y-16187674D02*
X11049575Y-16178150D01*
X11049575Y-16178150D02*
X11087670Y-16178150D01*
X11087670Y-16178150D02*
X11106718Y-16187674D01*
X11106718Y-16187674D02*
X11116242Y-16206722D01*
X11116242Y-16206722D02*
X11116242Y-16225769D01*
X11116242Y-16225769D02*
X11021003Y-16244817D01*
X11192432Y-16301960D02*
X11211480Y-16311484D01*
X11211480Y-16311484D02*
X11249575Y-16311484D01*
X11249575Y-16311484D02*
X11268622Y-16301960D01*
X11268622Y-16301960D02*
X11278146Y-16282912D01*
X11278146Y-16282912D02*
X11278146Y-16273388D01*
X11278146Y-16273388D02*
X11268622Y-16254341D01*
X11268622Y-16254341D02*
X11249575Y-16244817D01*
X11249575Y-16244817D02*
X11221003Y-16244817D01*
X11221003Y-16244817D02*
X11201956Y-16235293D01*
X11201956Y-16235293D02*
X11192432Y-16216246D01*
X11192432Y-16216246D02*
X11192432Y-16206722D01*
X11192432Y-16206722D02*
X11201956Y-16187674D01*
X11201956Y-16187674D02*
X11221003Y-16178150D01*
X11221003Y-16178150D02*
X11249575Y-16178150D01*
X11249575Y-16178150D02*
X11268622Y-16187674D01*
X11344813Y-16387674D02*
X11354337Y-16378150D01*
X11354337Y-16378150D02*
X11373384Y-16349579D01*
X11373384Y-16349579D02*
X11382908Y-16330531D01*
X11382908Y-16330531D02*
X11392432Y-16301960D01*
X11392432Y-16301960D02*
X11401956Y-16254341D01*
X11401956Y-16254341D02*
X11401956Y-16216246D01*
X11401956Y-16216246D02*
X11392432Y-16168627D01*
X11392432Y-16168627D02*
X11382908Y-16140055D01*
X11382908Y-16140055D02*
X11373384Y-16121008D01*
X11373384Y-16121008D02*
X11354337Y-16092436D01*
X11354337Y-16092436D02*
X11344813Y-16082912D01*
D12*
X6558034Y-16512284D02*
X6558034Y-16455715D01*
X6501465Y-16455715D01*
X6501465Y-16512284D01*
X6558034Y-16512284D01*
D11*
X6868622Y-16375484D02*
X6887670Y-16375484D01*
X6887670Y-16375484D02*
X6906717Y-16385008D01*
X6906717Y-16385008D02*
X6916241Y-16394531D01*
X6916241Y-16394531D02*
X6925765Y-16413579D01*
X6925765Y-16413579D02*
X6935289Y-16451674D01*
X6935289Y-16451674D02*
X6935289Y-16499293D01*
X6935289Y-16499293D02*
X6925765Y-16537388D01*
X6925765Y-16537388D02*
X6916241Y-16556436D01*
X6916241Y-16556436D02*
X6906717Y-16565960D01*
X6906717Y-16565960D02*
X6887670Y-16575484D01*
X6887670Y-16575484D02*
X6868622Y-16575484D01*
X6868622Y-16575484D02*
X6849574Y-16565960D01*
X6849574Y-16565960D02*
X6840051Y-16556436D01*
X6840051Y-16556436D02*
X6830527Y-16537388D01*
X6830527Y-16537388D02*
X6821003Y-16499293D01*
X6821003Y-16499293D02*
X6821003Y-16451674D01*
X6821003Y-16451674D02*
X6830527Y-16413579D01*
X6830527Y-16413579D02*
X6840051Y-16394531D01*
X6840051Y-16394531D02*
X6849574Y-16385008D01*
X6849574Y-16385008D02*
X6868622Y-16375484D01*
X7021003Y-16556436D02*
X7030527Y-16565960D01*
X7030527Y-16565960D02*
X7021003Y-16575484D01*
X7021003Y-16575484D02*
X7011479Y-16565960D01*
X7011479Y-16565960D02*
X7021003Y-16556436D01*
X7021003Y-16556436D02*
X7021003Y-16575484D01*
X7144812Y-16461198D02*
X7125765Y-16451674D01*
X7125765Y-16451674D02*
X7116241Y-16442150D01*
X7116241Y-16442150D02*
X7106717Y-16423103D01*
X7106717Y-16423103D02*
X7106717Y-16413579D01*
X7106717Y-16413579D02*
X7116241Y-16394531D01*
X7116241Y-16394531D02*
X7125765Y-16385008D01*
X7125765Y-16385008D02*
X7144812Y-16375484D01*
X7144812Y-16375484D02*
X7182908Y-16375484D01*
X7182908Y-16375484D02*
X7201955Y-16385008D01*
X7201955Y-16385008D02*
X7211479Y-16394531D01*
X7211479Y-16394531D02*
X7221003Y-16413579D01*
X7221003Y-16413579D02*
X7221003Y-16423103D01*
X7221003Y-16423103D02*
X7211479Y-16442150D01*
X7211479Y-16442150D02*
X7201955Y-16451674D01*
X7201955Y-16451674D02*
X7182908Y-16461198D01*
X7182908Y-16461198D02*
X7144812Y-16461198D01*
X7144812Y-16461198D02*
X7125765Y-16470722D01*
X7125765Y-16470722D02*
X7116241Y-16480246D01*
X7116241Y-16480246D02*
X7106717Y-16499293D01*
X7106717Y-16499293D02*
X7106717Y-16537388D01*
X7106717Y-16537388D02*
X7116241Y-16556436D01*
X7116241Y-16556436D02*
X7125765Y-16565960D01*
X7125765Y-16565960D02*
X7144812Y-16575484D01*
X7144812Y-16575484D02*
X7182908Y-16575484D01*
X7182908Y-16575484D02*
X7201955Y-16565960D01*
X7201955Y-16565960D02*
X7211479Y-16556436D01*
X7211479Y-16556436D02*
X7221003Y-16537388D01*
X7221003Y-16537388D02*
X7221003Y-16499293D01*
X7221003Y-16499293D02*
X7211479Y-16480246D01*
X7211479Y-16480246D02*
X7201955Y-16470722D01*
X7201955Y-16470722D02*
X7182908Y-16461198D01*
X7344812Y-16375484D02*
X7363860Y-16375484D01*
X7363860Y-16375484D02*
X7382908Y-16385008D01*
X7382908Y-16385008D02*
X7392432Y-16394531D01*
X7392432Y-16394531D02*
X7401955Y-16413579D01*
X7401955Y-16413579D02*
X7411479Y-16451674D01*
X7411479Y-16451674D02*
X7411479Y-16499293D01*
X7411479Y-16499293D02*
X7401955Y-16537388D01*
X7401955Y-16537388D02*
X7392432Y-16556436D01*
X7392432Y-16556436D02*
X7382908Y-16565960D01*
X7382908Y-16565960D02*
X7363860Y-16575484D01*
X7363860Y-16575484D02*
X7344812Y-16575484D01*
X7344812Y-16575484D02*
X7325765Y-16565960D01*
X7325765Y-16565960D02*
X7316241Y-16556436D01*
X7316241Y-16556436D02*
X7306717Y-16537388D01*
X7306717Y-16537388D02*
X7297193Y-16499293D01*
X7297193Y-16499293D02*
X7297193Y-16451674D01*
X7297193Y-16451674D02*
X7306717Y-16413579D01*
X7306717Y-16413579D02*
X7316241Y-16394531D01*
X7316241Y-16394531D02*
X7325765Y-16385008D01*
X7325765Y-16385008D02*
X7344812Y-16375484D01*
X7535289Y-16375484D02*
X7554336Y-16375484D01*
X7554336Y-16375484D02*
X7573384Y-16385008D01*
X7573384Y-16385008D02*
X7582908Y-16394531D01*
X7582908Y-16394531D02*
X7592432Y-16413579D01*
X7592432Y-16413579D02*
X7601955Y-16451674D01*
X7601955Y-16451674D02*
X7601955Y-16499293D01*
X7601955Y-16499293D02*
X7592432Y-16537388D01*
X7592432Y-16537388D02*
X7582908Y-16556436D01*
X7582908Y-16556436D02*
X7573384Y-16565960D01*
X7573384Y-16565960D02*
X7554336Y-16575484D01*
X7554336Y-16575484D02*
X7535289Y-16575484D01*
X7535289Y-16575484D02*
X7516241Y-16565960D01*
X7516241Y-16565960D02*
X7506717Y-16556436D01*
X7506717Y-16556436D02*
X7497193Y-16537388D01*
X7497193Y-16537388D02*
X7487670Y-16499293D01*
X7487670Y-16499293D02*
X7487670Y-16451674D01*
X7487670Y-16451674D02*
X7497193Y-16413579D01*
X7497193Y-16413579D02*
X7506717Y-16394531D01*
X7506717Y-16394531D02*
X7516241Y-16385008D01*
X7516241Y-16385008D02*
X7535289Y-16375484D01*
X7687670Y-16575484D02*
X7687670Y-16442150D01*
X7687670Y-16461198D02*
X7697193Y-16451674D01*
X7697193Y-16451674D02*
X7716241Y-16442150D01*
X7716241Y-16442150D02*
X7744813Y-16442150D01*
X7744813Y-16442150D02*
X7763860Y-16451674D01*
X7763860Y-16451674D02*
X7773384Y-16470722D01*
X7773384Y-16470722D02*
X7773384Y-16575484D01*
X7773384Y-16470722D02*
X7782908Y-16451674D01*
X7782908Y-16451674D02*
X7801955Y-16442150D01*
X7801955Y-16442150D02*
X7830527Y-16442150D01*
X7830527Y-16442150D02*
X7849574Y-16451674D01*
X7849574Y-16451674D02*
X7859098Y-16470722D01*
X7859098Y-16470722D02*
X7859098Y-16575484D01*
X7954336Y-16575484D02*
X7954336Y-16442150D01*
X7954336Y-16461198D02*
X7963860Y-16451674D01*
X7963860Y-16451674D02*
X7982908Y-16442150D01*
X7982908Y-16442150D02*
X8011479Y-16442150D01*
X8011479Y-16442150D02*
X8030527Y-16451674D01*
X8030527Y-16451674D02*
X8040051Y-16470722D01*
X8040051Y-16470722D02*
X8040051Y-16575484D01*
X8040051Y-16470722D02*
X8049574Y-16451674D01*
X8049574Y-16451674D02*
X8068622Y-16442150D01*
X8068622Y-16442150D02*
X8097193Y-16442150D01*
X8097193Y-16442150D02*
X8116241Y-16451674D01*
X8116241Y-16451674D02*
X8125765Y-16470722D01*
X8125765Y-16470722D02*
X8125765Y-16575484D01*
X8516241Y-16365960D02*
X8344813Y-16623103D01*
X8773384Y-16375484D02*
X8792432Y-16375484D01*
X8792432Y-16375484D02*
X8811479Y-16385008D01*
X8811479Y-16385008D02*
X8821003Y-16394531D01*
X8821003Y-16394531D02*
X8830527Y-16413579D01*
X8830527Y-16413579D02*
X8840051Y-16451674D01*
X8840051Y-16451674D02*
X8840051Y-16499293D01*
X8840051Y-16499293D02*
X8830527Y-16537388D01*
X8830527Y-16537388D02*
X8821003Y-16556436D01*
X8821003Y-16556436D02*
X8811479Y-16565960D01*
X8811479Y-16565960D02*
X8792432Y-16575484D01*
X8792432Y-16575484D02*
X8773384Y-16575484D01*
X8773384Y-16575484D02*
X8754337Y-16565960D01*
X8754337Y-16565960D02*
X8744813Y-16556436D01*
X8744813Y-16556436D02*
X8735289Y-16537388D01*
X8735289Y-16537388D02*
X8725765Y-16499293D01*
X8725765Y-16499293D02*
X8725765Y-16451674D01*
X8725765Y-16451674D02*
X8735289Y-16413579D01*
X8735289Y-16413579D02*
X8744813Y-16394531D01*
X8744813Y-16394531D02*
X8754337Y-16385008D01*
X8754337Y-16385008D02*
X8773384Y-16375484D01*
X8925765Y-16556436D02*
X8935289Y-16565960D01*
X8935289Y-16565960D02*
X8925765Y-16575484D01*
X8925765Y-16575484D02*
X8916241Y-16565960D01*
X8916241Y-16565960D02*
X8925765Y-16556436D01*
X8925765Y-16556436D02*
X8925765Y-16575484D01*
X9059098Y-16375484D02*
X9078146Y-16375484D01*
X9078146Y-16375484D02*
X9097194Y-16385008D01*
X9097194Y-16385008D02*
X9106718Y-16394531D01*
X9106718Y-16394531D02*
X9116241Y-16413579D01*
X9116241Y-16413579D02*
X9125765Y-16451674D01*
X9125765Y-16451674D02*
X9125765Y-16499293D01*
X9125765Y-16499293D02*
X9116241Y-16537388D01*
X9116241Y-16537388D02*
X9106718Y-16556436D01*
X9106718Y-16556436D02*
X9097194Y-16565960D01*
X9097194Y-16565960D02*
X9078146Y-16575484D01*
X9078146Y-16575484D02*
X9059098Y-16575484D01*
X9059098Y-16575484D02*
X9040051Y-16565960D01*
X9040051Y-16565960D02*
X9030527Y-16556436D01*
X9030527Y-16556436D02*
X9021003Y-16537388D01*
X9021003Y-16537388D02*
X9011479Y-16499293D01*
X9011479Y-16499293D02*
X9011479Y-16451674D01*
X9011479Y-16451674D02*
X9021003Y-16413579D01*
X9021003Y-16413579D02*
X9030527Y-16394531D01*
X9030527Y-16394531D02*
X9040051Y-16385008D01*
X9040051Y-16385008D02*
X9059098Y-16375484D01*
X9192432Y-16375484D02*
X9316241Y-16375484D01*
X9316241Y-16375484D02*
X9249575Y-16451674D01*
X9249575Y-16451674D02*
X9278146Y-16451674D01*
X9278146Y-16451674D02*
X9297194Y-16461198D01*
X9297194Y-16461198D02*
X9306718Y-16470722D01*
X9306718Y-16470722D02*
X9316241Y-16489769D01*
X9316241Y-16489769D02*
X9316241Y-16537388D01*
X9316241Y-16537388D02*
X9306718Y-16556436D01*
X9306718Y-16556436D02*
X9297194Y-16565960D01*
X9297194Y-16565960D02*
X9278146Y-16575484D01*
X9278146Y-16575484D02*
X9221003Y-16575484D01*
X9221003Y-16575484D02*
X9201956Y-16565960D01*
X9201956Y-16565960D02*
X9192432Y-16556436D01*
X9506718Y-16575484D02*
X9392432Y-16575484D01*
X9449575Y-16575484D02*
X9449575Y-16375484D01*
X9449575Y-16375484D02*
X9430527Y-16404055D01*
X9430527Y-16404055D02*
X9411479Y-16423103D01*
X9411479Y-16423103D02*
X9392432Y-16432627D01*
X9687670Y-16375484D02*
X9592432Y-16375484D01*
X9592432Y-16375484D02*
X9582908Y-16470722D01*
X9582908Y-16470722D02*
X9592432Y-16461198D01*
X9592432Y-16461198D02*
X9611479Y-16451674D01*
X9611479Y-16451674D02*
X9659099Y-16451674D01*
X9659099Y-16451674D02*
X9678146Y-16461198D01*
X9678146Y-16461198D02*
X9687670Y-16470722D01*
X9687670Y-16470722D02*
X9697194Y-16489769D01*
X9697194Y-16489769D02*
X9697194Y-16537388D01*
X9697194Y-16537388D02*
X9687670Y-16556436D01*
X9687670Y-16556436D02*
X9678146Y-16565960D01*
X9678146Y-16565960D02*
X9659099Y-16575484D01*
X9659099Y-16575484D02*
X9611479Y-16575484D01*
X9611479Y-16575484D02*
X9592432Y-16565960D01*
X9592432Y-16565960D02*
X9582908Y-16556436D01*
X9773384Y-16375484D02*
X9773384Y-16413579D01*
X9849575Y-16375484D02*
X9849575Y-16413579D01*
X10144813Y-16651674D02*
X10135289Y-16642150D01*
X10135289Y-16642150D02*
X10116241Y-16613579D01*
X10116241Y-16613579D02*
X10106718Y-16594531D01*
X10106718Y-16594531D02*
X10097194Y-16565960D01*
X10097194Y-16565960D02*
X10087670Y-16518341D01*
X10087670Y-16518341D02*
X10087670Y-16480246D01*
X10087670Y-16480246D02*
X10097194Y-16432627D01*
X10097194Y-16432627D02*
X10106718Y-16404055D01*
X10106718Y-16404055D02*
X10116241Y-16385008D01*
X10116241Y-16385008D02*
X10135289Y-16356436D01*
X10135289Y-16356436D02*
X10144813Y-16346912D01*
X10211480Y-16394531D02*
X10221003Y-16385008D01*
X10221003Y-16385008D02*
X10240051Y-16375484D01*
X10240051Y-16375484D02*
X10287670Y-16375484D01*
X10287670Y-16375484D02*
X10306718Y-16385008D01*
X10306718Y-16385008D02*
X10316241Y-16394531D01*
X10316241Y-16394531D02*
X10325765Y-16413579D01*
X10325765Y-16413579D02*
X10325765Y-16432627D01*
X10325765Y-16432627D02*
X10316241Y-16461198D01*
X10316241Y-16461198D02*
X10201956Y-16575484D01*
X10201956Y-16575484D02*
X10325765Y-16575484D01*
X10497194Y-16442150D02*
X10497194Y-16575484D01*
X10449575Y-16365960D02*
X10401956Y-16508817D01*
X10401956Y-16508817D02*
X10525765Y-16508817D01*
X10754337Y-16575484D02*
X10754337Y-16375484D01*
X10840051Y-16575484D02*
X10840051Y-16470722D01*
X10840051Y-16470722D02*
X10830527Y-16451674D01*
X10830527Y-16451674D02*
X10811480Y-16442150D01*
X10811480Y-16442150D02*
X10782908Y-16442150D01*
X10782908Y-16442150D02*
X10763861Y-16451674D01*
X10763861Y-16451674D02*
X10754337Y-16461198D01*
X10963861Y-16575484D02*
X10944813Y-16565960D01*
X10944813Y-16565960D02*
X10935289Y-16556436D01*
X10935289Y-16556436D02*
X10925765Y-16537388D01*
X10925765Y-16537388D02*
X10925765Y-16480246D01*
X10925765Y-16480246D02*
X10935289Y-16461198D01*
X10935289Y-16461198D02*
X10944813Y-16451674D01*
X10944813Y-16451674D02*
X10963861Y-16442150D01*
X10963861Y-16442150D02*
X10992432Y-16442150D01*
X10992432Y-16442150D02*
X11011480Y-16451674D01*
X11011480Y-16451674D02*
X11021003Y-16461198D01*
X11021003Y-16461198D02*
X11030527Y-16480246D01*
X11030527Y-16480246D02*
X11030527Y-16537388D01*
X11030527Y-16537388D02*
X11021003Y-16556436D01*
X11021003Y-16556436D02*
X11011480Y-16565960D01*
X11011480Y-16565960D02*
X10992432Y-16575484D01*
X10992432Y-16575484D02*
X10963861Y-16575484D01*
X11144813Y-16575484D02*
X11125765Y-16565960D01*
X11125765Y-16565960D02*
X11116242Y-16546912D01*
X11116242Y-16546912D02*
X11116242Y-16375484D01*
X11297194Y-16565960D02*
X11278146Y-16575484D01*
X11278146Y-16575484D02*
X11240051Y-16575484D01*
X11240051Y-16575484D02*
X11221003Y-16565960D01*
X11221003Y-16565960D02*
X11211480Y-16546912D01*
X11211480Y-16546912D02*
X11211480Y-16470722D01*
X11211480Y-16470722D02*
X11221003Y-16451674D01*
X11221003Y-16451674D02*
X11240051Y-16442150D01*
X11240051Y-16442150D02*
X11278146Y-16442150D01*
X11278146Y-16442150D02*
X11297194Y-16451674D01*
X11297194Y-16451674D02*
X11306718Y-16470722D01*
X11306718Y-16470722D02*
X11306718Y-16489769D01*
X11306718Y-16489769D02*
X11211480Y-16508817D01*
X11382908Y-16565960D02*
X11401956Y-16575484D01*
X11401956Y-16575484D02*
X11440051Y-16575484D01*
X11440051Y-16575484D02*
X11459099Y-16565960D01*
X11459099Y-16565960D02*
X11468622Y-16546912D01*
X11468622Y-16546912D02*
X11468622Y-16537388D01*
X11468622Y-16537388D02*
X11459099Y-16518341D01*
X11459099Y-16518341D02*
X11440051Y-16508817D01*
X11440051Y-16508817D02*
X11411480Y-16508817D01*
X11411480Y-16508817D02*
X11392432Y-16499293D01*
X11392432Y-16499293D02*
X11382908Y-16480246D01*
X11382908Y-16480246D02*
X11382908Y-16470722D01*
X11382908Y-16470722D02*
X11392432Y-16451674D01*
X11392432Y-16451674D02*
X11411480Y-16442150D01*
X11411480Y-16442150D02*
X11440051Y-16442150D01*
X11440051Y-16442150D02*
X11459099Y-16451674D01*
X11535289Y-16651674D02*
X11544813Y-16642150D01*
X11544813Y-16642150D02*
X11563861Y-16613579D01*
X11563861Y-16613579D02*
X11573384Y-16594531D01*
X11573384Y-16594531D02*
X11582908Y-16565960D01*
X11582908Y-16565960D02*
X11592432Y-16518341D01*
X11592432Y-16518341D02*
X11592432Y-16480246D01*
X11592432Y-16480246D02*
X11582908Y-16432627D01*
X11582908Y-16432627D02*
X11573384Y-16404055D01*
X11573384Y-16404055D02*
X11563861Y-16385008D01*
X11563861Y-16385008D02*
X11544813Y-16356436D01*
X11544813Y-16356436D02*
X11535289Y-16346912D01*
D12*
X6527250Y-16790500D02*
X6569750Y-16748000D01*
X6527250Y-16705500D01*
X6484750Y-16748000D01*
X6527250Y-16790500D01*
D11*
X6868622Y-16639484D02*
X6887670Y-16639484D01*
X6887670Y-16639484D02*
X6906717Y-16649008D01*
X6906717Y-16649008D02*
X6916241Y-16658531D01*
X6916241Y-16658531D02*
X6925765Y-16677579D01*
X6925765Y-16677579D02*
X6935289Y-16715674D01*
X6935289Y-16715674D02*
X6935289Y-16763293D01*
X6935289Y-16763293D02*
X6925765Y-16801389D01*
X6925765Y-16801389D02*
X6916241Y-16820436D01*
X6916241Y-16820436D02*
X6906717Y-16829960D01*
X6906717Y-16829960D02*
X6887670Y-16839484D01*
X6887670Y-16839484D02*
X6868622Y-16839484D01*
X6868622Y-16839484D02*
X6849574Y-16829960D01*
X6849574Y-16829960D02*
X6840051Y-16820436D01*
X6840051Y-16820436D02*
X6830527Y-16801389D01*
X6830527Y-16801389D02*
X6821003Y-16763293D01*
X6821003Y-16763293D02*
X6821003Y-16715674D01*
X6821003Y-16715674D02*
X6830527Y-16677579D01*
X6830527Y-16677579D02*
X6840051Y-16658531D01*
X6840051Y-16658531D02*
X6849574Y-16649008D01*
X6849574Y-16649008D02*
X6868622Y-16639484D01*
X7021003Y-16820436D02*
X7030527Y-16829960D01*
X7030527Y-16829960D02*
X7021003Y-16839484D01*
X7021003Y-16839484D02*
X7011479Y-16829960D01*
X7011479Y-16829960D02*
X7021003Y-16820436D01*
X7021003Y-16820436D02*
X7021003Y-16839484D01*
X7144812Y-16725198D02*
X7125765Y-16715674D01*
X7125765Y-16715674D02*
X7116241Y-16706150D01*
X7116241Y-16706150D02*
X7106717Y-16687103D01*
X7106717Y-16687103D02*
X7106717Y-16677579D01*
X7106717Y-16677579D02*
X7116241Y-16658531D01*
X7116241Y-16658531D02*
X7125765Y-16649008D01*
X7125765Y-16649008D02*
X7144812Y-16639484D01*
X7144812Y-16639484D02*
X7182908Y-16639484D01*
X7182908Y-16639484D02*
X7201955Y-16649008D01*
X7201955Y-16649008D02*
X7211479Y-16658531D01*
X7211479Y-16658531D02*
X7221003Y-16677579D01*
X7221003Y-16677579D02*
X7221003Y-16687103D01*
X7221003Y-16687103D02*
X7211479Y-16706150D01*
X7211479Y-16706150D02*
X7201955Y-16715674D01*
X7201955Y-16715674D02*
X7182908Y-16725198D01*
X7182908Y-16725198D02*
X7144812Y-16725198D01*
X7144812Y-16725198D02*
X7125765Y-16734722D01*
X7125765Y-16734722D02*
X7116241Y-16744246D01*
X7116241Y-16744246D02*
X7106717Y-16763293D01*
X7106717Y-16763293D02*
X7106717Y-16801389D01*
X7106717Y-16801389D02*
X7116241Y-16820436D01*
X7116241Y-16820436D02*
X7125765Y-16829960D01*
X7125765Y-16829960D02*
X7144812Y-16839484D01*
X7144812Y-16839484D02*
X7182908Y-16839484D01*
X7182908Y-16839484D02*
X7201955Y-16829960D01*
X7201955Y-16829960D02*
X7211479Y-16820436D01*
X7211479Y-16820436D02*
X7221003Y-16801389D01*
X7221003Y-16801389D02*
X7221003Y-16763293D01*
X7221003Y-16763293D02*
X7211479Y-16744246D01*
X7211479Y-16744246D02*
X7201955Y-16734722D01*
X7201955Y-16734722D02*
X7182908Y-16725198D01*
X7401955Y-16639484D02*
X7306717Y-16639484D01*
X7306717Y-16639484D02*
X7297193Y-16734722D01*
X7297193Y-16734722D02*
X7306717Y-16725198D01*
X7306717Y-16725198D02*
X7325765Y-16715674D01*
X7325765Y-16715674D02*
X7373384Y-16715674D01*
X7373384Y-16715674D02*
X7392432Y-16725198D01*
X7392432Y-16725198D02*
X7401955Y-16734722D01*
X7401955Y-16734722D02*
X7411479Y-16753769D01*
X7411479Y-16753769D02*
X7411479Y-16801389D01*
X7411479Y-16801389D02*
X7401955Y-16820436D01*
X7401955Y-16820436D02*
X7392432Y-16829960D01*
X7392432Y-16829960D02*
X7373384Y-16839484D01*
X7373384Y-16839484D02*
X7325765Y-16839484D01*
X7325765Y-16839484D02*
X7306717Y-16829960D01*
X7306717Y-16829960D02*
X7297193Y-16820436D01*
X7535289Y-16639484D02*
X7554336Y-16639484D01*
X7554336Y-16639484D02*
X7573384Y-16649008D01*
X7573384Y-16649008D02*
X7582908Y-16658531D01*
X7582908Y-16658531D02*
X7592432Y-16677579D01*
X7592432Y-16677579D02*
X7601955Y-16715674D01*
X7601955Y-16715674D02*
X7601955Y-16763293D01*
X7601955Y-16763293D02*
X7592432Y-16801389D01*
X7592432Y-16801389D02*
X7582908Y-16820436D01*
X7582908Y-16820436D02*
X7573384Y-16829960D01*
X7573384Y-16829960D02*
X7554336Y-16839484D01*
X7554336Y-16839484D02*
X7535289Y-16839484D01*
X7535289Y-16839484D02*
X7516241Y-16829960D01*
X7516241Y-16829960D02*
X7506717Y-16820436D01*
X7506717Y-16820436D02*
X7497193Y-16801389D01*
X7497193Y-16801389D02*
X7487670Y-16763293D01*
X7487670Y-16763293D02*
X7487670Y-16715674D01*
X7487670Y-16715674D02*
X7497193Y-16677579D01*
X7497193Y-16677579D02*
X7506717Y-16658531D01*
X7506717Y-16658531D02*
X7516241Y-16649008D01*
X7516241Y-16649008D02*
X7535289Y-16639484D01*
X7687670Y-16839484D02*
X7687670Y-16706150D01*
X7687670Y-16725198D02*
X7697193Y-16715674D01*
X7697193Y-16715674D02*
X7716241Y-16706150D01*
X7716241Y-16706150D02*
X7744813Y-16706150D01*
X7744813Y-16706150D02*
X7763860Y-16715674D01*
X7763860Y-16715674D02*
X7773384Y-16734722D01*
X7773384Y-16734722D02*
X7773384Y-16839484D01*
X7773384Y-16734722D02*
X7782908Y-16715674D01*
X7782908Y-16715674D02*
X7801955Y-16706150D01*
X7801955Y-16706150D02*
X7830527Y-16706150D01*
X7830527Y-16706150D02*
X7849574Y-16715674D01*
X7849574Y-16715674D02*
X7859098Y-16734722D01*
X7859098Y-16734722D02*
X7859098Y-16839484D01*
X7954336Y-16839484D02*
X7954336Y-16706150D01*
X7954336Y-16725198D02*
X7963860Y-16715674D01*
X7963860Y-16715674D02*
X7982908Y-16706150D01*
X7982908Y-16706150D02*
X8011479Y-16706150D01*
X8011479Y-16706150D02*
X8030527Y-16715674D01*
X8030527Y-16715674D02*
X8040051Y-16734722D01*
X8040051Y-16734722D02*
X8040051Y-16839484D01*
X8040051Y-16734722D02*
X8049574Y-16715674D01*
X8049574Y-16715674D02*
X8068622Y-16706150D01*
X8068622Y-16706150D02*
X8097193Y-16706150D01*
X8097193Y-16706150D02*
X8116241Y-16715674D01*
X8116241Y-16715674D02*
X8125765Y-16734722D01*
X8125765Y-16734722D02*
X8125765Y-16839484D01*
X8516241Y-16629960D02*
X8344813Y-16887103D01*
X8773384Y-16639484D02*
X8792432Y-16639484D01*
X8792432Y-16639484D02*
X8811479Y-16649008D01*
X8811479Y-16649008D02*
X8821003Y-16658531D01*
X8821003Y-16658531D02*
X8830527Y-16677579D01*
X8830527Y-16677579D02*
X8840051Y-16715674D01*
X8840051Y-16715674D02*
X8840051Y-16763293D01*
X8840051Y-16763293D02*
X8830527Y-16801389D01*
X8830527Y-16801389D02*
X8821003Y-16820436D01*
X8821003Y-16820436D02*
X8811479Y-16829960D01*
X8811479Y-16829960D02*
X8792432Y-16839484D01*
X8792432Y-16839484D02*
X8773384Y-16839484D01*
X8773384Y-16839484D02*
X8754337Y-16829960D01*
X8754337Y-16829960D02*
X8744813Y-16820436D01*
X8744813Y-16820436D02*
X8735289Y-16801389D01*
X8735289Y-16801389D02*
X8725765Y-16763293D01*
X8725765Y-16763293D02*
X8725765Y-16715674D01*
X8725765Y-16715674D02*
X8735289Y-16677579D01*
X8735289Y-16677579D02*
X8744813Y-16658531D01*
X8744813Y-16658531D02*
X8754337Y-16649008D01*
X8754337Y-16649008D02*
X8773384Y-16639484D01*
X8925765Y-16820436D02*
X8935289Y-16829960D01*
X8935289Y-16829960D02*
X8925765Y-16839484D01*
X8925765Y-16839484D02*
X8916241Y-16829960D01*
X8916241Y-16829960D02*
X8925765Y-16820436D01*
X8925765Y-16820436D02*
X8925765Y-16839484D01*
X9059098Y-16639484D02*
X9078146Y-16639484D01*
X9078146Y-16639484D02*
X9097194Y-16649008D01*
X9097194Y-16649008D02*
X9106718Y-16658531D01*
X9106718Y-16658531D02*
X9116241Y-16677579D01*
X9116241Y-16677579D02*
X9125765Y-16715674D01*
X9125765Y-16715674D02*
X9125765Y-16763293D01*
X9125765Y-16763293D02*
X9116241Y-16801389D01*
X9116241Y-16801389D02*
X9106718Y-16820436D01*
X9106718Y-16820436D02*
X9097194Y-16829960D01*
X9097194Y-16829960D02*
X9078146Y-16839484D01*
X9078146Y-16839484D02*
X9059098Y-16839484D01*
X9059098Y-16839484D02*
X9040051Y-16829960D01*
X9040051Y-16829960D02*
X9030527Y-16820436D01*
X9030527Y-16820436D02*
X9021003Y-16801389D01*
X9021003Y-16801389D02*
X9011479Y-16763293D01*
X9011479Y-16763293D02*
X9011479Y-16715674D01*
X9011479Y-16715674D02*
X9021003Y-16677579D01*
X9021003Y-16677579D02*
X9030527Y-16658531D01*
X9030527Y-16658531D02*
X9040051Y-16649008D01*
X9040051Y-16649008D02*
X9059098Y-16639484D01*
X9192432Y-16639484D02*
X9316241Y-16639484D01*
X9316241Y-16639484D02*
X9249575Y-16715674D01*
X9249575Y-16715674D02*
X9278146Y-16715674D01*
X9278146Y-16715674D02*
X9297194Y-16725198D01*
X9297194Y-16725198D02*
X9306718Y-16734722D01*
X9306718Y-16734722D02*
X9316241Y-16753769D01*
X9316241Y-16753769D02*
X9316241Y-16801389D01*
X9316241Y-16801389D02*
X9306718Y-16820436D01*
X9306718Y-16820436D02*
X9297194Y-16829960D01*
X9297194Y-16829960D02*
X9278146Y-16839484D01*
X9278146Y-16839484D02*
X9221003Y-16839484D01*
X9221003Y-16839484D02*
X9201956Y-16829960D01*
X9201956Y-16829960D02*
X9192432Y-16820436D01*
X9382908Y-16639484D02*
X9506718Y-16639484D01*
X9506718Y-16639484D02*
X9440051Y-16715674D01*
X9440051Y-16715674D02*
X9468622Y-16715674D01*
X9468622Y-16715674D02*
X9487670Y-16725198D01*
X9487670Y-16725198D02*
X9497194Y-16734722D01*
X9497194Y-16734722D02*
X9506718Y-16753769D01*
X9506718Y-16753769D02*
X9506718Y-16801389D01*
X9506718Y-16801389D02*
X9497194Y-16820436D01*
X9497194Y-16820436D02*
X9487670Y-16829960D01*
X9487670Y-16829960D02*
X9468622Y-16839484D01*
X9468622Y-16839484D02*
X9411479Y-16839484D01*
X9411479Y-16839484D02*
X9392432Y-16829960D01*
X9392432Y-16829960D02*
X9382908Y-16820436D01*
X9687670Y-16639484D02*
X9592432Y-16639484D01*
X9592432Y-16639484D02*
X9582908Y-16734722D01*
X9582908Y-16734722D02*
X9592432Y-16725198D01*
X9592432Y-16725198D02*
X9611479Y-16715674D01*
X9611479Y-16715674D02*
X9659099Y-16715674D01*
X9659099Y-16715674D02*
X9678146Y-16725198D01*
X9678146Y-16725198D02*
X9687670Y-16734722D01*
X9687670Y-16734722D02*
X9697194Y-16753769D01*
X9697194Y-16753769D02*
X9697194Y-16801389D01*
X9697194Y-16801389D02*
X9687670Y-16820436D01*
X9687670Y-16820436D02*
X9678146Y-16829960D01*
X9678146Y-16829960D02*
X9659099Y-16839484D01*
X9659099Y-16839484D02*
X9611479Y-16839484D01*
X9611479Y-16839484D02*
X9592432Y-16829960D01*
X9592432Y-16829960D02*
X9582908Y-16820436D01*
X9773384Y-16639484D02*
X9773384Y-16677579D01*
X9849575Y-16639484D02*
X9849575Y-16677579D01*
X10144813Y-16915674D02*
X10135289Y-16906150D01*
X10135289Y-16906150D02*
X10116241Y-16877579D01*
X10116241Y-16877579D02*
X10106718Y-16858531D01*
X10106718Y-16858531D02*
X10097194Y-16829960D01*
X10097194Y-16829960D02*
X10087670Y-16782341D01*
X10087670Y-16782341D02*
X10087670Y-16744246D01*
X10087670Y-16744246D02*
X10097194Y-16696627D01*
X10097194Y-16696627D02*
X10106718Y-16668055D01*
X10106718Y-16668055D02*
X10116241Y-16649008D01*
X10116241Y-16649008D02*
X10135289Y-16620436D01*
X10135289Y-16620436D02*
X10144813Y-16610912D01*
X10211480Y-16658531D02*
X10221003Y-16649008D01*
X10221003Y-16649008D02*
X10240051Y-16639484D01*
X10240051Y-16639484D02*
X10287670Y-16639484D01*
X10287670Y-16639484D02*
X10306718Y-16649008D01*
X10306718Y-16649008D02*
X10316241Y-16658531D01*
X10316241Y-16658531D02*
X10325765Y-16677579D01*
X10325765Y-16677579D02*
X10325765Y-16696627D01*
X10325765Y-16696627D02*
X10316241Y-16725198D01*
X10316241Y-16725198D02*
X10201956Y-16839484D01*
X10201956Y-16839484D02*
X10325765Y-16839484D01*
X10563861Y-16839484D02*
X10563861Y-16639484D01*
X10649575Y-16839484D02*
X10649575Y-16734722D01*
X10649575Y-16734722D02*
X10640051Y-16715674D01*
X10640051Y-16715674D02*
X10621003Y-16706150D01*
X10621003Y-16706150D02*
X10592432Y-16706150D01*
X10592432Y-16706150D02*
X10573384Y-16715674D01*
X10573384Y-16715674D02*
X10563861Y-16725198D01*
X10773384Y-16839484D02*
X10754337Y-16829960D01*
X10754337Y-16829960D02*
X10744813Y-16820436D01*
X10744813Y-16820436D02*
X10735289Y-16801389D01*
X10735289Y-16801389D02*
X10735289Y-16744246D01*
X10735289Y-16744246D02*
X10744813Y-16725198D01*
X10744813Y-16725198D02*
X10754337Y-16715674D01*
X10754337Y-16715674D02*
X10773384Y-16706150D01*
X10773384Y-16706150D02*
X10801956Y-16706150D01*
X10801956Y-16706150D02*
X10821003Y-16715674D01*
X10821003Y-16715674D02*
X10830527Y-16725198D01*
X10830527Y-16725198D02*
X10840051Y-16744246D01*
X10840051Y-16744246D02*
X10840051Y-16801389D01*
X10840051Y-16801389D02*
X10830527Y-16820436D01*
X10830527Y-16820436D02*
X10821003Y-16829960D01*
X10821003Y-16829960D02*
X10801956Y-16839484D01*
X10801956Y-16839484D02*
X10773384Y-16839484D01*
X10954337Y-16839484D02*
X10935289Y-16829960D01*
X10935289Y-16829960D02*
X10925765Y-16810912D01*
X10925765Y-16810912D02*
X10925765Y-16639484D01*
X11106718Y-16829960D02*
X11087670Y-16839484D01*
X11087670Y-16839484D02*
X11049575Y-16839484D01*
X11049575Y-16839484D02*
X11030527Y-16829960D01*
X11030527Y-16829960D02*
X11021003Y-16810912D01*
X11021003Y-16810912D02*
X11021003Y-16734722D01*
X11021003Y-16734722D02*
X11030527Y-16715674D01*
X11030527Y-16715674D02*
X11049575Y-16706150D01*
X11049575Y-16706150D02*
X11087670Y-16706150D01*
X11087670Y-16706150D02*
X11106718Y-16715674D01*
X11106718Y-16715674D02*
X11116242Y-16734722D01*
X11116242Y-16734722D02*
X11116242Y-16753769D01*
X11116242Y-16753769D02*
X11021003Y-16772817D01*
X11192432Y-16829960D02*
X11211480Y-16839484D01*
X11211480Y-16839484D02*
X11249575Y-16839484D01*
X11249575Y-16839484D02*
X11268622Y-16829960D01*
X11268622Y-16829960D02*
X11278146Y-16810912D01*
X11278146Y-16810912D02*
X11278146Y-16801389D01*
X11278146Y-16801389D02*
X11268622Y-16782341D01*
X11268622Y-16782341D02*
X11249575Y-16772817D01*
X11249575Y-16772817D02*
X11221003Y-16772817D01*
X11221003Y-16772817D02*
X11201956Y-16763293D01*
X11201956Y-16763293D02*
X11192432Y-16744246D01*
X11192432Y-16744246D02*
X11192432Y-16734722D01*
X11192432Y-16734722D02*
X11201956Y-16715674D01*
X11201956Y-16715674D02*
X11221003Y-16706150D01*
X11221003Y-16706150D02*
X11249575Y-16706150D01*
X11249575Y-16706150D02*
X11268622Y-16715674D01*
X11344813Y-16915674D02*
X11354337Y-16906150D01*
X11354337Y-16906150D02*
X11373384Y-16877579D01*
X11373384Y-16877579D02*
X11382908Y-16858531D01*
X11382908Y-16858531D02*
X11392432Y-16829960D01*
X11392432Y-16829960D02*
X11401956Y-16782341D01*
X11401956Y-16782341D02*
X11401956Y-16744246D01*
X11401956Y-16744246D02*
X11392432Y-16696627D01*
X11392432Y-16696627D02*
X11382908Y-16668055D01*
X11382908Y-16668055D02*
X11373384Y-16649008D01*
X11373384Y-16649008D02*
X11354337Y-16620436D01*
X11354337Y-16620436D02*
X11344813Y-16610912D01*
D12*
X6479750Y-16967000D02*
X6569750Y-17057000D01*
X6569750Y-16967000D02*
X6479750Y-17057000D01*
X6569750Y-17012000D02*
G75*
G02*
X6479750Y-17012000I-45000J0D01*
G01*
X6479750Y-17012000D02*
G75*
G02*
X6569750Y-17012000I45000J0D01*
G01*
D11*
X6868622Y-16903484D02*
X6887670Y-16903484D01*
X6887670Y-16903484D02*
X6906717Y-16913008D01*
X6906717Y-16913008D02*
X6916241Y-16922531D01*
X6916241Y-16922531D02*
X6925765Y-16941579D01*
X6925765Y-16941579D02*
X6935289Y-16979674D01*
X6935289Y-16979674D02*
X6935289Y-17027293D01*
X6935289Y-17027293D02*
X6925765Y-17065389D01*
X6925765Y-17065389D02*
X6916241Y-17084436D01*
X6916241Y-17084436D02*
X6906717Y-17093960D01*
X6906717Y-17093960D02*
X6887670Y-17103484D01*
X6887670Y-17103484D02*
X6868622Y-17103484D01*
X6868622Y-17103484D02*
X6849574Y-17093960D01*
X6849574Y-17093960D02*
X6840051Y-17084436D01*
X6840051Y-17084436D02*
X6830527Y-17065389D01*
X6830527Y-17065389D02*
X6821003Y-17027293D01*
X6821003Y-17027293D02*
X6821003Y-16979674D01*
X6821003Y-16979674D02*
X6830527Y-16941579D01*
X6830527Y-16941579D02*
X6840051Y-16922531D01*
X6840051Y-16922531D02*
X6849574Y-16913008D01*
X6849574Y-16913008D02*
X6868622Y-16903484D01*
X7021003Y-17084436D02*
X7030527Y-17093960D01*
X7030527Y-17093960D02*
X7021003Y-17103484D01*
X7021003Y-17103484D02*
X7011479Y-17093960D01*
X7011479Y-17093960D02*
X7021003Y-17084436D01*
X7021003Y-17084436D02*
X7021003Y-17103484D01*
X7125765Y-17103484D02*
X7163860Y-17103484D01*
X7163860Y-17103484D02*
X7182908Y-17093960D01*
X7182908Y-17093960D02*
X7192432Y-17084436D01*
X7192432Y-17084436D02*
X7211479Y-17055865D01*
X7211479Y-17055865D02*
X7221003Y-17017770D01*
X7221003Y-17017770D02*
X7221003Y-16941579D01*
X7221003Y-16941579D02*
X7211479Y-16922531D01*
X7211479Y-16922531D02*
X7201955Y-16913008D01*
X7201955Y-16913008D02*
X7182908Y-16903484D01*
X7182908Y-16903484D02*
X7144812Y-16903484D01*
X7144812Y-16903484D02*
X7125765Y-16913008D01*
X7125765Y-16913008D02*
X7116241Y-16922531D01*
X7116241Y-16922531D02*
X7106717Y-16941579D01*
X7106717Y-16941579D02*
X7106717Y-16989198D01*
X7106717Y-16989198D02*
X7116241Y-17008246D01*
X7116241Y-17008246D02*
X7125765Y-17017770D01*
X7125765Y-17017770D02*
X7144812Y-17027293D01*
X7144812Y-17027293D02*
X7182908Y-17027293D01*
X7182908Y-17027293D02*
X7201955Y-17017770D01*
X7201955Y-17017770D02*
X7211479Y-17008246D01*
X7211479Y-17008246D02*
X7221003Y-16989198D01*
X7344812Y-16903484D02*
X7363860Y-16903484D01*
X7363860Y-16903484D02*
X7382908Y-16913008D01*
X7382908Y-16913008D02*
X7392432Y-16922531D01*
X7392432Y-16922531D02*
X7401955Y-16941579D01*
X7401955Y-16941579D02*
X7411479Y-16979674D01*
X7411479Y-16979674D02*
X7411479Y-17027293D01*
X7411479Y-17027293D02*
X7401955Y-17065389D01*
X7401955Y-17065389D02*
X7392432Y-17084436D01*
X7392432Y-17084436D02*
X7382908Y-17093960D01*
X7382908Y-17093960D02*
X7363860Y-17103484D01*
X7363860Y-17103484D02*
X7344812Y-17103484D01*
X7344812Y-17103484D02*
X7325765Y-17093960D01*
X7325765Y-17093960D02*
X7316241Y-17084436D01*
X7316241Y-17084436D02*
X7306717Y-17065389D01*
X7306717Y-17065389D02*
X7297193Y-17027293D01*
X7297193Y-17027293D02*
X7297193Y-16979674D01*
X7297193Y-16979674D02*
X7306717Y-16941579D01*
X7306717Y-16941579D02*
X7316241Y-16922531D01*
X7316241Y-16922531D02*
X7325765Y-16913008D01*
X7325765Y-16913008D02*
X7344812Y-16903484D01*
X7535289Y-16903484D02*
X7554336Y-16903484D01*
X7554336Y-16903484D02*
X7573384Y-16913008D01*
X7573384Y-16913008D02*
X7582908Y-16922531D01*
X7582908Y-16922531D02*
X7592432Y-16941579D01*
X7592432Y-16941579D02*
X7601955Y-16979674D01*
X7601955Y-16979674D02*
X7601955Y-17027293D01*
X7601955Y-17027293D02*
X7592432Y-17065389D01*
X7592432Y-17065389D02*
X7582908Y-17084436D01*
X7582908Y-17084436D02*
X7573384Y-17093960D01*
X7573384Y-17093960D02*
X7554336Y-17103484D01*
X7554336Y-17103484D02*
X7535289Y-17103484D01*
X7535289Y-17103484D02*
X7516241Y-17093960D01*
X7516241Y-17093960D02*
X7506717Y-17084436D01*
X7506717Y-17084436D02*
X7497193Y-17065389D01*
X7497193Y-17065389D02*
X7487670Y-17027293D01*
X7487670Y-17027293D02*
X7487670Y-16979674D01*
X7487670Y-16979674D02*
X7497193Y-16941579D01*
X7497193Y-16941579D02*
X7506717Y-16922531D01*
X7506717Y-16922531D02*
X7516241Y-16913008D01*
X7516241Y-16913008D02*
X7535289Y-16903484D01*
X7687670Y-17103484D02*
X7687670Y-16970150D01*
X7687670Y-16989198D02*
X7697193Y-16979674D01*
X7697193Y-16979674D02*
X7716241Y-16970150D01*
X7716241Y-16970150D02*
X7744813Y-16970150D01*
X7744813Y-16970150D02*
X7763860Y-16979674D01*
X7763860Y-16979674D02*
X7773384Y-16998722D01*
X7773384Y-16998722D02*
X7773384Y-17103484D01*
X7773384Y-16998722D02*
X7782908Y-16979674D01*
X7782908Y-16979674D02*
X7801955Y-16970150D01*
X7801955Y-16970150D02*
X7830527Y-16970150D01*
X7830527Y-16970150D02*
X7849574Y-16979674D01*
X7849574Y-16979674D02*
X7859098Y-16998722D01*
X7859098Y-16998722D02*
X7859098Y-17103484D01*
X7954336Y-17103484D02*
X7954336Y-16970150D01*
X7954336Y-16989198D02*
X7963860Y-16979674D01*
X7963860Y-16979674D02*
X7982908Y-16970150D01*
X7982908Y-16970150D02*
X8011479Y-16970150D01*
X8011479Y-16970150D02*
X8030527Y-16979674D01*
X8030527Y-16979674D02*
X8040051Y-16998722D01*
X8040051Y-16998722D02*
X8040051Y-17103484D01*
X8040051Y-16998722D02*
X8049574Y-16979674D01*
X8049574Y-16979674D02*
X8068622Y-16970150D01*
X8068622Y-16970150D02*
X8097193Y-16970150D01*
X8097193Y-16970150D02*
X8116241Y-16979674D01*
X8116241Y-16979674D02*
X8125765Y-16998722D01*
X8125765Y-16998722D02*
X8125765Y-17103484D01*
X8516241Y-16893960D02*
X8344813Y-17151103D01*
X8773384Y-16903484D02*
X8792432Y-16903484D01*
X8792432Y-16903484D02*
X8811479Y-16913008D01*
X8811479Y-16913008D02*
X8821003Y-16922531D01*
X8821003Y-16922531D02*
X8830527Y-16941579D01*
X8830527Y-16941579D02*
X8840051Y-16979674D01*
X8840051Y-16979674D02*
X8840051Y-17027293D01*
X8840051Y-17027293D02*
X8830527Y-17065389D01*
X8830527Y-17065389D02*
X8821003Y-17084436D01*
X8821003Y-17084436D02*
X8811479Y-17093960D01*
X8811479Y-17093960D02*
X8792432Y-17103484D01*
X8792432Y-17103484D02*
X8773384Y-17103484D01*
X8773384Y-17103484D02*
X8754337Y-17093960D01*
X8754337Y-17093960D02*
X8744813Y-17084436D01*
X8744813Y-17084436D02*
X8735289Y-17065389D01*
X8735289Y-17065389D02*
X8725765Y-17027293D01*
X8725765Y-17027293D02*
X8725765Y-16979674D01*
X8725765Y-16979674D02*
X8735289Y-16941579D01*
X8735289Y-16941579D02*
X8744813Y-16922531D01*
X8744813Y-16922531D02*
X8754337Y-16913008D01*
X8754337Y-16913008D02*
X8773384Y-16903484D01*
X8925765Y-17084436D02*
X8935289Y-17093960D01*
X8935289Y-17093960D02*
X8925765Y-17103484D01*
X8925765Y-17103484D02*
X8916241Y-17093960D01*
X8916241Y-17093960D02*
X8925765Y-17084436D01*
X8925765Y-17084436D02*
X8925765Y-17103484D01*
X9059098Y-16903484D02*
X9078146Y-16903484D01*
X9078146Y-16903484D02*
X9097194Y-16913008D01*
X9097194Y-16913008D02*
X9106718Y-16922531D01*
X9106718Y-16922531D02*
X9116241Y-16941579D01*
X9116241Y-16941579D02*
X9125765Y-16979674D01*
X9125765Y-16979674D02*
X9125765Y-17027293D01*
X9125765Y-17027293D02*
X9116241Y-17065389D01*
X9116241Y-17065389D02*
X9106718Y-17084436D01*
X9106718Y-17084436D02*
X9097194Y-17093960D01*
X9097194Y-17093960D02*
X9078146Y-17103484D01*
X9078146Y-17103484D02*
X9059098Y-17103484D01*
X9059098Y-17103484D02*
X9040051Y-17093960D01*
X9040051Y-17093960D02*
X9030527Y-17084436D01*
X9030527Y-17084436D02*
X9021003Y-17065389D01*
X9021003Y-17065389D02*
X9011479Y-17027293D01*
X9011479Y-17027293D02*
X9011479Y-16979674D01*
X9011479Y-16979674D02*
X9021003Y-16941579D01*
X9021003Y-16941579D02*
X9030527Y-16922531D01*
X9030527Y-16922531D02*
X9040051Y-16913008D01*
X9040051Y-16913008D02*
X9059098Y-16903484D01*
X9192432Y-16903484D02*
X9316241Y-16903484D01*
X9316241Y-16903484D02*
X9249575Y-16979674D01*
X9249575Y-16979674D02*
X9278146Y-16979674D01*
X9278146Y-16979674D02*
X9297194Y-16989198D01*
X9297194Y-16989198D02*
X9306718Y-16998722D01*
X9306718Y-16998722D02*
X9316241Y-17017770D01*
X9316241Y-17017770D02*
X9316241Y-17065389D01*
X9316241Y-17065389D02*
X9306718Y-17084436D01*
X9306718Y-17084436D02*
X9297194Y-17093960D01*
X9297194Y-17093960D02*
X9278146Y-17103484D01*
X9278146Y-17103484D02*
X9221003Y-17103484D01*
X9221003Y-17103484D02*
X9201956Y-17093960D01*
X9201956Y-17093960D02*
X9192432Y-17084436D01*
X9497194Y-16903484D02*
X9401956Y-16903484D01*
X9401956Y-16903484D02*
X9392432Y-16998722D01*
X9392432Y-16998722D02*
X9401956Y-16989198D01*
X9401956Y-16989198D02*
X9421003Y-16979674D01*
X9421003Y-16979674D02*
X9468622Y-16979674D01*
X9468622Y-16979674D02*
X9487670Y-16989198D01*
X9487670Y-16989198D02*
X9497194Y-16998722D01*
X9497194Y-16998722D02*
X9506718Y-17017770D01*
X9506718Y-17017770D02*
X9506718Y-17065389D01*
X9506718Y-17065389D02*
X9497194Y-17084436D01*
X9497194Y-17084436D02*
X9487670Y-17093960D01*
X9487670Y-17093960D02*
X9468622Y-17103484D01*
X9468622Y-17103484D02*
X9421003Y-17103484D01*
X9421003Y-17103484D02*
X9401956Y-17093960D01*
X9401956Y-17093960D02*
X9392432Y-17084436D01*
X9678146Y-16970150D02*
X9678146Y-17103484D01*
X9630527Y-16893960D02*
X9582908Y-17036817D01*
X9582908Y-17036817D02*
X9706718Y-17036817D01*
X9773384Y-16903484D02*
X9773384Y-16941579D01*
X9849575Y-16903484D02*
X9849575Y-16941579D01*
X10144813Y-17179674D02*
X10135289Y-17170150D01*
X10135289Y-17170150D02*
X10116241Y-17141579D01*
X10116241Y-17141579D02*
X10106718Y-17122531D01*
X10106718Y-17122531D02*
X10097194Y-17093960D01*
X10097194Y-17093960D02*
X10087670Y-17046341D01*
X10087670Y-17046341D02*
X10087670Y-17008246D01*
X10087670Y-17008246D02*
X10097194Y-16960627D01*
X10097194Y-16960627D02*
X10106718Y-16932055D01*
X10106718Y-16932055D02*
X10116241Y-16913008D01*
X10116241Y-16913008D02*
X10135289Y-16884436D01*
X10135289Y-16884436D02*
X10144813Y-16874912D01*
X10249575Y-16989198D02*
X10230527Y-16979674D01*
X10230527Y-16979674D02*
X10221003Y-16970150D01*
X10221003Y-16970150D02*
X10211480Y-16951103D01*
X10211480Y-16951103D02*
X10211480Y-16941579D01*
X10211480Y-16941579D02*
X10221003Y-16922531D01*
X10221003Y-16922531D02*
X10230527Y-16913008D01*
X10230527Y-16913008D02*
X10249575Y-16903484D01*
X10249575Y-16903484D02*
X10287670Y-16903484D01*
X10287670Y-16903484D02*
X10306718Y-16913008D01*
X10306718Y-16913008D02*
X10316241Y-16922531D01*
X10316241Y-16922531D02*
X10325765Y-16941579D01*
X10325765Y-16941579D02*
X10325765Y-16951103D01*
X10325765Y-16951103D02*
X10316241Y-16970150D01*
X10316241Y-16970150D02*
X10306718Y-16979674D01*
X10306718Y-16979674D02*
X10287670Y-16989198D01*
X10287670Y-16989198D02*
X10249575Y-16989198D01*
X10249575Y-16989198D02*
X10230527Y-16998722D01*
X10230527Y-16998722D02*
X10221003Y-17008246D01*
X10221003Y-17008246D02*
X10211480Y-17027293D01*
X10211480Y-17027293D02*
X10211480Y-17065389D01*
X10211480Y-17065389D02*
X10221003Y-17084436D01*
X10221003Y-17084436D02*
X10230527Y-17093960D01*
X10230527Y-17093960D02*
X10249575Y-17103484D01*
X10249575Y-17103484D02*
X10287670Y-17103484D01*
X10287670Y-17103484D02*
X10306718Y-17093960D01*
X10306718Y-17093960D02*
X10316241Y-17084436D01*
X10316241Y-17084436D02*
X10325765Y-17065389D01*
X10325765Y-17065389D02*
X10325765Y-17027293D01*
X10325765Y-17027293D02*
X10316241Y-17008246D01*
X10316241Y-17008246D02*
X10306718Y-16998722D01*
X10306718Y-16998722D02*
X10287670Y-16989198D01*
X10563861Y-17103484D02*
X10563861Y-16903484D01*
X10649575Y-17103484D02*
X10649575Y-16998722D01*
X10649575Y-16998722D02*
X10640051Y-16979674D01*
X10640051Y-16979674D02*
X10621003Y-16970150D01*
X10621003Y-16970150D02*
X10592432Y-16970150D01*
X10592432Y-16970150D02*
X10573384Y-16979674D01*
X10573384Y-16979674D02*
X10563861Y-16989198D01*
X10773384Y-17103484D02*
X10754337Y-17093960D01*
X10754337Y-17093960D02*
X10744813Y-17084436D01*
X10744813Y-17084436D02*
X10735289Y-17065389D01*
X10735289Y-17065389D02*
X10735289Y-17008246D01*
X10735289Y-17008246D02*
X10744813Y-16989198D01*
X10744813Y-16989198D02*
X10754337Y-16979674D01*
X10754337Y-16979674D02*
X10773384Y-16970150D01*
X10773384Y-16970150D02*
X10801956Y-16970150D01*
X10801956Y-16970150D02*
X10821003Y-16979674D01*
X10821003Y-16979674D02*
X10830527Y-16989198D01*
X10830527Y-16989198D02*
X10840051Y-17008246D01*
X10840051Y-17008246D02*
X10840051Y-17065389D01*
X10840051Y-17065389D02*
X10830527Y-17084436D01*
X10830527Y-17084436D02*
X10821003Y-17093960D01*
X10821003Y-17093960D02*
X10801956Y-17103484D01*
X10801956Y-17103484D02*
X10773384Y-17103484D01*
X10954337Y-17103484D02*
X10935289Y-17093960D01*
X10935289Y-17093960D02*
X10925765Y-17074912D01*
X10925765Y-17074912D02*
X10925765Y-16903484D01*
X11106718Y-17093960D02*
X11087670Y-17103484D01*
X11087670Y-17103484D02*
X11049575Y-17103484D01*
X11049575Y-17103484D02*
X11030527Y-17093960D01*
X11030527Y-17093960D02*
X11021003Y-17074912D01*
X11021003Y-17074912D02*
X11021003Y-16998722D01*
X11021003Y-16998722D02*
X11030527Y-16979674D01*
X11030527Y-16979674D02*
X11049575Y-16970150D01*
X11049575Y-16970150D02*
X11087670Y-16970150D01*
X11087670Y-16970150D02*
X11106718Y-16979674D01*
X11106718Y-16979674D02*
X11116242Y-16998722D01*
X11116242Y-16998722D02*
X11116242Y-17017770D01*
X11116242Y-17017770D02*
X11021003Y-17036817D01*
X11192432Y-17093960D02*
X11211480Y-17103484D01*
X11211480Y-17103484D02*
X11249575Y-17103484D01*
X11249575Y-17103484D02*
X11268622Y-17093960D01*
X11268622Y-17093960D02*
X11278146Y-17074912D01*
X11278146Y-17074912D02*
X11278146Y-17065389D01*
X11278146Y-17065389D02*
X11268622Y-17046341D01*
X11268622Y-17046341D02*
X11249575Y-17036817D01*
X11249575Y-17036817D02*
X11221003Y-17036817D01*
X11221003Y-17036817D02*
X11201956Y-17027293D01*
X11201956Y-17027293D02*
X11192432Y-17008246D01*
X11192432Y-17008246D02*
X11192432Y-16998722D01*
X11192432Y-16998722D02*
X11201956Y-16979674D01*
X11201956Y-16979674D02*
X11221003Y-16970150D01*
X11221003Y-16970150D02*
X11249575Y-16970150D01*
X11249575Y-16970150D02*
X11268622Y-16979674D01*
X11344813Y-17179674D02*
X11354337Y-17170150D01*
X11354337Y-17170150D02*
X11373384Y-17141579D01*
X11373384Y-17141579D02*
X11382908Y-17122531D01*
X11382908Y-17122531D02*
X11392432Y-17093960D01*
X11392432Y-17093960D02*
X11401956Y-17046341D01*
X11401956Y-17046341D02*
X11401956Y-17008246D01*
X11401956Y-17008246D02*
X11392432Y-16960627D01*
X11392432Y-16960627D02*
X11382908Y-16932055D01*
X11382908Y-16932055D02*
X11373384Y-16913008D01*
X11373384Y-16913008D02*
X11354337Y-16884436D01*
X11354337Y-16884436D02*
X11344813Y-16874912D01*
D12*
X6469750Y-17226000D02*
X6569750Y-17326000D01*
X6569750Y-17226000D02*
X6469750Y-17326000D01*
X6519750Y-17226000D02*
X6519750Y-17326000D01*
X6469750Y-17276000D02*
X6569750Y-17276000D01*
D11*
X6935289Y-17367484D02*
X6821003Y-17367484D01*
X6878146Y-17367484D02*
X6878146Y-17167484D01*
X6878146Y-17167484D02*
X6859098Y-17196055D01*
X6859098Y-17196055D02*
X6840051Y-17215103D01*
X6840051Y-17215103D02*
X6821003Y-17224627D01*
X7021003Y-17348436D02*
X7030527Y-17357960D01*
X7030527Y-17357960D02*
X7021003Y-17367484D01*
X7021003Y-17367484D02*
X7011479Y-17357960D01*
X7011479Y-17357960D02*
X7021003Y-17348436D01*
X7021003Y-17348436D02*
X7021003Y-17367484D01*
X7154336Y-17167484D02*
X7173384Y-17167484D01*
X7173384Y-17167484D02*
X7192432Y-17177008D01*
X7192432Y-17177008D02*
X7201955Y-17186531D01*
X7201955Y-17186531D02*
X7211479Y-17205579D01*
X7211479Y-17205579D02*
X7221003Y-17243674D01*
X7221003Y-17243674D02*
X7221003Y-17291293D01*
X7221003Y-17291293D02*
X7211479Y-17329389D01*
X7211479Y-17329389D02*
X7201955Y-17348436D01*
X7201955Y-17348436D02*
X7192432Y-17357960D01*
X7192432Y-17357960D02*
X7173384Y-17367484D01*
X7173384Y-17367484D02*
X7154336Y-17367484D01*
X7154336Y-17367484D02*
X7135289Y-17357960D01*
X7135289Y-17357960D02*
X7125765Y-17348436D01*
X7125765Y-17348436D02*
X7116241Y-17329389D01*
X7116241Y-17329389D02*
X7106717Y-17291293D01*
X7106717Y-17291293D02*
X7106717Y-17243674D01*
X7106717Y-17243674D02*
X7116241Y-17205579D01*
X7116241Y-17205579D02*
X7125765Y-17186531D01*
X7125765Y-17186531D02*
X7135289Y-17177008D01*
X7135289Y-17177008D02*
X7154336Y-17167484D01*
X7344812Y-17167484D02*
X7363860Y-17167484D01*
X7363860Y-17167484D02*
X7382908Y-17177008D01*
X7382908Y-17177008D02*
X7392432Y-17186531D01*
X7392432Y-17186531D02*
X7401955Y-17205579D01*
X7401955Y-17205579D02*
X7411479Y-17243674D01*
X7411479Y-17243674D02*
X7411479Y-17291293D01*
X7411479Y-17291293D02*
X7401955Y-17329389D01*
X7401955Y-17329389D02*
X7392432Y-17348436D01*
X7392432Y-17348436D02*
X7382908Y-17357960D01*
X7382908Y-17357960D02*
X7363860Y-17367484D01*
X7363860Y-17367484D02*
X7344812Y-17367484D01*
X7344812Y-17367484D02*
X7325765Y-17357960D01*
X7325765Y-17357960D02*
X7316241Y-17348436D01*
X7316241Y-17348436D02*
X7306717Y-17329389D01*
X7306717Y-17329389D02*
X7297193Y-17291293D01*
X7297193Y-17291293D02*
X7297193Y-17243674D01*
X7297193Y-17243674D02*
X7306717Y-17205579D01*
X7306717Y-17205579D02*
X7316241Y-17186531D01*
X7316241Y-17186531D02*
X7325765Y-17177008D01*
X7325765Y-17177008D02*
X7344812Y-17167484D01*
X7535289Y-17167484D02*
X7554336Y-17167484D01*
X7554336Y-17167484D02*
X7573384Y-17177008D01*
X7573384Y-17177008D02*
X7582908Y-17186531D01*
X7582908Y-17186531D02*
X7592432Y-17205579D01*
X7592432Y-17205579D02*
X7601955Y-17243674D01*
X7601955Y-17243674D02*
X7601955Y-17291293D01*
X7601955Y-17291293D02*
X7592432Y-17329389D01*
X7592432Y-17329389D02*
X7582908Y-17348436D01*
X7582908Y-17348436D02*
X7573384Y-17357960D01*
X7573384Y-17357960D02*
X7554336Y-17367484D01*
X7554336Y-17367484D02*
X7535289Y-17367484D01*
X7535289Y-17367484D02*
X7516241Y-17357960D01*
X7516241Y-17357960D02*
X7506717Y-17348436D01*
X7506717Y-17348436D02*
X7497193Y-17329389D01*
X7497193Y-17329389D02*
X7487670Y-17291293D01*
X7487670Y-17291293D02*
X7487670Y-17243674D01*
X7487670Y-17243674D02*
X7497193Y-17205579D01*
X7497193Y-17205579D02*
X7506717Y-17186531D01*
X7506717Y-17186531D02*
X7516241Y-17177008D01*
X7516241Y-17177008D02*
X7535289Y-17167484D01*
X7687670Y-17367484D02*
X7687670Y-17234150D01*
X7687670Y-17253198D02*
X7697193Y-17243674D01*
X7697193Y-17243674D02*
X7716241Y-17234150D01*
X7716241Y-17234150D02*
X7744813Y-17234150D01*
X7744813Y-17234150D02*
X7763860Y-17243674D01*
X7763860Y-17243674D02*
X7773384Y-17262722D01*
X7773384Y-17262722D02*
X7773384Y-17367484D01*
X7773384Y-17262722D02*
X7782908Y-17243674D01*
X7782908Y-17243674D02*
X7801955Y-17234150D01*
X7801955Y-17234150D02*
X7830527Y-17234150D01*
X7830527Y-17234150D02*
X7849574Y-17243674D01*
X7849574Y-17243674D02*
X7859098Y-17262722D01*
X7859098Y-17262722D02*
X7859098Y-17367484D01*
X7954336Y-17367484D02*
X7954336Y-17234150D01*
X7954336Y-17253198D02*
X7963860Y-17243674D01*
X7963860Y-17243674D02*
X7982908Y-17234150D01*
X7982908Y-17234150D02*
X8011479Y-17234150D01*
X8011479Y-17234150D02*
X8030527Y-17243674D01*
X8030527Y-17243674D02*
X8040051Y-17262722D01*
X8040051Y-17262722D02*
X8040051Y-17367484D01*
X8040051Y-17262722D02*
X8049574Y-17243674D01*
X8049574Y-17243674D02*
X8068622Y-17234150D01*
X8068622Y-17234150D02*
X8097193Y-17234150D01*
X8097193Y-17234150D02*
X8116241Y-17243674D01*
X8116241Y-17243674D02*
X8125765Y-17262722D01*
X8125765Y-17262722D02*
X8125765Y-17367484D01*
X8516241Y-17157960D02*
X8344813Y-17415103D01*
X8773384Y-17167484D02*
X8792432Y-17167484D01*
X8792432Y-17167484D02*
X8811479Y-17177008D01*
X8811479Y-17177008D02*
X8821003Y-17186531D01*
X8821003Y-17186531D02*
X8830527Y-17205579D01*
X8830527Y-17205579D02*
X8840051Y-17243674D01*
X8840051Y-17243674D02*
X8840051Y-17291293D01*
X8840051Y-17291293D02*
X8830527Y-17329389D01*
X8830527Y-17329389D02*
X8821003Y-17348436D01*
X8821003Y-17348436D02*
X8811479Y-17357960D01*
X8811479Y-17357960D02*
X8792432Y-17367484D01*
X8792432Y-17367484D02*
X8773384Y-17367484D01*
X8773384Y-17367484D02*
X8754337Y-17357960D01*
X8754337Y-17357960D02*
X8744813Y-17348436D01*
X8744813Y-17348436D02*
X8735289Y-17329389D01*
X8735289Y-17329389D02*
X8725765Y-17291293D01*
X8725765Y-17291293D02*
X8725765Y-17243674D01*
X8725765Y-17243674D02*
X8735289Y-17205579D01*
X8735289Y-17205579D02*
X8744813Y-17186531D01*
X8744813Y-17186531D02*
X8754337Y-17177008D01*
X8754337Y-17177008D02*
X8773384Y-17167484D01*
X8925765Y-17348436D02*
X8935289Y-17357960D01*
X8935289Y-17357960D02*
X8925765Y-17367484D01*
X8925765Y-17367484D02*
X8916241Y-17357960D01*
X8916241Y-17357960D02*
X8925765Y-17348436D01*
X8925765Y-17348436D02*
X8925765Y-17367484D01*
X9059098Y-17167484D02*
X9078146Y-17167484D01*
X9078146Y-17167484D02*
X9097194Y-17177008D01*
X9097194Y-17177008D02*
X9106718Y-17186531D01*
X9106718Y-17186531D02*
X9116241Y-17205579D01*
X9116241Y-17205579D02*
X9125765Y-17243674D01*
X9125765Y-17243674D02*
X9125765Y-17291293D01*
X9125765Y-17291293D02*
X9116241Y-17329389D01*
X9116241Y-17329389D02*
X9106718Y-17348436D01*
X9106718Y-17348436D02*
X9097194Y-17357960D01*
X9097194Y-17357960D02*
X9078146Y-17367484D01*
X9078146Y-17367484D02*
X9059098Y-17367484D01*
X9059098Y-17367484D02*
X9040051Y-17357960D01*
X9040051Y-17357960D02*
X9030527Y-17348436D01*
X9030527Y-17348436D02*
X9021003Y-17329389D01*
X9021003Y-17329389D02*
X9011479Y-17291293D01*
X9011479Y-17291293D02*
X9011479Y-17243674D01*
X9011479Y-17243674D02*
X9021003Y-17205579D01*
X9021003Y-17205579D02*
X9030527Y-17186531D01*
X9030527Y-17186531D02*
X9040051Y-17177008D01*
X9040051Y-17177008D02*
X9059098Y-17167484D01*
X9192432Y-17167484D02*
X9316241Y-17167484D01*
X9316241Y-17167484D02*
X9249575Y-17243674D01*
X9249575Y-17243674D02*
X9278146Y-17243674D01*
X9278146Y-17243674D02*
X9297194Y-17253198D01*
X9297194Y-17253198D02*
X9306718Y-17262722D01*
X9306718Y-17262722D02*
X9316241Y-17281770D01*
X9316241Y-17281770D02*
X9316241Y-17329389D01*
X9316241Y-17329389D02*
X9306718Y-17348436D01*
X9306718Y-17348436D02*
X9297194Y-17357960D01*
X9297194Y-17357960D02*
X9278146Y-17367484D01*
X9278146Y-17367484D02*
X9221003Y-17367484D01*
X9221003Y-17367484D02*
X9201956Y-17357960D01*
X9201956Y-17357960D02*
X9192432Y-17348436D01*
X9411479Y-17367484D02*
X9449575Y-17367484D01*
X9449575Y-17367484D02*
X9468622Y-17357960D01*
X9468622Y-17357960D02*
X9478146Y-17348436D01*
X9478146Y-17348436D02*
X9497194Y-17319865D01*
X9497194Y-17319865D02*
X9506718Y-17281770D01*
X9506718Y-17281770D02*
X9506718Y-17205579D01*
X9506718Y-17205579D02*
X9497194Y-17186531D01*
X9497194Y-17186531D02*
X9487670Y-17177008D01*
X9487670Y-17177008D02*
X9468622Y-17167484D01*
X9468622Y-17167484D02*
X9430527Y-17167484D01*
X9430527Y-17167484D02*
X9411479Y-17177008D01*
X9411479Y-17177008D02*
X9401956Y-17186531D01*
X9401956Y-17186531D02*
X9392432Y-17205579D01*
X9392432Y-17205579D02*
X9392432Y-17253198D01*
X9392432Y-17253198D02*
X9401956Y-17272246D01*
X9401956Y-17272246D02*
X9411479Y-17281770D01*
X9411479Y-17281770D02*
X9430527Y-17291293D01*
X9430527Y-17291293D02*
X9468622Y-17291293D01*
X9468622Y-17291293D02*
X9487670Y-17281770D01*
X9487670Y-17281770D02*
X9497194Y-17272246D01*
X9497194Y-17272246D02*
X9506718Y-17253198D01*
X9678146Y-17234150D02*
X9678146Y-17367484D01*
X9630527Y-17157960D02*
X9582908Y-17300817D01*
X9582908Y-17300817D02*
X9706718Y-17300817D01*
X9773384Y-17167484D02*
X9773384Y-17205579D01*
X9849575Y-17167484D02*
X9849575Y-17205579D01*
X10144813Y-17443674D02*
X10135289Y-17434150D01*
X10135289Y-17434150D02*
X10116241Y-17405579D01*
X10116241Y-17405579D02*
X10106718Y-17386531D01*
X10106718Y-17386531D02*
X10097194Y-17357960D01*
X10097194Y-17357960D02*
X10087670Y-17310341D01*
X10087670Y-17310341D02*
X10087670Y-17272246D01*
X10087670Y-17272246D02*
X10097194Y-17224627D01*
X10097194Y-17224627D02*
X10106718Y-17196055D01*
X10106718Y-17196055D02*
X10116241Y-17177008D01*
X10116241Y-17177008D02*
X10135289Y-17148436D01*
X10135289Y-17148436D02*
X10144813Y-17138912D01*
X10325765Y-17367484D02*
X10211480Y-17367484D01*
X10268622Y-17367484D02*
X10268622Y-17167484D01*
X10268622Y-17167484D02*
X10249575Y-17196055D01*
X10249575Y-17196055D02*
X10230527Y-17215103D01*
X10230527Y-17215103D02*
X10211480Y-17224627D01*
X10506718Y-17167484D02*
X10411480Y-17167484D01*
X10411480Y-17167484D02*
X10401956Y-17262722D01*
X10401956Y-17262722D02*
X10411480Y-17253198D01*
X10411480Y-17253198D02*
X10430527Y-17243674D01*
X10430527Y-17243674D02*
X10478146Y-17243674D01*
X10478146Y-17243674D02*
X10497194Y-17253198D01*
X10497194Y-17253198D02*
X10506718Y-17262722D01*
X10506718Y-17262722D02*
X10516241Y-17281770D01*
X10516241Y-17281770D02*
X10516241Y-17329389D01*
X10516241Y-17329389D02*
X10506718Y-17348436D01*
X10506718Y-17348436D02*
X10497194Y-17357960D01*
X10497194Y-17357960D02*
X10478146Y-17367484D01*
X10478146Y-17367484D02*
X10430527Y-17367484D01*
X10430527Y-17367484D02*
X10411480Y-17357960D01*
X10411480Y-17357960D02*
X10401956Y-17348436D01*
X10582908Y-17167484D02*
X10706718Y-17167484D01*
X10706718Y-17167484D02*
X10640051Y-17243674D01*
X10640051Y-17243674D02*
X10668622Y-17243674D01*
X10668622Y-17243674D02*
X10687670Y-17253198D01*
X10687670Y-17253198D02*
X10697194Y-17262722D01*
X10697194Y-17262722D02*
X10706718Y-17281770D01*
X10706718Y-17281770D02*
X10706718Y-17329389D01*
X10706718Y-17329389D02*
X10697194Y-17348436D01*
X10697194Y-17348436D02*
X10687670Y-17357960D01*
X10687670Y-17357960D02*
X10668622Y-17367484D01*
X10668622Y-17367484D02*
X10611480Y-17367484D01*
X10611480Y-17367484D02*
X10592432Y-17357960D01*
X10592432Y-17357960D02*
X10582908Y-17348436D01*
X10944813Y-17367484D02*
X10944813Y-17167484D01*
X11030527Y-17367484D02*
X11030527Y-17262722D01*
X11030527Y-17262722D02*
X11021003Y-17243674D01*
X11021003Y-17243674D02*
X11001956Y-17234150D01*
X11001956Y-17234150D02*
X10973384Y-17234150D01*
X10973384Y-17234150D02*
X10954337Y-17243674D01*
X10954337Y-17243674D02*
X10944813Y-17253198D01*
X11154337Y-17367484D02*
X11135289Y-17357960D01*
X11135289Y-17357960D02*
X11125765Y-17348436D01*
X11125765Y-17348436D02*
X11116242Y-17329389D01*
X11116242Y-17329389D02*
X11116242Y-17272246D01*
X11116242Y-17272246D02*
X11125765Y-17253198D01*
X11125765Y-17253198D02*
X11135289Y-17243674D01*
X11135289Y-17243674D02*
X11154337Y-17234150D01*
X11154337Y-17234150D02*
X11182908Y-17234150D01*
X11182908Y-17234150D02*
X11201956Y-17243674D01*
X11201956Y-17243674D02*
X11211480Y-17253198D01*
X11211480Y-17253198D02*
X11221003Y-17272246D01*
X11221003Y-17272246D02*
X11221003Y-17329389D01*
X11221003Y-17329389D02*
X11211480Y-17348436D01*
X11211480Y-17348436D02*
X11201956Y-17357960D01*
X11201956Y-17357960D02*
X11182908Y-17367484D01*
X11182908Y-17367484D02*
X11154337Y-17367484D01*
X11335289Y-17367484D02*
X11316241Y-17357960D01*
X11316241Y-17357960D02*
X11306718Y-17338912D01*
X11306718Y-17338912D02*
X11306718Y-17167484D01*
X11487670Y-17357960D02*
X11468622Y-17367484D01*
X11468622Y-17367484D02*
X11430527Y-17367484D01*
X11430527Y-17367484D02*
X11411480Y-17357960D01*
X11411480Y-17357960D02*
X11401956Y-17338912D01*
X11401956Y-17338912D02*
X11401956Y-17262722D01*
X11401956Y-17262722D02*
X11411480Y-17243674D01*
X11411480Y-17243674D02*
X11430527Y-17234150D01*
X11430527Y-17234150D02*
X11468622Y-17234150D01*
X11468622Y-17234150D02*
X11487670Y-17243674D01*
X11487670Y-17243674D02*
X11497194Y-17262722D01*
X11497194Y-17262722D02*
X11497194Y-17281770D01*
X11497194Y-17281770D02*
X11401956Y-17300817D01*
X11573384Y-17357960D02*
X11592432Y-17367484D01*
X11592432Y-17367484D02*
X11630527Y-17367484D01*
X11630527Y-17367484D02*
X11649575Y-17357960D01*
X11649575Y-17357960D02*
X11659099Y-17338912D01*
X11659099Y-17338912D02*
X11659099Y-17329389D01*
X11659099Y-17329389D02*
X11649575Y-17310341D01*
X11649575Y-17310341D02*
X11630527Y-17300817D01*
X11630527Y-17300817D02*
X11601956Y-17300817D01*
X11601956Y-17300817D02*
X11582908Y-17291293D01*
X11582908Y-17291293D02*
X11573384Y-17272246D01*
X11573384Y-17272246D02*
X11573384Y-17262722D01*
X11573384Y-17262722D02*
X11582908Y-17243674D01*
X11582908Y-17243674D02*
X11601956Y-17234150D01*
X11601956Y-17234150D02*
X11630527Y-17234150D01*
X11630527Y-17234150D02*
X11649575Y-17243674D01*
X11725765Y-17443674D02*
X11735289Y-17434150D01*
X11735289Y-17434150D02*
X11754337Y-17405579D01*
X11754337Y-17405579D02*
X11763861Y-17386531D01*
X11763861Y-17386531D02*
X11773384Y-17357960D01*
X11773384Y-17357960D02*
X11782908Y-17310341D01*
X11782908Y-17310341D02*
X11782908Y-17272246D01*
X11782908Y-17272246D02*
X11773384Y-17224627D01*
X11773384Y-17224627D02*
X11763861Y-17196055D01*
X11763861Y-17196055D02*
X11754337Y-17177008D01*
X11754337Y-17177008D02*
X11735289Y-17148436D01*
X11735289Y-17148436D02*
X11725765Y-17138912D01*
D13*
X6459750Y-17485000D02*
X6569750Y-17595000D01*
X6569750Y-17485000D02*
X6459750Y-17595000D01*
X6553641Y-17578891D02*
X6553641Y-17501109D01*
X6475859Y-17501109D01*
X6475859Y-17578891D01*
X6553641Y-17578891D01*
D11*
X6935289Y-17631484D02*
X6821003Y-17631484D01*
X6878146Y-17631484D02*
X6878146Y-17431484D01*
X6878146Y-17431484D02*
X6859098Y-17460055D01*
X6859098Y-17460055D02*
X6840051Y-17479103D01*
X6840051Y-17479103D02*
X6821003Y-17488627D01*
X7021003Y-17612436D02*
X7030527Y-17621960D01*
X7030527Y-17621960D02*
X7021003Y-17631484D01*
X7021003Y-17631484D02*
X7011479Y-17621960D01*
X7011479Y-17621960D02*
X7021003Y-17612436D01*
X7021003Y-17612436D02*
X7021003Y-17631484D01*
X7221003Y-17631484D02*
X7106717Y-17631484D01*
X7163860Y-17631484D02*
X7163860Y-17431484D01*
X7163860Y-17431484D02*
X7144812Y-17460055D01*
X7144812Y-17460055D02*
X7125765Y-17479103D01*
X7125765Y-17479103D02*
X7106717Y-17488627D01*
X7344812Y-17431484D02*
X7363860Y-17431484D01*
X7363860Y-17431484D02*
X7382908Y-17441008D01*
X7382908Y-17441008D02*
X7392432Y-17450531D01*
X7392432Y-17450531D02*
X7401955Y-17469579D01*
X7401955Y-17469579D02*
X7411479Y-17507674D01*
X7411479Y-17507674D02*
X7411479Y-17555293D01*
X7411479Y-17555293D02*
X7401955Y-17593389D01*
X7401955Y-17593389D02*
X7392432Y-17612436D01*
X7392432Y-17612436D02*
X7382908Y-17621960D01*
X7382908Y-17621960D02*
X7363860Y-17631484D01*
X7363860Y-17631484D02*
X7344812Y-17631484D01*
X7344812Y-17631484D02*
X7325765Y-17621960D01*
X7325765Y-17621960D02*
X7316241Y-17612436D01*
X7316241Y-17612436D02*
X7306717Y-17593389D01*
X7306717Y-17593389D02*
X7297193Y-17555293D01*
X7297193Y-17555293D02*
X7297193Y-17507674D01*
X7297193Y-17507674D02*
X7306717Y-17469579D01*
X7306717Y-17469579D02*
X7316241Y-17450531D01*
X7316241Y-17450531D02*
X7325765Y-17441008D01*
X7325765Y-17441008D02*
X7344812Y-17431484D01*
X7535289Y-17431484D02*
X7554336Y-17431484D01*
X7554336Y-17431484D02*
X7573384Y-17441008D01*
X7573384Y-17441008D02*
X7582908Y-17450531D01*
X7582908Y-17450531D02*
X7592432Y-17469579D01*
X7592432Y-17469579D02*
X7601955Y-17507674D01*
X7601955Y-17507674D02*
X7601955Y-17555293D01*
X7601955Y-17555293D02*
X7592432Y-17593389D01*
X7592432Y-17593389D02*
X7582908Y-17612436D01*
X7582908Y-17612436D02*
X7573384Y-17621960D01*
X7573384Y-17621960D02*
X7554336Y-17631484D01*
X7554336Y-17631484D02*
X7535289Y-17631484D01*
X7535289Y-17631484D02*
X7516241Y-17621960D01*
X7516241Y-17621960D02*
X7506717Y-17612436D01*
X7506717Y-17612436D02*
X7497193Y-17593389D01*
X7497193Y-17593389D02*
X7487670Y-17555293D01*
X7487670Y-17555293D02*
X7487670Y-17507674D01*
X7487670Y-17507674D02*
X7497193Y-17469579D01*
X7497193Y-17469579D02*
X7506717Y-17450531D01*
X7506717Y-17450531D02*
X7516241Y-17441008D01*
X7516241Y-17441008D02*
X7535289Y-17431484D01*
X7687670Y-17631484D02*
X7687670Y-17498150D01*
X7687670Y-17517198D02*
X7697193Y-17507674D01*
X7697193Y-17507674D02*
X7716241Y-17498150D01*
X7716241Y-17498150D02*
X7744813Y-17498150D01*
X7744813Y-17498150D02*
X7763860Y-17507674D01*
X7763860Y-17507674D02*
X7773384Y-17526722D01*
X7773384Y-17526722D02*
X7773384Y-17631484D01*
X7773384Y-17526722D02*
X7782908Y-17507674D01*
X7782908Y-17507674D02*
X7801955Y-17498150D01*
X7801955Y-17498150D02*
X7830527Y-17498150D01*
X7830527Y-17498150D02*
X7849574Y-17507674D01*
X7849574Y-17507674D02*
X7859098Y-17526722D01*
X7859098Y-17526722D02*
X7859098Y-17631484D01*
X7954336Y-17631484D02*
X7954336Y-17498150D01*
X7954336Y-17517198D02*
X7963860Y-17507674D01*
X7963860Y-17507674D02*
X7982908Y-17498150D01*
X7982908Y-17498150D02*
X8011479Y-17498150D01*
X8011479Y-17498150D02*
X8030527Y-17507674D01*
X8030527Y-17507674D02*
X8040051Y-17526722D01*
X8040051Y-17526722D02*
X8040051Y-17631484D01*
X8040051Y-17526722D02*
X8049574Y-17507674D01*
X8049574Y-17507674D02*
X8068622Y-17498150D01*
X8068622Y-17498150D02*
X8097193Y-17498150D01*
X8097193Y-17498150D02*
X8116241Y-17507674D01*
X8116241Y-17507674D02*
X8125765Y-17526722D01*
X8125765Y-17526722D02*
X8125765Y-17631484D01*
X8516241Y-17421960D02*
X8344813Y-17679103D01*
X8773384Y-17431484D02*
X8792432Y-17431484D01*
X8792432Y-17431484D02*
X8811479Y-17441008D01*
X8811479Y-17441008D02*
X8821003Y-17450531D01*
X8821003Y-17450531D02*
X8830527Y-17469579D01*
X8830527Y-17469579D02*
X8840051Y-17507674D01*
X8840051Y-17507674D02*
X8840051Y-17555293D01*
X8840051Y-17555293D02*
X8830527Y-17593389D01*
X8830527Y-17593389D02*
X8821003Y-17612436D01*
X8821003Y-17612436D02*
X8811479Y-17621960D01*
X8811479Y-17621960D02*
X8792432Y-17631484D01*
X8792432Y-17631484D02*
X8773384Y-17631484D01*
X8773384Y-17631484D02*
X8754337Y-17621960D01*
X8754337Y-17621960D02*
X8744813Y-17612436D01*
X8744813Y-17612436D02*
X8735289Y-17593389D01*
X8735289Y-17593389D02*
X8725765Y-17555293D01*
X8725765Y-17555293D02*
X8725765Y-17507674D01*
X8725765Y-17507674D02*
X8735289Y-17469579D01*
X8735289Y-17469579D02*
X8744813Y-17450531D01*
X8744813Y-17450531D02*
X8754337Y-17441008D01*
X8754337Y-17441008D02*
X8773384Y-17431484D01*
X8925765Y-17612436D02*
X8935289Y-17621960D01*
X8935289Y-17621960D02*
X8925765Y-17631484D01*
X8925765Y-17631484D02*
X8916241Y-17621960D01*
X8916241Y-17621960D02*
X8925765Y-17612436D01*
X8925765Y-17612436D02*
X8925765Y-17631484D01*
X9059098Y-17431484D02*
X9078146Y-17431484D01*
X9078146Y-17431484D02*
X9097194Y-17441008D01*
X9097194Y-17441008D02*
X9106718Y-17450531D01*
X9106718Y-17450531D02*
X9116241Y-17469579D01*
X9116241Y-17469579D02*
X9125765Y-17507674D01*
X9125765Y-17507674D02*
X9125765Y-17555293D01*
X9125765Y-17555293D02*
X9116241Y-17593389D01*
X9116241Y-17593389D02*
X9106718Y-17612436D01*
X9106718Y-17612436D02*
X9097194Y-17621960D01*
X9097194Y-17621960D02*
X9078146Y-17631484D01*
X9078146Y-17631484D02*
X9059098Y-17631484D01*
X9059098Y-17631484D02*
X9040051Y-17621960D01*
X9040051Y-17621960D02*
X9030527Y-17612436D01*
X9030527Y-17612436D02*
X9021003Y-17593389D01*
X9021003Y-17593389D02*
X9011479Y-17555293D01*
X9011479Y-17555293D02*
X9011479Y-17507674D01*
X9011479Y-17507674D02*
X9021003Y-17469579D01*
X9021003Y-17469579D02*
X9030527Y-17450531D01*
X9030527Y-17450531D02*
X9040051Y-17441008D01*
X9040051Y-17441008D02*
X9059098Y-17431484D01*
X9297194Y-17498150D02*
X9297194Y-17631484D01*
X9249575Y-17421960D02*
X9201956Y-17564817D01*
X9201956Y-17564817D02*
X9325765Y-17564817D01*
X9382908Y-17431484D02*
X9506718Y-17431484D01*
X9506718Y-17431484D02*
X9440051Y-17507674D01*
X9440051Y-17507674D02*
X9468622Y-17507674D01*
X9468622Y-17507674D02*
X9487670Y-17517198D01*
X9487670Y-17517198D02*
X9497194Y-17526722D01*
X9497194Y-17526722D02*
X9506718Y-17545770D01*
X9506718Y-17545770D02*
X9506718Y-17593389D01*
X9506718Y-17593389D02*
X9497194Y-17612436D01*
X9497194Y-17612436D02*
X9487670Y-17621960D01*
X9487670Y-17621960D02*
X9468622Y-17631484D01*
X9468622Y-17631484D02*
X9411479Y-17631484D01*
X9411479Y-17631484D02*
X9392432Y-17621960D01*
X9392432Y-17621960D02*
X9382908Y-17612436D01*
X9573384Y-17431484D02*
X9697194Y-17431484D01*
X9697194Y-17431484D02*
X9630527Y-17507674D01*
X9630527Y-17507674D02*
X9659099Y-17507674D01*
X9659099Y-17507674D02*
X9678146Y-17517198D01*
X9678146Y-17517198D02*
X9687670Y-17526722D01*
X9687670Y-17526722D02*
X9697194Y-17545770D01*
X9697194Y-17545770D02*
X9697194Y-17593389D01*
X9697194Y-17593389D02*
X9687670Y-17612436D01*
X9687670Y-17612436D02*
X9678146Y-17621960D01*
X9678146Y-17621960D02*
X9659099Y-17631484D01*
X9659099Y-17631484D02*
X9601956Y-17631484D01*
X9601956Y-17631484D02*
X9582908Y-17621960D01*
X9582908Y-17621960D02*
X9573384Y-17612436D01*
X9773384Y-17431484D02*
X9773384Y-17469579D01*
X9849575Y-17431484D02*
X9849575Y-17469579D01*
X10144813Y-17707674D02*
X10135289Y-17698150D01*
X10135289Y-17698150D02*
X10116241Y-17669579D01*
X10116241Y-17669579D02*
X10106718Y-17650531D01*
X10106718Y-17650531D02*
X10097194Y-17621960D01*
X10097194Y-17621960D02*
X10087670Y-17574341D01*
X10087670Y-17574341D02*
X10087670Y-17536246D01*
X10087670Y-17536246D02*
X10097194Y-17488627D01*
X10097194Y-17488627D02*
X10106718Y-17460055D01*
X10106718Y-17460055D02*
X10116241Y-17441008D01*
X10116241Y-17441008D02*
X10135289Y-17412436D01*
X10135289Y-17412436D02*
X10144813Y-17402912D01*
X10325765Y-17631484D02*
X10211480Y-17631484D01*
X10268622Y-17631484D02*
X10268622Y-17431484D01*
X10268622Y-17431484D02*
X10249575Y-17460055D01*
X10249575Y-17460055D02*
X10230527Y-17479103D01*
X10230527Y-17479103D02*
X10211480Y-17488627D01*
X10506718Y-17431484D02*
X10411480Y-17431484D01*
X10411480Y-17431484D02*
X10401956Y-17526722D01*
X10401956Y-17526722D02*
X10411480Y-17517198D01*
X10411480Y-17517198D02*
X10430527Y-17507674D01*
X10430527Y-17507674D02*
X10478146Y-17507674D01*
X10478146Y-17507674D02*
X10497194Y-17517198D01*
X10497194Y-17517198D02*
X10506718Y-17526722D01*
X10506718Y-17526722D02*
X10516241Y-17545770D01*
X10516241Y-17545770D02*
X10516241Y-17593389D01*
X10516241Y-17593389D02*
X10506718Y-17612436D01*
X10506718Y-17612436D02*
X10497194Y-17621960D01*
X10497194Y-17621960D02*
X10478146Y-17631484D01*
X10478146Y-17631484D02*
X10430527Y-17631484D01*
X10430527Y-17631484D02*
X10411480Y-17621960D01*
X10411480Y-17621960D02*
X10401956Y-17612436D01*
X10754337Y-17631484D02*
X10754337Y-17431484D01*
X10840051Y-17631484D02*
X10840051Y-17526722D01*
X10840051Y-17526722D02*
X10830527Y-17507674D01*
X10830527Y-17507674D02*
X10811480Y-17498150D01*
X10811480Y-17498150D02*
X10782908Y-17498150D01*
X10782908Y-17498150D02*
X10763861Y-17507674D01*
X10763861Y-17507674D02*
X10754337Y-17517198D01*
X10963861Y-17631484D02*
X10944813Y-17621960D01*
X10944813Y-17621960D02*
X10935289Y-17612436D01*
X10935289Y-17612436D02*
X10925765Y-17593389D01*
X10925765Y-17593389D02*
X10925765Y-17536246D01*
X10925765Y-17536246D02*
X10935289Y-17517198D01*
X10935289Y-17517198D02*
X10944813Y-17507674D01*
X10944813Y-17507674D02*
X10963861Y-17498150D01*
X10963861Y-17498150D02*
X10992432Y-17498150D01*
X10992432Y-17498150D02*
X11011480Y-17507674D01*
X11011480Y-17507674D02*
X11021003Y-17517198D01*
X11021003Y-17517198D02*
X11030527Y-17536246D01*
X11030527Y-17536246D02*
X11030527Y-17593389D01*
X11030527Y-17593389D02*
X11021003Y-17612436D01*
X11021003Y-17612436D02*
X11011480Y-17621960D01*
X11011480Y-17621960D02*
X10992432Y-17631484D01*
X10992432Y-17631484D02*
X10963861Y-17631484D01*
X11144813Y-17631484D02*
X11125765Y-17621960D01*
X11125765Y-17621960D02*
X11116242Y-17602912D01*
X11116242Y-17602912D02*
X11116242Y-17431484D01*
X11297194Y-17621960D02*
X11278146Y-17631484D01*
X11278146Y-17631484D02*
X11240051Y-17631484D01*
X11240051Y-17631484D02*
X11221003Y-17621960D01*
X11221003Y-17621960D02*
X11211480Y-17602912D01*
X11211480Y-17602912D02*
X11211480Y-17526722D01*
X11211480Y-17526722D02*
X11221003Y-17507674D01*
X11221003Y-17507674D02*
X11240051Y-17498150D01*
X11240051Y-17498150D02*
X11278146Y-17498150D01*
X11278146Y-17498150D02*
X11297194Y-17507674D01*
X11297194Y-17507674D02*
X11306718Y-17526722D01*
X11306718Y-17526722D02*
X11306718Y-17545770D01*
X11306718Y-17545770D02*
X11211480Y-17564817D01*
X11382908Y-17621960D02*
X11401956Y-17631484D01*
X11401956Y-17631484D02*
X11440051Y-17631484D01*
X11440051Y-17631484D02*
X11459099Y-17621960D01*
X11459099Y-17621960D02*
X11468622Y-17602912D01*
X11468622Y-17602912D02*
X11468622Y-17593389D01*
X11468622Y-17593389D02*
X11459099Y-17574341D01*
X11459099Y-17574341D02*
X11440051Y-17564817D01*
X11440051Y-17564817D02*
X11411480Y-17564817D01*
X11411480Y-17564817D02*
X11392432Y-17555293D01*
X11392432Y-17555293D02*
X11382908Y-17536246D01*
X11382908Y-17536246D02*
X11382908Y-17526722D01*
X11382908Y-17526722D02*
X11392432Y-17507674D01*
X11392432Y-17507674D02*
X11411480Y-17498150D01*
X11411480Y-17498150D02*
X11440051Y-17498150D01*
X11440051Y-17498150D02*
X11459099Y-17507674D01*
X11535289Y-17707674D02*
X11544813Y-17698150D01*
X11544813Y-17698150D02*
X11563861Y-17669579D01*
X11563861Y-17669579D02*
X11573384Y-17650531D01*
X11573384Y-17650531D02*
X11582908Y-17621960D01*
X11582908Y-17621960D02*
X11592432Y-17574341D01*
X11592432Y-17574341D02*
X11592432Y-17536246D01*
X11592432Y-17536246D02*
X11582908Y-17488627D01*
X11582908Y-17488627D02*
X11573384Y-17460055D01*
X11573384Y-17460055D02*
X11563861Y-17441008D01*
X11563861Y-17441008D02*
X11544813Y-17412436D01*
X11544813Y-17412436D02*
X11535289Y-17402912D01*
D14*
X6439750Y-17739000D02*
X6569750Y-17869000D01*
X6569750Y-17739000D02*
X6439750Y-17869000D01*
X6504750Y-17869000D02*
X6569750Y-17804000D01*
X6504750Y-17739000D01*
X6439750Y-17804000D01*
X6504750Y-17869000D01*
D11*
X6935289Y-17895484D02*
X6821003Y-17895484D01*
X6878146Y-17895484D02*
X6878146Y-17695484D01*
X6878146Y-17695484D02*
X6859098Y-17724055D01*
X6859098Y-17724055D02*
X6840051Y-17743103D01*
X6840051Y-17743103D02*
X6821003Y-17752627D01*
X7021003Y-17876436D02*
X7030527Y-17885960D01*
X7030527Y-17885960D02*
X7021003Y-17895484D01*
X7021003Y-17895484D02*
X7011479Y-17885960D01*
X7011479Y-17885960D02*
X7021003Y-17876436D01*
X7021003Y-17876436D02*
X7021003Y-17895484D01*
X7097193Y-17695484D02*
X7221003Y-17695484D01*
X7221003Y-17695484D02*
X7154336Y-17771674D01*
X7154336Y-17771674D02*
X7182908Y-17771674D01*
X7182908Y-17771674D02*
X7201955Y-17781198D01*
X7201955Y-17781198D02*
X7211479Y-17790722D01*
X7211479Y-17790722D02*
X7221003Y-17809770D01*
X7221003Y-17809770D02*
X7221003Y-17857389D01*
X7221003Y-17857389D02*
X7211479Y-17876436D01*
X7211479Y-17876436D02*
X7201955Y-17885960D01*
X7201955Y-17885960D02*
X7182908Y-17895484D01*
X7182908Y-17895484D02*
X7125765Y-17895484D01*
X7125765Y-17895484D02*
X7106717Y-17885960D01*
X7106717Y-17885960D02*
X7097193Y-17876436D01*
X7344812Y-17695484D02*
X7363860Y-17695484D01*
X7363860Y-17695484D02*
X7382908Y-17705008D01*
X7382908Y-17705008D02*
X7392432Y-17714531D01*
X7392432Y-17714531D02*
X7401955Y-17733579D01*
X7401955Y-17733579D02*
X7411479Y-17771674D01*
X7411479Y-17771674D02*
X7411479Y-17819293D01*
X7411479Y-17819293D02*
X7401955Y-17857389D01*
X7401955Y-17857389D02*
X7392432Y-17876436D01*
X7392432Y-17876436D02*
X7382908Y-17885960D01*
X7382908Y-17885960D02*
X7363860Y-17895484D01*
X7363860Y-17895484D02*
X7344812Y-17895484D01*
X7344812Y-17895484D02*
X7325765Y-17885960D01*
X7325765Y-17885960D02*
X7316241Y-17876436D01*
X7316241Y-17876436D02*
X7306717Y-17857389D01*
X7306717Y-17857389D02*
X7297193Y-17819293D01*
X7297193Y-17819293D02*
X7297193Y-17771674D01*
X7297193Y-17771674D02*
X7306717Y-17733579D01*
X7306717Y-17733579D02*
X7316241Y-17714531D01*
X7316241Y-17714531D02*
X7325765Y-17705008D01*
X7325765Y-17705008D02*
X7344812Y-17695484D01*
X7535289Y-17695484D02*
X7554336Y-17695484D01*
X7554336Y-17695484D02*
X7573384Y-17705008D01*
X7573384Y-17705008D02*
X7582908Y-17714531D01*
X7582908Y-17714531D02*
X7592432Y-17733579D01*
X7592432Y-17733579D02*
X7601955Y-17771674D01*
X7601955Y-17771674D02*
X7601955Y-17819293D01*
X7601955Y-17819293D02*
X7592432Y-17857389D01*
X7592432Y-17857389D02*
X7582908Y-17876436D01*
X7582908Y-17876436D02*
X7573384Y-17885960D01*
X7573384Y-17885960D02*
X7554336Y-17895484D01*
X7554336Y-17895484D02*
X7535289Y-17895484D01*
X7535289Y-17895484D02*
X7516241Y-17885960D01*
X7516241Y-17885960D02*
X7506717Y-17876436D01*
X7506717Y-17876436D02*
X7497193Y-17857389D01*
X7497193Y-17857389D02*
X7487670Y-17819293D01*
X7487670Y-17819293D02*
X7487670Y-17771674D01*
X7487670Y-17771674D02*
X7497193Y-17733579D01*
X7497193Y-17733579D02*
X7506717Y-17714531D01*
X7506717Y-17714531D02*
X7516241Y-17705008D01*
X7516241Y-17705008D02*
X7535289Y-17695484D01*
X7687670Y-17895484D02*
X7687670Y-17762150D01*
X7687670Y-17781198D02*
X7697193Y-17771674D01*
X7697193Y-17771674D02*
X7716241Y-17762150D01*
X7716241Y-17762150D02*
X7744813Y-17762150D01*
X7744813Y-17762150D02*
X7763860Y-17771674D01*
X7763860Y-17771674D02*
X7773384Y-17790722D01*
X7773384Y-17790722D02*
X7773384Y-17895484D01*
X7773384Y-17790722D02*
X7782908Y-17771674D01*
X7782908Y-17771674D02*
X7801955Y-17762150D01*
X7801955Y-17762150D02*
X7830527Y-17762150D01*
X7830527Y-17762150D02*
X7849574Y-17771674D01*
X7849574Y-17771674D02*
X7859098Y-17790722D01*
X7859098Y-17790722D02*
X7859098Y-17895484D01*
X7954336Y-17895484D02*
X7954336Y-17762150D01*
X7954336Y-17781198D02*
X7963860Y-17771674D01*
X7963860Y-17771674D02*
X7982908Y-17762150D01*
X7982908Y-17762150D02*
X8011479Y-17762150D01*
X8011479Y-17762150D02*
X8030527Y-17771674D01*
X8030527Y-17771674D02*
X8040051Y-17790722D01*
X8040051Y-17790722D02*
X8040051Y-17895484D01*
X8040051Y-17790722D02*
X8049574Y-17771674D01*
X8049574Y-17771674D02*
X8068622Y-17762150D01*
X8068622Y-17762150D02*
X8097193Y-17762150D01*
X8097193Y-17762150D02*
X8116241Y-17771674D01*
X8116241Y-17771674D02*
X8125765Y-17790722D01*
X8125765Y-17790722D02*
X8125765Y-17895484D01*
X8516241Y-17685960D02*
X8344813Y-17943103D01*
X8773384Y-17695484D02*
X8792432Y-17695484D01*
X8792432Y-17695484D02*
X8811479Y-17705008D01*
X8811479Y-17705008D02*
X8821003Y-17714531D01*
X8821003Y-17714531D02*
X8830527Y-17733579D01*
X8830527Y-17733579D02*
X8840051Y-17771674D01*
X8840051Y-17771674D02*
X8840051Y-17819293D01*
X8840051Y-17819293D02*
X8830527Y-17857389D01*
X8830527Y-17857389D02*
X8821003Y-17876436D01*
X8821003Y-17876436D02*
X8811479Y-17885960D01*
X8811479Y-17885960D02*
X8792432Y-17895484D01*
X8792432Y-17895484D02*
X8773384Y-17895484D01*
X8773384Y-17895484D02*
X8754337Y-17885960D01*
X8754337Y-17885960D02*
X8744813Y-17876436D01*
X8744813Y-17876436D02*
X8735289Y-17857389D01*
X8735289Y-17857389D02*
X8725765Y-17819293D01*
X8725765Y-17819293D02*
X8725765Y-17771674D01*
X8725765Y-17771674D02*
X8735289Y-17733579D01*
X8735289Y-17733579D02*
X8744813Y-17714531D01*
X8744813Y-17714531D02*
X8754337Y-17705008D01*
X8754337Y-17705008D02*
X8773384Y-17695484D01*
X8925765Y-17876436D02*
X8935289Y-17885960D01*
X8935289Y-17885960D02*
X8925765Y-17895484D01*
X8925765Y-17895484D02*
X8916241Y-17885960D01*
X8916241Y-17885960D02*
X8925765Y-17876436D01*
X8925765Y-17876436D02*
X8925765Y-17895484D01*
X9059098Y-17695484D02*
X9078146Y-17695484D01*
X9078146Y-17695484D02*
X9097194Y-17705008D01*
X9097194Y-17705008D02*
X9106718Y-17714531D01*
X9106718Y-17714531D02*
X9116241Y-17733579D01*
X9116241Y-17733579D02*
X9125765Y-17771674D01*
X9125765Y-17771674D02*
X9125765Y-17819293D01*
X9125765Y-17819293D02*
X9116241Y-17857389D01*
X9116241Y-17857389D02*
X9106718Y-17876436D01*
X9106718Y-17876436D02*
X9097194Y-17885960D01*
X9097194Y-17885960D02*
X9078146Y-17895484D01*
X9078146Y-17895484D02*
X9059098Y-17895484D01*
X9059098Y-17895484D02*
X9040051Y-17885960D01*
X9040051Y-17885960D02*
X9030527Y-17876436D01*
X9030527Y-17876436D02*
X9021003Y-17857389D01*
X9021003Y-17857389D02*
X9011479Y-17819293D01*
X9011479Y-17819293D02*
X9011479Y-17771674D01*
X9011479Y-17771674D02*
X9021003Y-17733579D01*
X9021003Y-17733579D02*
X9030527Y-17714531D01*
X9030527Y-17714531D02*
X9040051Y-17705008D01*
X9040051Y-17705008D02*
X9059098Y-17695484D01*
X9306718Y-17695484D02*
X9211479Y-17695484D01*
X9211479Y-17695484D02*
X9201956Y-17790722D01*
X9201956Y-17790722D02*
X9211479Y-17781198D01*
X9211479Y-17781198D02*
X9230527Y-17771674D01*
X9230527Y-17771674D02*
X9278146Y-17771674D01*
X9278146Y-17771674D02*
X9297194Y-17781198D01*
X9297194Y-17781198D02*
X9306718Y-17790722D01*
X9306718Y-17790722D02*
X9316241Y-17809770D01*
X9316241Y-17809770D02*
X9316241Y-17857389D01*
X9316241Y-17857389D02*
X9306718Y-17876436D01*
X9306718Y-17876436D02*
X9297194Y-17885960D01*
X9297194Y-17885960D02*
X9278146Y-17895484D01*
X9278146Y-17895484D02*
X9230527Y-17895484D01*
X9230527Y-17895484D02*
X9211479Y-17885960D01*
X9211479Y-17885960D02*
X9201956Y-17876436D01*
X9506718Y-17895484D02*
X9392432Y-17895484D01*
X9449575Y-17895484D02*
X9449575Y-17695484D01*
X9449575Y-17695484D02*
X9430527Y-17724055D01*
X9430527Y-17724055D02*
X9411479Y-17743103D01*
X9411479Y-17743103D02*
X9392432Y-17752627D01*
X9582908Y-17714531D02*
X9592432Y-17705008D01*
X9592432Y-17705008D02*
X9611479Y-17695484D01*
X9611479Y-17695484D02*
X9659099Y-17695484D01*
X9659099Y-17695484D02*
X9678146Y-17705008D01*
X9678146Y-17705008D02*
X9687670Y-17714531D01*
X9687670Y-17714531D02*
X9697194Y-17733579D01*
X9697194Y-17733579D02*
X9697194Y-17752627D01*
X9697194Y-17752627D02*
X9687670Y-17781198D01*
X9687670Y-17781198D02*
X9573384Y-17895484D01*
X9573384Y-17895484D02*
X9697194Y-17895484D01*
X9773384Y-17695484D02*
X9773384Y-17733579D01*
X9849575Y-17695484D02*
X9849575Y-17733579D01*
X10144813Y-17971674D02*
X10135289Y-17962150D01*
X10135289Y-17962150D02*
X10116241Y-17933579D01*
X10116241Y-17933579D02*
X10106718Y-17914531D01*
X10106718Y-17914531D02*
X10097194Y-17885960D01*
X10097194Y-17885960D02*
X10087670Y-17838341D01*
X10087670Y-17838341D02*
X10087670Y-17800246D01*
X10087670Y-17800246D02*
X10097194Y-17752627D01*
X10097194Y-17752627D02*
X10106718Y-17724055D01*
X10106718Y-17724055D02*
X10116241Y-17705008D01*
X10116241Y-17705008D02*
X10135289Y-17676436D01*
X10135289Y-17676436D02*
X10144813Y-17666912D01*
X10249575Y-17781198D02*
X10230527Y-17771674D01*
X10230527Y-17771674D02*
X10221003Y-17762150D01*
X10221003Y-17762150D02*
X10211480Y-17743103D01*
X10211480Y-17743103D02*
X10211480Y-17733579D01*
X10211480Y-17733579D02*
X10221003Y-17714531D01*
X10221003Y-17714531D02*
X10230527Y-17705008D01*
X10230527Y-17705008D02*
X10249575Y-17695484D01*
X10249575Y-17695484D02*
X10287670Y-17695484D01*
X10287670Y-17695484D02*
X10306718Y-17705008D01*
X10306718Y-17705008D02*
X10316241Y-17714531D01*
X10316241Y-17714531D02*
X10325765Y-17733579D01*
X10325765Y-17733579D02*
X10325765Y-17743103D01*
X10325765Y-17743103D02*
X10316241Y-17762150D01*
X10316241Y-17762150D02*
X10306718Y-17771674D01*
X10306718Y-17771674D02*
X10287670Y-17781198D01*
X10287670Y-17781198D02*
X10249575Y-17781198D01*
X10249575Y-17781198D02*
X10230527Y-17790722D01*
X10230527Y-17790722D02*
X10221003Y-17800246D01*
X10221003Y-17800246D02*
X10211480Y-17819293D01*
X10211480Y-17819293D02*
X10211480Y-17857389D01*
X10211480Y-17857389D02*
X10221003Y-17876436D01*
X10221003Y-17876436D02*
X10230527Y-17885960D01*
X10230527Y-17885960D02*
X10249575Y-17895484D01*
X10249575Y-17895484D02*
X10287670Y-17895484D01*
X10287670Y-17895484D02*
X10306718Y-17885960D01*
X10306718Y-17885960D02*
X10316241Y-17876436D01*
X10316241Y-17876436D02*
X10325765Y-17857389D01*
X10325765Y-17857389D02*
X10325765Y-17819293D01*
X10325765Y-17819293D02*
X10316241Y-17800246D01*
X10316241Y-17800246D02*
X10306718Y-17790722D01*
X10306718Y-17790722D02*
X10287670Y-17781198D01*
X10563861Y-17895484D02*
X10563861Y-17695484D01*
X10649575Y-17895484D02*
X10649575Y-17790722D01*
X10649575Y-17790722D02*
X10640051Y-17771674D01*
X10640051Y-17771674D02*
X10621003Y-17762150D01*
X10621003Y-17762150D02*
X10592432Y-17762150D01*
X10592432Y-17762150D02*
X10573384Y-17771674D01*
X10573384Y-17771674D02*
X10563861Y-17781198D01*
X10773384Y-17895484D02*
X10754337Y-17885960D01*
X10754337Y-17885960D02*
X10744813Y-17876436D01*
X10744813Y-17876436D02*
X10735289Y-17857389D01*
X10735289Y-17857389D02*
X10735289Y-17800246D01*
X10735289Y-17800246D02*
X10744813Y-17781198D01*
X10744813Y-17781198D02*
X10754337Y-17771674D01*
X10754337Y-17771674D02*
X10773384Y-17762150D01*
X10773384Y-17762150D02*
X10801956Y-17762150D01*
X10801956Y-17762150D02*
X10821003Y-17771674D01*
X10821003Y-17771674D02*
X10830527Y-17781198D01*
X10830527Y-17781198D02*
X10840051Y-17800246D01*
X10840051Y-17800246D02*
X10840051Y-17857389D01*
X10840051Y-17857389D02*
X10830527Y-17876436D01*
X10830527Y-17876436D02*
X10821003Y-17885960D01*
X10821003Y-17885960D02*
X10801956Y-17895484D01*
X10801956Y-17895484D02*
X10773384Y-17895484D01*
X10954337Y-17895484D02*
X10935289Y-17885960D01*
X10935289Y-17885960D02*
X10925765Y-17866912D01*
X10925765Y-17866912D02*
X10925765Y-17695484D01*
X11106718Y-17885960D02*
X11087670Y-17895484D01*
X11087670Y-17895484D02*
X11049575Y-17895484D01*
X11049575Y-17895484D02*
X11030527Y-17885960D01*
X11030527Y-17885960D02*
X11021003Y-17866912D01*
X11021003Y-17866912D02*
X11021003Y-17790722D01*
X11021003Y-17790722D02*
X11030527Y-17771674D01*
X11030527Y-17771674D02*
X11049575Y-17762150D01*
X11049575Y-17762150D02*
X11087670Y-17762150D01*
X11087670Y-17762150D02*
X11106718Y-17771674D01*
X11106718Y-17771674D02*
X11116242Y-17790722D01*
X11116242Y-17790722D02*
X11116242Y-17809770D01*
X11116242Y-17809770D02*
X11021003Y-17828817D01*
X11192432Y-17885960D02*
X11211480Y-17895484D01*
X11211480Y-17895484D02*
X11249575Y-17895484D01*
X11249575Y-17895484D02*
X11268622Y-17885960D01*
X11268622Y-17885960D02*
X11278146Y-17866912D01*
X11278146Y-17866912D02*
X11278146Y-17857389D01*
X11278146Y-17857389D02*
X11268622Y-17838341D01*
X11268622Y-17838341D02*
X11249575Y-17828817D01*
X11249575Y-17828817D02*
X11221003Y-17828817D01*
X11221003Y-17828817D02*
X11201956Y-17819293D01*
X11201956Y-17819293D02*
X11192432Y-17800246D01*
X11192432Y-17800246D02*
X11192432Y-17790722D01*
X11192432Y-17790722D02*
X11201956Y-17771674D01*
X11201956Y-17771674D02*
X11221003Y-17762150D01*
X11221003Y-17762150D02*
X11249575Y-17762150D01*
X11249575Y-17762150D02*
X11268622Y-17771674D01*
X11344813Y-17971674D02*
X11354337Y-17962150D01*
X11354337Y-17962150D02*
X11373384Y-17933579D01*
X11373384Y-17933579D02*
X11382908Y-17914531D01*
X11382908Y-17914531D02*
X11392432Y-17885960D01*
X11392432Y-17885960D02*
X11401956Y-17838341D01*
X11401956Y-17838341D02*
X11401956Y-17800246D01*
X11401956Y-17800246D02*
X11392432Y-17752627D01*
X11392432Y-17752627D02*
X11382908Y-17724055D01*
X11382908Y-17724055D02*
X11373384Y-17705008D01*
X11373384Y-17705008D02*
X11354337Y-17676436D01*
X11354337Y-17676436D02*
X11344813Y-17666912D01*
M02*
