%TF.GenerationSoftware,KiCad,Pcbnew,8.0.2*%
%TF.CreationDate,2024-05-12T20:24:48-06:00*%
%TF.ProjectId,devBoard,64657642-6f61-4726-942e-6b696361645f,rev?*%
%TF.SameCoordinates,Original*%
%TF.FileFunction,Copper,L1,Top*%
%TF.FilePolarity,Positive*%
%FSLAX46Y46*%
G04 Gerber Fmt 4.6, Leading zero omitted, Abs format (unit mm)*
G04 Created by KiCad (PCBNEW 8.0.2) date 2024-05-12 20:24:48*
%MOMM*%
%LPD*%
G01*
G04 APERTURE LIST*
%TA.AperFunction,ComponentPad*%
%ADD10R,1.700000X1.700000*%
%TD*%
%TA.AperFunction,ComponentPad*%
%ADD11O,1.700000X1.700000*%
%TD*%
%TA.AperFunction,ComponentPad*%
%ADD12R,2.000000X1.905000*%
%TD*%
%TA.AperFunction,ComponentPad*%
%ADD13O,2.000000X1.905000*%
%TD*%
%TA.AperFunction,ComponentPad*%
%ADD14C,2.000000*%
%TD*%
%TA.AperFunction,ComponentPad*%
%ADD15C,1.600000*%
%TD*%
%TA.AperFunction,ComponentPad*%
%ADD16O,1.600000X1.600000*%
%TD*%
%TA.AperFunction,ComponentPad*%
%ADD17R,2.500000X2.500000*%
%TD*%
%TA.AperFunction,ComponentPad*%
%ADD18C,2.500000*%
%TD*%
%TA.AperFunction,ComponentPad*%
%ADD19C,1.800000*%
%TD*%
%TA.AperFunction,ComponentPad*%
%ADD20R,1.800000X1.800000*%
%TD*%
%TA.AperFunction,ComponentPad*%
%ADD21R,2.000000X2.000000*%
%TD*%
%TA.AperFunction,ComponentPad*%
%ADD22O,1.600000X2.000000*%
%TD*%
%TA.AperFunction,ComponentPad*%
%ADD23R,1.600000X2.000000*%
%TD*%
%TA.AperFunction,ViaPad*%
%ADD24C,0.600000*%
%TD*%
%TA.AperFunction,ViaPad*%
%ADD25C,0.900000*%
%TD*%
%TA.AperFunction,ViaPad*%
%ADD26C,0.700000*%
%TD*%
%TA.AperFunction,Conductor*%
%ADD27C,0.400000*%
%TD*%
%TA.AperFunction,Conductor*%
%ADD28C,0.500000*%
%TD*%
%TA.AperFunction,Conductor*%
%ADD29C,1.000000*%
%TD*%
G04 APERTURE END LIST*
D10*
%TO.P,J26,1,Pin_1*%
%TO.N,Net-(J10-Pin_1)*%
X114617500Y-65405000D03*
D11*
%TO.P,J26,2,Pin_2*%
%TO.N,Net-(J10-Pin_2)*%
X112077500Y-65405000D03*
%TD*%
D10*
%TO.P,J25,1,Pin_1*%
%TO.N,12V_Keyed_Raw*%
X68897500Y-128270000D03*
D11*
%TO.P,J25,2,Pin_2*%
%TO.N,12_Power_In*%
X68897500Y-130810000D03*
%TO.P,J25,3,Pin_3*%
%TO.N,Batt*%
X68897500Y-133350000D03*
%TO.P,J25,4,Pin_4*%
%TO.N,GND*%
X68897500Y-135890000D03*
%TD*%
D10*
%TO.P,J20,1,Pin_1*%
%TO.N,GND*%
X188277500Y-34925000D03*
D11*
%TO.P,J20,2,Pin_2*%
%TO.N,+3.3V*%
X190817500Y-34925000D03*
%TO.P,J20,3,Pin_3*%
%TO.N,SPI2_MISO*%
X193357500Y-34925000D03*
%TO.P,J20,4,Pin_4*%
%TO.N,SPI2_MOSI*%
X195897500Y-34925000D03*
%TO.P,J20,5,Pin_5*%
%TO.N,SPI2_SCK*%
X198437500Y-34925000D03*
%TO.P,J20,6,Pin_6*%
%TO.N,SPI2_SD_CS*%
X200977500Y-34925000D03*
%TD*%
D10*
%TO.P,J19,1,Pin_1*%
%TO.N,GND*%
X101282500Y-73025000D03*
D11*
%TO.P,J19,2,Pin_2*%
%TO.N,+5V*%
X98742500Y-73025000D03*
%TO.P,J19,3,Pin_3*%
%TO.N,I2C1_SDA*%
X96202500Y-73025000D03*
%TO.P,J19,4,Pin_4*%
%TO.N,I2C1_SCL*%
X93662500Y-73025000D03*
%TD*%
D10*
%TO.P,J18,1,Pin_1*%
%TO.N,+3.3V*%
X173047500Y-34925000D03*
D11*
%TO.P,J18,2,Pin_2*%
%TO.N,UART1_TX*%
X170507500Y-34925000D03*
%TO.P,J18,3,Pin_3*%
%TO.N,UART1_RX*%
X167967500Y-34925000D03*
%TO.P,J18,4,Pin_4*%
%TO.N,GND*%
X165427500Y-34925000D03*
%TD*%
D10*
%TO.P,J16,1,Pin_1*%
%TO.N,+3.3V*%
X133032500Y-34925000D03*
D11*
%TO.P,J16,2,Pin_2*%
%TO.N,GND*%
X135572500Y-34925000D03*
%TO.P,J16,3,Pin_3*%
%TO.N,I2C1_SCL*%
X138112500Y-34925000D03*
%TO.P,J16,4,Pin_4*%
%TO.N,I2C1_SDA*%
X140652500Y-34925000D03*
%TO.P,J16,5,Pin_5*%
%TO.N,Net-(J16-Pin_5)*%
X143192500Y-34925000D03*
%TO.P,J16,6,Pin_6*%
%TO.N,Net-(J16-Pin_6)*%
X145732500Y-34925000D03*
%TO.P,J16,7,Pin_7*%
%TO.N,Net-(J16-Pin_7)*%
X148272500Y-34925000D03*
%TO.P,J16,8,Pin_8*%
%TO.N,Net-(J16-Pin_8)*%
X150812500Y-34925000D03*
%TD*%
D10*
%TO.P,J14,1,Pin_1*%
%TO.N,+3.3V*%
X113347500Y-34925000D03*
D11*
%TO.P,J14,2,Pin_2*%
%TO.N,GND*%
X115887500Y-34925000D03*
%TO.P,J14,3,Pin_3*%
%TO.N,I2C1_SCL*%
X118427500Y-34925000D03*
%TO.P,J14,4,Pin_4*%
%TO.N,I2C1_SDA*%
X120967500Y-34925000D03*
%TO.P,J14,5,Pin_5*%
%TO.N,Net-(J14-Pin_5)*%
X123507500Y-34925000D03*
%TO.P,J14,6,Pin_6*%
%TO.N,Net-(J14-Pin_6)*%
X126047500Y-34925000D03*
%TD*%
D10*
%TO.P,J17,1,Pin_1*%
%TO.N,+3.3V*%
X86042500Y-34925000D03*
D11*
%TO.P,J17,2,Pin_2*%
%TO.N,GND*%
X83502500Y-34925000D03*
%TO.P,J17,3,Pin_3*%
%TO.N,I2C1_SCL*%
X80962500Y-34925000D03*
%TO.P,J17,4,Pin_4*%
%TO.N,I2C1_SDA*%
X78422500Y-34925000D03*
%TO.P,J17,5,Pin_5*%
%TO.N,Net-(J17-Pin_5)*%
X75882500Y-34925000D03*
%TD*%
D10*
%TO.P,J15,1,Pin_1*%
%TO.N,+3.3V*%
X94297500Y-34925000D03*
D11*
%TO.P,J15,2,Pin_2*%
%TO.N,GND*%
X96837500Y-34925000D03*
%TO.P,J15,3,Pin_3*%
%TO.N,I2C1_SCL*%
X99377500Y-34925000D03*
%TO.P,J15,4,Pin_4*%
%TO.N,I2C1_SDA*%
X101917500Y-34925000D03*
%TO.P,J15,5,Pin_5*%
%TO.N,Net-(J15-Pin_5)*%
X104457500Y-34925000D03*
%TO.P,J15,6,Pin_6*%
%TO.N,Net-(J15-Pin_6)*%
X106997500Y-34925000D03*
%TD*%
D10*
%TO.P,J2,1,Pin_1*%
%TO.N,Spare_DQ_2*%
X178117500Y-120650000D03*
D11*
%TO.P,J2,2,Pin_2*%
%TO.N,Spare_DQ_1*%
X178117500Y-118110000D03*
%TO.P,J2,3,Pin_3*%
%TO.N,I2C1_SCL*%
X175577500Y-120650000D03*
%TO.P,J2,4,Pin_4*%
%TO.N,UART6_TX*%
X175577500Y-118110000D03*
%TO.P,J2,5,Pin_5*%
%TO.N,I2C1_SDA*%
X173037500Y-120650000D03*
%TO.P,J2,6,Pin_6*%
%TO.N,unconnected-(J2-Pin_6-Pad6)*%
X173037500Y-118110000D03*
%TO.P,J2,7,Pin_7*%
%TO.N,unconnected-(J2-Pin_7-Pad7)*%
X170497500Y-120650000D03*
%TO.P,J2,8,Pin_8*%
%TO.N,unconnected-(J2-Pin_8-Pad8)*%
X170497500Y-118110000D03*
%TO.P,J2,9,Pin_9*%
%TO.N,GND*%
X167957500Y-120650000D03*
%TO.P,J2,10,Pin_10*%
%TO.N,unconnected-(J2-Pin_10-Pad10)*%
X167957500Y-118110000D03*
%TO.P,J2,11,Pin_11*%
%TO.N,unconnected-(J2-Pin_11-Pad11)*%
X165417500Y-120650000D03*
%TO.P,J2,12,Pin_12*%
%TO.N,Net-(D2-A)*%
X165417500Y-118110000D03*
%TO.P,J2,13,Pin_13*%
%TO.N,Spare_AI_1*%
X162877500Y-120650000D03*
%TO.P,J2,14,Pin_14*%
%TO.N,Net-(D3-A)*%
X162877500Y-118110000D03*
%TO.P,J2,15,Pin_15*%
%TO.N,Spare_AI_2*%
X160337500Y-120650000D03*
%TO.P,J2,16,Pin_16*%
%TO.N,unconnected-(J2-Pin_16-Pad16)*%
X160337500Y-118110000D03*
%TO.P,J2,17,Pin_17*%
%TO.N,Toggle_Security*%
X157797500Y-120650000D03*
%TO.P,J2,18,Pin_18*%
%TO.N,unconnected-(J2-Pin_18-Pad18)*%
X157797500Y-118110000D03*
%TO.P,J2,19,Pin_19*%
%TO.N,UART6_RX*%
X155257500Y-120650000D03*
%TO.P,J2,20,Pin_20*%
%TO.N,unconnected-(J2-Pin_20-Pad20)*%
X155257500Y-118110000D03*
%TO.P,J2,21,Pin_21*%
%TO.N,UART1_TX*%
X152717500Y-120650000D03*
%TO.P,J2,22,Pin_22*%
%TO.N,unconnected-(J2-Pin_22-Pad22)*%
X152717500Y-118110000D03*
%TO.P,J2,23,Pin_23*%
%TO.N,Net-(D4-A)*%
X150177500Y-120650000D03*
%TO.P,J2,24,Pin_24*%
%TO.N,unconnected-(J2-Pin_24-Pad24)*%
X150177500Y-118110000D03*
%TO.P,J2,25,Pin_25*%
%TO.N,SPI2_SCK*%
X147637500Y-120650000D03*
%TO.P,J2,26,Pin_26*%
%TO.N,unconnected-(J2-Pin_26-Pad26)*%
X147637500Y-118110000D03*
%TO.P,J2,27,Pin_27*%
%TO.N,Net-(BZ1-+)*%
X145097500Y-120650000D03*
%TO.P,J2,28,Pin_28*%
%TO.N,unconnected-(J2-Pin_28-Pad28)*%
X145097500Y-118110000D03*
%TO.P,J2,29,Pin_29*%
%TO.N,Spare_DI_2*%
X142557500Y-120650000D03*
%TO.P,J2,30,Pin_30*%
%TO.N,SPI2_SD_CS*%
X142557500Y-118110000D03*
%TO.P,J2,31,Pin_31*%
%TO.N,unconnected-(J2-Pin_31-Pad31)*%
X140017500Y-120650000D03*
%TO.P,J2,32,Pin_32*%
%TO.N,unconnected-(J2-Pin_32-Pad32)*%
X140017500Y-118110000D03*
%TO.P,J2,33,Pin_33*%
%TO.N,UART1_RX*%
X137477500Y-120650000D03*
%TO.P,J2,34,Pin_34*%
%TO.N,SystemVoltage*%
X137477500Y-118110000D03*
%TO.P,J2,35,Pin_35*%
%TO.N,UART_TX*%
X134937500Y-120650000D03*
%TO.P,J2,36,Pin_36*%
%TO.N,unconnected-(J2-Pin_36-Pad36)*%
X134937500Y-118110000D03*
%TO.P,J2,37,Pin_37*%
%TO.N,UART_RX*%
X132397500Y-120650000D03*
%TO.P,J2,38,Pin_38*%
%TO.N,unconnected-(J2-Pin_38-Pad38)*%
X132397500Y-118110000D03*
%TO.P,J2,39,Pin_39*%
%TO.N,unconnected-(J2-Pin_39-Pad39)*%
X129857500Y-120650000D03*
%TO.P,J2,40,Pin_40*%
%TO.N,unconnected-(J2-Pin_40-Pad40)*%
X129857500Y-118110000D03*
%TD*%
D10*
%TO.P,J1,1,Pin_1*%
%TO.N,Spare_DI_1*%
X178117500Y-59690000D03*
D11*
%TO.P,J1,2,Pin_2*%
%TO.N,Net-(J1-Pin_2)*%
X178117500Y-57150000D03*
%TO.P,J1,3,Pin_3*%
%TO.N,Net-(J1-Pin_3)*%
X175577500Y-59690000D03*
%TO.P,J1,4,Pin_4*%
%TO.N,Net-(J1-Pin_4)*%
X175577500Y-57150000D03*
%TO.P,J1,5,Pin_5*%
%TO.N,unconnected-(J1-Pin_5-Pad5)*%
X173037500Y-59690000D03*
%TO.P,J1,6,Pin_6*%
%TO.N,E5V*%
X173037500Y-57150000D03*
%TO.P,J1,7,Pin_7*%
%TO.N,unconnected-(J1-Pin_7-Pad7)*%
X170497500Y-59690000D03*
%TO.P,J1,8,Pin_8*%
%TO.N,GND*%
X170497500Y-57150000D03*
%TO.P,J1,9,Pin_9*%
%TO.N,unconnected-(J1-Pin_9-Pad9)*%
X167957500Y-59690000D03*
%TO.P,J1,10,Pin_10*%
%TO.N,unconnected-(J1-Pin_10-Pad10)*%
X167957500Y-57150000D03*
%TO.P,J1,11,Pin_11*%
%TO.N,unconnected-(J1-Pin_11-Pad11)*%
X165417500Y-59690000D03*
%TO.P,J1,12,Pin_12*%
%TO.N,unconnected-(J1-Pin_12-Pad12)*%
X165417500Y-57150000D03*
%TO.P,J1,13,Pin_13*%
%TO.N,unconnected-(J1-Pin_13-Pad13)*%
X162877500Y-59690000D03*
%TO.P,J1,14,Pin_14*%
%TO.N,unconnected-(J1-Pin_14-Pad14)*%
X162877500Y-57150000D03*
%TO.P,J1,15,Pin_15*%
%TO.N,unconnected-(J1-Pin_15-Pad15)*%
X160337500Y-59690000D03*
%TO.P,J1,16,Pin_16*%
%TO.N,+3.3V*%
X160337500Y-57150000D03*
%TO.P,J1,17,Pin_17*%
%TO.N,12V_Signal_Keyed*%
X157797500Y-59690000D03*
%TO.P,J1,18,Pin_18*%
%TO.N,+5V*%
X157797500Y-57150000D03*
%TO.P,J1,19,Pin_19*%
%TO.N,unconnected-(J1-Pin_19-Pad19)*%
X155257500Y-59690000D03*
%TO.P,J1,20,Pin_20*%
%TO.N,GND*%
X155257500Y-57150000D03*
%TO.P,J1,21,Pin_21*%
%TO.N,Toggle_Datalogging*%
X152717500Y-59690000D03*
%TO.P,J1,22,Pin_22*%
%TO.N,GND*%
X152717500Y-57150000D03*
%TO.P,J1,23,Pin_23*%
%TO.N,unconnected-(J1-Pin_23-Pad23)*%
X150177500Y-59690000D03*
%TO.P,J1,24,Pin_24*%
%TO.N,unconnected-(J1-Pin_24-Pad24)*%
X150177500Y-57150000D03*
%TO.P,J1,25,Pin_25*%
%TO.N,unconnected-(J1-Pin_25-Pad25)*%
X147637500Y-59690000D03*
%TO.P,J1,26,Pin_26*%
%TO.N,unconnected-(J1-Pin_26-Pad26)*%
X147637500Y-57150000D03*
%TO.P,J1,27,Pin_27*%
%TO.N,unconnected-(J1-Pin_27-Pad27)*%
X145097500Y-59690000D03*
%TO.P,J1,28,Pin_28*%
%TO.N,unconnected-(J1-Pin_28-Pad28)*%
X145097500Y-57150000D03*
%TO.P,J1,29,Pin_29*%
%TO.N,unconnected-(J1-Pin_29-Pad29)*%
X142557500Y-59690000D03*
%TO.P,J1,30,Pin_30*%
%TO.N,unconnected-(J1-Pin_30-Pad30)*%
X142557500Y-57150000D03*
%TO.P,J1,31,Pin_31*%
%TO.N,unconnected-(J1-Pin_31-Pad31)*%
X140017500Y-59690000D03*
%TO.P,J1,32,Pin_32*%
%TO.N,unconnected-(J1-Pin_32-Pad32)*%
X140017500Y-57150000D03*
%TO.P,J1,33,Pin_33*%
%TO.N,VBatt*%
X137477500Y-59690000D03*
%TO.P,J1,34,Pin_34*%
%TO.N,unconnected-(J1-Pin_34-Pad34)*%
X137477500Y-57150000D03*
%TO.P,J1,35,Pin_35*%
%TO.N,SPI2_MISO*%
X134937500Y-59690000D03*
%TO.P,J1,36,Pin_36*%
%TO.N,unconnected-(J1-Pin_36-Pad36)*%
X134937500Y-57150000D03*
%TO.P,J1,37,Pin_37*%
%TO.N,SPI2_MOSI*%
X132397500Y-59690000D03*
%TO.P,J1,38,Pin_38*%
%TO.N,unconnected-(J1-Pin_38-Pad38)*%
X132397500Y-57150000D03*
%TO.P,J1,39,Pin_39*%
%TO.N,unconnected-(J1-Pin_39-Pad39)*%
X129857500Y-59690000D03*
%TO.P,J1,40,Pin_40*%
%TO.N,unconnected-(J1-Pin_40-Pad40)*%
X129857500Y-57150000D03*
%TD*%
D10*
%TO.P,J24,1,Pin_1*%
%TO.N,Net-(J17-Pin_5)*%
X75882500Y-39370000D03*
%TD*%
%TO.P,J23,1,Pin_1*%
%TO.N,Net-(J16-Pin_5)*%
X143177500Y-39580000D03*
D11*
%TO.P,J23,2,Pin_2*%
%TO.N,Net-(J16-Pin_6)*%
X145717500Y-39580000D03*
%TO.P,J23,3,Pin_3*%
%TO.N,Net-(J16-Pin_7)*%
X148257500Y-39580000D03*
%TO.P,J23,4,Pin_4*%
%TO.N,Net-(J16-Pin_8)*%
X150797500Y-39580000D03*
%TD*%
D10*
%TO.P,J22,1,Pin_1*%
%TO.N,Net-(J14-Pin_5)*%
X123507500Y-39370000D03*
D11*
%TO.P,J22,2,Pin_2*%
%TO.N,Net-(J14-Pin_6)*%
X126047500Y-39370000D03*
%TD*%
D10*
%TO.P,J21,1,Pin_1*%
%TO.N,Net-(J15-Pin_5)*%
X104457500Y-39370000D03*
D11*
%TO.P,J21,2,Pin_2*%
%TO.N,Net-(J15-Pin_6)*%
X106997500Y-39370000D03*
%TD*%
D12*
%TO.P,U1,1,IN*%
%TO.N,Net-(J4-Pin_1)*%
X71132500Y-82550000D03*
D13*
%TO.P,U1,2,GND*%
%TO.N,GND*%
X71132500Y-85090000D03*
%TO.P,U1,3,OUT*%
%TO.N,E5V*%
X71132500Y-87630000D03*
%TD*%
D14*
%TO.P,SW3,1,1*%
%TO.N,Net-(J1-Pin_2)*%
X198782500Y-135815000D03*
X198782500Y-142315000D03*
%TO.P,SW3,2,2*%
%TO.N,GND*%
X194282500Y-135815000D03*
X194282500Y-142315000D03*
%TD*%
%TO.P,SW2,1,1*%
%TO.N,GND*%
X185447500Y-135815000D03*
X185447500Y-142315000D03*
%TO.P,SW2,2,2*%
%TO.N,Net-(J1-Pin_3)*%
X180947500Y-135815000D03*
X180947500Y-142315000D03*
%TD*%
%TO.P,SW1,1,1*%
%TO.N,Net-(J1-Pin_4)*%
X172112500Y-135815000D03*
X172112500Y-142315000D03*
%TO.P,SW1,2,2*%
%TO.N,GND*%
X167612500Y-135815000D03*
X167612500Y-142315000D03*
%TD*%
D15*
%TO.P,R12,1*%
%TO.N,GND*%
X98742500Y-91440000D03*
D16*
%TO.P,R12,2*%
%TO.N,Net-(J12-Pin_1)*%
X98742500Y-101600000D03*
%TD*%
D15*
%TO.P,R11,1*%
%TO.N,Net-(J10-Pin_2)*%
X102552500Y-91440000D03*
D16*
%TO.P,R11,2*%
%TO.N,Net-(J12-Pin_1)*%
X102552500Y-101600000D03*
%TD*%
D15*
%TO.P,R10,1*%
%TO.N,GND*%
X111442500Y-91440000D03*
D16*
%TO.P,R10,2*%
%TO.N,Net-(J11-Pin_1)*%
X111442500Y-101600000D03*
%TD*%
%TO.P,R9,2*%
%TO.N,Net-(J11-Pin_1)*%
X115252500Y-101600000D03*
D15*
%TO.P,R9,1*%
%TO.N,Net-(J10-Pin_1)*%
X115252500Y-91440000D03*
%TD*%
%TO.P,R8,1*%
%TO.N,GND*%
X79697500Y-81915000D03*
D16*
%TO.P,R8,2*%
%TO.N,SystemVoltage*%
X79697500Y-92075000D03*
%TD*%
D15*
%TO.P,R7,1*%
%TO.N,12_Power_In*%
X85412500Y-81915000D03*
D16*
%TO.P,R7,2*%
%TO.N,SystemVoltage*%
X85412500Y-92075000D03*
%TD*%
D15*
%TO.P,R6,1*%
%TO.N,GND*%
X131762500Y-130810000D03*
D16*
%TO.P,R6,2*%
%TO.N,Net-(D4-K)*%
X121602500Y-130810000D03*
%TD*%
D15*
%TO.P,R5,1*%
%TO.N,GND*%
X92397500Y-92075000D03*
D16*
%TO.P,R5,2*%
%TO.N,12V_Signal_Keyed*%
X92397500Y-81915000D03*
%TD*%
D15*
%TO.P,R4,1*%
%TO.N,12V_Keyed_Raw*%
X85407500Y-66675000D03*
D16*
%TO.P,R4,2*%
%TO.N,12V_Signal_Keyed*%
X85407500Y-76835000D03*
%TD*%
D15*
%TO.P,R3,1*%
%TO.N,GND*%
X90487500Y-130810000D03*
D16*
%TO.P,R3,2*%
%TO.N,Net-(D1-K)*%
X80327500Y-130810000D03*
%TD*%
D15*
%TO.P,R2,1*%
%TO.N,GND*%
X117792500Y-130810000D03*
D16*
%TO.P,R2,2*%
%TO.N,Net-(D3-K)*%
X107632500Y-130810000D03*
%TD*%
D15*
%TO.P,R1,1*%
%TO.N,GND*%
X103822500Y-130810000D03*
D16*
%TO.P,R1,2*%
%TO.N,Net-(D2-K)*%
X93662500Y-130810000D03*
%TD*%
D11*
%TO.P,J13,3,Pin_3*%
%TO.N,Batt*%
X95567500Y-111745000D03*
%TO.P,J13,2,Pin_2*%
X95567500Y-114285000D03*
D10*
%TO.P,J13,1,Pin_1*%
%TO.N,VBatt*%
X95567500Y-116825000D03*
%TD*%
%TO.P,J12,1,Pin_1*%
%TO.N,Net-(J12-Pin_1)*%
X101917500Y-86360000D03*
D11*
%TO.P,J12,2,Pin_2*%
%TO.N,Spare_AI_2*%
X101917500Y-83820000D03*
%TO.P,J12,3,Pin_3*%
%TO.N,Net-(J10-Pin_2)*%
X101917500Y-81280000D03*
%TD*%
D10*
%TO.P,J11,1,Pin_1*%
%TO.N,Net-(J11-Pin_1)*%
X114617500Y-86360000D03*
D11*
%TO.P,J11,2,Pin_2*%
%TO.N,Spare_AI_1*%
X114617500Y-83820000D03*
%TO.P,J11,3,Pin_3*%
%TO.N,Net-(J10-Pin_1)*%
X114617500Y-81280000D03*
%TD*%
D10*
%TO.P,J10,1,Pin_1*%
%TO.N,Net-(J10-Pin_1)*%
X114622500Y-73025000D03*
D11*
%TO.P,J10,2,Pin_2*%
%TO.N,Net-(J10-Pin_2)*%
X112082500Y-73025000D03*
%TD*%
D10*
%TO.P,J9,1,Pin_1*%
%TO.N,Toggle_Datalogging*%
X141877500Y-138430000D03*
D11*
%TO.P,J9,2,Pin_2*%
%TO.N,GND*%
X144417500Y-138430000D03*
%TD*%
D17*
%TO.P,J8,1,Pin_1*%
%TO.N,GND*%
X145652500Y-145415000D03*
D18*
%TO.P,J8,2,Pin_2*%
%TO.N,Toggle_Datalogging*%
X140652500Y-145415000D03*
%TD*%
D10*
%TO.P,J7,1,Pin_1*%
%TO.N,Toggle_Security*%
X153947500Y-138430000D03*
D11*
%TO.P,J7,2,Pin_2*%
%TO.N,GND*%
X156487500Y-138430000D03*
%TD*%
D17*
%TO.P,J6,1,Pin_1*%
%TO.N,GND*%
X157717500Y-145415000D03*
D18*
%TO.P,J6,2,Pin_2*%
%TO.N,Toggle_Security*%
X152717500Y-145415000D03*
%TD*%
%TO.P,J5,2,Pin_2*%
%TO.N,12V_Keyed_Raw*%
X70467500Y-56555000D03*
D17*
%TO.P,J5,1,Pin_1*%
%TO.N,GND*%
X70467500Y-61555000D03*
%TD*%
D10*
%TO.P,J4,1,Pin_1*%
%TO.N,Net-(J4-Pin_1)*%
X74617500Y-97790000D03*
D11*
%TO.P,J4,2,Pin_2*%
%TO.N,12_Power_In*%
X72077500Y-97790000D03*
%TD*%
D18*
%TO.P,J3,2,Pin_2*%
%TO.N,12_Power_In*%
X70467500Y-69255000D03*
D17*
%TO.P,J3,1,Pin_1*%
%TO.N,GND*%
X70467500Y-74255000D03*
%TD*%
D19*
%TO.P,D4,2,A*%
%TO.N,Net-(D4-A)*%
X127947500Y-140335000D03*
D20*
%TO.P,D4,1,K*%
%TO.N,Net-(D4-K)*%
X125407500Y-140335000D03*
%TD*%
%TO.P,D3,1,K*%
%TO.N,Net-(D3-K)*%
X111437500Y-140335000D03*
D19*
%TO.P,D3,2,A*%
%TO.N,Net-(D3-A)*%
X113977500Y-140335000D03*
%TD*%
D20*
%TO.P,D2,1,K*%
%TO.N,Net-(D2-K)*%
X97467500Y-140335000D03*
D19*
%TO.P,D2,2,A*%
%TO.N,Net-(D2-A)*%
X100007500Y-140335000D03*
%TD*%
%TO.P,D1,2,A*%
%TO.N,E5V*%
X86672500Y-140335000D03*
D20*
%TO.P,D1,1,K*%
%TO.N,Net-(D1-K)*%
X84132500Y-140335000D03*
%TD*%
D14*
%TO.P,BZ1,2,-*%
%TO.N,GND*%
X113347500Y-118735000D03*
D21*
%TO.P,BZ1,1,+*%
%TO.N,Net-(BZ1-+)*%
X113347500Y-111135000D03*
%TD*%
D22*
%TO.P,BT1,2,-*%
%TO.N,GND*%
X69487500Y-113030122D03*
D23*
%TO.P,BT1,1,+*%
%TO.N,Batt*%
X89987500Y-113030122D03*
%TD*%
D24*
%TO.N,Net-(D3-A)*%
X140017500Y-132715000D03*
X143192500Y-132715000D03*
X161607500Y-124460000D03*
%TO.N,SystemVoltage*%
X110807500Y-114300000D03*
X124142500Y-114300000D03*
%TO.N,Spare_AI_2*%
X159067500Y-104140000D03*
X159067500Y-94615000D03*
X151447500Y-88900000D03*
X125412500Y-88900000D03*
%TO.N,Spare_AI_1*%
X161607500Y-104140000D03*
X161607500Y-94615000D03*
X151447500Y-83820000D03*
X125412500Y-83820000D03*
%TO.N,VBatt*%
X137477500Y-65405000D03*
%TO.N,12V_Signal_Keyed*%
X132397500Y-70485000D03*
X141287500Y-70485000D03*
D25*
%TO.N,E5V*%
X94932500Y-53340000D03*
X99377500Y-53340000D03*
X162877500Y-53340000D03*
D24*
%TO.N,Net-(D2-A)*%
X148907500Y-101600000D03*
%TO.N,Toggle_Datalogging*%
X152717500Y-67310000D03*
X152717500Y-75565000D03*
X146367500Y-107950000D03*
X146367500Y-111760000D03*
X141877500Y-128315000D03*
%TO.N,Net-(J1-Pin_4)*%
X181292500Y-64135000D03*
X181292500Y-108585000D03*
X178752500Y-125615000D03*
X178752500Y-128905000D03*
%TO.N,I2C1_SCL*%
X183197500Y-67945000D03*
X169862500Y-49530000D03*
X139382500Y-45085000D03*
X173672500Y-49530000D03*
X118427500Y-45720000D03*
X99377500Y-45720000D03*
X122237500Y-45720000D03*
%TO.N,UART1_RX*%
X151447500Y-126365000D03*
X153352500Y-126365000D03*
X159702500Y-126365000D03*
X185102500Y-106045000D03*
X185102500Y-99060000D03*
X185102500Y-73660000D03*
X185102500Y-66675000D03*
X175577500Y-45720000D03*
%TO.N,UART1_TX*%
X156527500Y-127635000D03*
X159702500Y-127635000D03*
X187007500Y-104140000D03*
X187007500Y-97155000D03*
X187007500Y-73025000D03*
X187007500Y-63500000D03*
X175577500Y-43180000D03*
D26*
%TO.N,SPI2_SCK*%
X153352500Y-105410000D03*
%TD*%
D27*
%TO.N,Net-(D3-A)*%
X143192500Y-132715000D02*
X140017500Y-132715000D01*
X161607500Y-119380000D02*
X161607500Y-124460000D01*
X162877500Y-118110000D02*
X161607500Y-119380000D01*
%TO.N,SystemVoltage*%
X99377500Y-107950000D02*
X85412500Y-93985000D01*
X104457500Y-107950000D02*
X99377500Y-107950000D01*
X85412500Y-93985000D02*
X85412500Y-92075000D01*
X110807500Y-114300000D02*
X104457500Y-107950000D01*
X136207500Y-114300000D02*
X124142500Y-114300000D01*
X137477500Y-118110000D02*
X137477500Y-115570000D01*
X137477500Y-115570000D02*
X136207500Y-114300000D01*
%TO.N,Spare_AI_2*%
X159067500Y-94615000D02*
X159067500Y-104140000D01*
X125412500Y-88900000D02*
X151447500Y-88900000D01*
%TO.N,Spare_AI_1*%
X161607500Y-94615000D02*
X161607500Y-104140000D01*
X125412500Y-83820000D02*
X151447500Y-83820000D01*
D28*
%TO.N,VBatt*%
X137477500Y-59690000D02*
X137477500Y-65405000D01*
%TO.N,12V_Signal_Keyed*%
X92397500Y-80640000D02*
X92397500Y-81915000D01*
X95567500Y-77470000D02*
X92397500Y-80640000D01*
X103187500Y-77470000D02*
X95567500Y-77470000D01*
X106362500Y-74295000D02*
X103187500Y-77470000D01*
X107632500Y-60325000D02*
X106362500Y-61595000D01*
X118427500Y-60325000D02*
X107632500Y-60325000D01*
X119697500Y-61595000D02*
X118427500Y-60325000D01*
X119697500Y-69215000D02*
X119697500Y-61595000D01*
X106362500Y-61595000D02*
X106362500Y-74295000D01*
X120967500Y-70485000D02*
X119697500Y-69215000D01*
X132397500Y-70485000D02*
X120967500Y-70485000D01*
X156527500Y-70485000D02*
X141287500Y-70485000D01*
X157797500Y-59690000D02*
X157797500Y-69215000D01*
X157797500Y-69215000D02*
X156527500Y-70485000D01*
D27*
%TO.N,Toggle_Datalogging*%
X152717500Y-67310000D02*
X152717500Y-59690000D01*
D29*
%TO.N,E5V*%
X99377500Y-53340000D02*
X94932500Y-53340000D01*
X172402500Y-53340000D02*
X162877500Y-53340000D01*
X173037500Y-57150000D02*
X173037500Y-53975000D01*
X173037500Y-53975000D02*
X172402500Y-53340000D01*
D27*
%TO.N,Net-(D2-A)*%
X105727500Y-134615000D02*
X100007500Y-140335000D01*
X110172500Y-123825000D02*
X105727500Y-128270000D01*
X105727500Y-128270000D02*
X105727500Y-134615000D01*
X116522500Y-123825000D02*
X110172500Y-123825000D01*
X121602500Y-118745000D02*
X116522500Y-123825000D01*
X123507500Y-109220000D02*
X121602500Y-111125000D01*
X121602500Y-111125000D02*
X121602500Y-118745000D01*
X148272500Y-101600000D02*
X140652500Y-109220000D01*
X148907500Y-101600000D02*
X148272500Y-101600000D01*
X140652500Y-109220000D02*
X123507500Y-109220000D01*
%TO.N,Toggle_Datalogging*%
X152717500Y-100330000D02*
X152717500Y-75565000D01*
X146367500Y-106680000D02*
X152717500Y-100330000D01*
X146367500Y-107950000D02*
X146367500Y-106680000D01*
X146367500Y-121218478D02*
X146367500Y-111760000D01*
X146367500Y-123190000D02*
X146367500Y-121218478D01*
D28*
X141922500Y-127635000D02*
X146367500Y-123190000D01*
X141922500Y-128270000D02*
X141922500Y-127635000D01*
X141877500Y-128315000D02*
X141922500Y-128270000D01*
%TO.N,Net-(J1-Pin_4)*%
X175577500Y-53975000D02*
X175577500Y-57150000D01*
X176212500Y-53340000D02*
X175577500Y-53975000D01*
X180022500Y-53340000D02*
X176212500Y-53340000D01*
X181292500Y-54610000D02*
X180022500Y-53340000D01*
X181292500Y-64135000D02*
X181292500Y-54610000D01*
X181292500Y-123190000D02*
X181292500Y-108585000D01*
X178867500Y-125615000D02*
X181292500Y-123190000D01*
X178752500Y-125615000D02*
X178867500Y-125615000D01*
X178752500Y-129175000D02*
X178752500Y-128905000D01*
X172112500Y-135815000D02*
X178752500Y-129175000D01*
%TO.N,I2C1_SCL*%
X183197500Y-57150000D02*
X183197500Y-67945000D01*
X183197500Y-53340000D02*
X183197500Y-57150000D01*
X179387500Y-49530000D02*
X183197500Y-53340000D01*
X173672500Y-49530000D02*
X179387500Y-49530000D01*
X146367500Y-49530000D02*
X147637500Y-49530000D01*
X141922500Y-45085000D02*
X146367500Y-49530000D01*
X139382500Y-45085000D02*
X141922500Y-45085000D01*
X147637500Y-49530000D02*
X169862500Y-49530000D01*
X93662500Y-73025000D02*
X93662500Y-45720000D01*
X93662500Y-45720000D02*
X82232500Y-45720000D01*
X122237500Y-45720000D02*
X93662500Y-45720000D01*
X80962500Y-44450000D02*
X80962500Y-34925000D01*
X82232500Y-45720000D02*
X80962500Y-44450000D01*
%TO.N,UART1_RX*%
X153352500Y-126365000D02*
X151447500Y-126365000D01*
X181927500Y-126365000D02*
X159702500Y-126365000D01*
X185102500Y-123190000D02*
X181927500Y-126365000D01*
X185102500Y-106045000D02*
X185102500Y-123190000D01*
X185102500Y-73660000D02*
X185102500Y-99060000D01*
X185102500Y-47625000D02*
X185102500Y-66675000D01*
X183832500Y-46355000D02*
X185102500Y-47625000D01*
X176212500Y-46355000D02*
X183832500Y-46355000D01*
X175577500Y-45720000D02*
X176212500Y-46355000D01*
%TO.N,UART1_TX*%
X152717500Y-123825000D02*
X152717500Y-120650000D01*
X156527500Y-127635000D02*
X152717500Y-123825000D01*
X182562500Y-127635000D02*
X159702500Y-127635000D01*
X187007500Y-123190000D02*
X182562500Y-127635000D01*
X187007500Y-117475000D02*
X187007500Y-123190000D01*
X187007500Y-104140000D02*
X187007500Y-117475000D01*
X187007500Y-73025000D02*
X187007500Y-97155000D01*
X178117500Y-43815000D02*
X183832500Y-43815000D01*
X187007500Y-46990000D02*
X187007500Y-63500000D01*
X176212500Y-43815000D02*
X178117500Y-43815000D01*
X183832500Y-43815000D02*
X187007500Y-46990000D01*
X175577500Y-43180000D02*
X176212500Y-43815000D01*
%TO.N,SPI2_MISO*%
X134937500Y-66675000D02*
X134937500Y-59690000D01*
X140017500Y-71755000D02*
X134937500Y-66675000D01*
X181927500Y-71755000D02*
X140017500Y-71755000D01*
X189547500Y-64135000D02*
X181927500Y-71755000D01*
X189547500Y-48895000D02*
X189547500Y-64135000D01*
X193357500Y-45085000D02*
X189547500Y-48895000D01*
X193357500Y-34925000D02*
X193357500Y-45085000D01*
%TO.N,SPI2_MOSI*%
X137477500Y-73660000D02*
X132397500Y-68580000D01*
X132397500Y-68580000D02*
X132397500Y-59690000D01*
X183197500Y-73660000D02*
X137477500Y-73660000D01*
X192087500Y-48895000D02*
X192087500Y-64770000D01*
X192087500Y-64770000D02*
X183197500Y-73660000D01*
X195897500Y-34925000D02*
X195897500Y-45085000D01*
X195897500Y-45085000D02*
X192087500Y-48895000D01*
%TO.N,SPI2_SCK*%
X174307500Y-105410000D02*
X153352500Y-105410000D01*
X180657500Y-105410000D02*
X174307500Y-105410000D01*
X193992500Y-92075000D02*
X180657500Y-105410000D01*
X193992500Y-91440000D02*
X193992500Y-92075000D01*
X193992500Y-53975000D02*
X193992500Y-91440000D01*
X193992500Y-49530000D02*
X193992500Y-53975000D01*
X197802500Y-45720000D02*
X193992500Y-49530000D01*
X198437500Y-45085000D02*
X197802500Y-45720000D01*
X198437500Y-34925000D02*
X198437500Y-45085000D01*
%TO.N,SPI2_SD_CS*%
X148907500Y-107315000D02*
X142557500Y-113665000D01*
X142557500Y-113665000D02*
X142557500Y-118110000D01*
X195897500Y-92710000D02*
X181292500Y-107315000D01*
X195897500Y-50800000D02*
X195897500Y-92710000D01*
X181292500Y-107315000D02*
X148907500Y-107315000D01*
X200977500Y-45720000D02*
X195897500Y-50800000D01*
X200977500Y-34925000D02*
X200977500Y-45720000D01*
%TO.N,Net-(J16-Pin_5)*%
X143192500Y-39565000D02*
X143177500Y-39580000D01*
X143192500Y-34925000D02*
X143192500Y-39565000D01*
%TO.N,Net-(J16-Pin_8)*%
X150797500Y-34940000D02*
X150812500Y-34925000D01*
X150797500Y-39580000D02*
X150797500Y-34940000D01*
%TO.N,Net-(J16-Pin_7)*%
X148272500Y-39565000D02*
X148257500Y-39580000D01*
X148272500Y-34925000D02*
X148272500Y-39565000D01*
%TO.N,Net-(J16-Pin_6)*%
X145717500Y-34940000D02*
X145732500Y-34925000D01*
X145717500Y-39580000D02*
X145717500Y-34940000D01*
%TO.N,Net-(J14-Pin_6)*%
X126047500Y-34925000D02*
X126047500Y-39370000D01*
%TO.N,Net-(J14-Pin_5)*%
X123507500Y-39370000D02*
X123507500Y-34925000D01*
%TO.N,Net-(J15-Pin_6)*%
X106997500Y-34925000D02*
X106997500Y-39370000D01*
%TO.N,Net-(J15-Pin_5)*%
X104457500Y-39370000D02*
X104457500Y-34925000D01*
%TO.N,Net-(J17-Pin_5)*%
X75882500Y-39370000D02*
X75882500Y-34925000D01*
%TO.N,Toggle_Security*%
X157797500Y-132080000D02*
X157797500Y-120650000D01*
X153947500Y-135930000D02*
X157797500Y-132080000D01*
X153947500Y-138430000D02*
X153947500Y-135930000D01*
%TO.N,Net-(D4-A)*%
X147637500Y-130810000D02*
X150177500Y-128270000D01*
X130492500Y-140335000D02*
X140017500Y-130810000D01*
X140017500Y-130810000D02*
X147637500Y-130810000D01*
X127947500Y-140335000D02*
X130492500Y-140335000D01*
X150177500Y-128270000D02*
X150177500Y-120650000D01*
%TO.N,Net-(J1-Pin_2)*%
X198782500Y-135815000D02*
X198782500Y-142315000D01*
%TO.N,Net-(J1-Pin_3)*%
X180947500Y-135815000D02*
X180947500Y-142315000D01*
%TO.N,Net-(J1-Pin_4)*%
X172112500Y-135815000D02*
X172112500Y-142315000D01*
%TO.N,Toggle_Security*%
X153947500Y-144185000D02*
X152717500Y-145415000D01*
X153947500Y-138430000D02*
X153947500Y-144185000D01*
%TO.N,Toggle_Datalogging*%
X141877500Y-138430000D02*
X141877500Y-144190000D01*
X141877500Y-144190000D02*
X140652500Y-145415000D01*
%TO.N,Net-(J10-Pin_1)*%
X115252500Y-81280000D02*
X116522500Y-82550000D01*
X114617500Y-81280000D02*
X115252500Y-81280000D01*
X115252500Y-91440000D02*
X116522500Y-90170000D01*
X116522500Y-90170000D02*
X116522500Y-82550000D01*
%TO.N,Net-(J11-Pin_1)*%
X113347500Y-99695000D02*
X111442500Y-101600000D01*
X113347500Y-87630000D02*
X113347500Y-99695000D01*
X113347500Y-99695000D02*
X115252500Y-101600000D01*
X114617500Y-86360000D02*
X113347500Y-87630000D01*
%TO.N,Net-(J12-Pin_1)*%
X100647500Y-99695000D02*
X98742500Y-101600000D01*
X100647500Y-99695000D02*
X102552500Y-101600000D01*
X100647500Y-87630000D02*
X100647500Y-99695000D01*
X101917500Y-86360000D02*
X100647500Y-87630000D01*
%TO.N,Net-(J10-Pin_2)*%
X103827500Y-90165000D02*
X102552500Y-91440000D01*
X103827500Y-81280000D02*
X103827500Y-90165000D01*
X103827500Y-81280000D02*
X101917500Y-81280000D01*
X112082500Y-73025000D02*
X103827500Y-81280000D01*
X112082500Y-66045000D02*
X112082500Y-73025000D01*
X112077500Y-66040000D02*
X112082500Y-66045000D01*
X112077500Y-65405000D02*
X112077500Y-66040000D01*
%TO.N,Net-(J10-Pin_1)*%
X114617500Y-73030000D02*
X114622500Y-73025000D01*
X114617500Y-81280000D02*
X114617500Y-73030000D01*
X114622500Y-66045000D02*
X114622500Y-73025000D01*
X114617500Y-66040000D02*
X114622500Y-66045000D01*
X114617500Y-65405000D02*
X114617500Y-66040000D01*
D29*
%TO.N,12V_Signal_Keyed*%
X90487500Y-81915000D02*
X85407500Y-76835000D01*
X92397500Y-81915000D02*
X90487500Y-81915000D01*
%TO.N,SystemVoltage*%
X85412500Y-92075000D02*
X79697500Y-92075000D01*
%TO.N,Batt*%
X95567500Y-111745000D02*
X95567500Y-114285000D01*
D28*
X89987500Y-113030122D02*
X69667622Y-133350000D01*
X69667622Y-133350000D02*
X68897500Y-133350000D01*
X91242378Y-114285000D02*
X89987500Y-113030122D01*
X95567500Y-114285000D02*
X91242378Y-114285000D01*
D29*
%TO.N,12_Power_In*%
X72077500Y-129535000D02*
X72077500Y-97790000D01*
X70802500Y-130810000D02*
X72077500Y-129535000D01*
X68897500Y-130810000D02*
X70802500Y-130810000D01*
D28*
%TO.N,Net-(D4-K)*%
X121602500Y-138430000D02*
X121602500Y-130810000D01*
X123507500Y-140335000D02*
X121602500Y-138430000D01*
X125407500Y-140335000D02*
X123507500Y-140335000D01*
%TO.N,Net-(D3-K)*%
X107632500Y-138430000D02*
X107632500Y-130810000D01*
X109537500Y-140335000D02*
X107632500Y-138430000D01*
X111437500Y-140335000D02*
X109537500Y-140335000D01*
%TO.N,Net-(D2-K)*%
X93662500Y-138430000D02*
X93662500Y-130810000D01*
X95567500Y-140335000D02*
X93662500Y-138430000D01*
X97467500Y-140335000D02*
X95567500Y-140335000D01*
%TO.N,Net-(D1-K)*%
X80327500Y-138430000D02*
X80327500Y-130810000D01*
X82232500Y-140335000D02*
X80327500Y-138430000D01*
X84132500Y-140335000D02*
X82232500Y-140335000D01*
D29*
%TO.N,Net-(J4-Pin_1)*%
X74617500Y-83825000D02*
X74617500Y-97790000D01*
X73342500Y-82550000D02*
X74617500Y-83825000D01*
X71132500Y-82550000D02*
X73342500Y-82550000D01*
%TO.N,12_Power_In*%
X67627500Y-70485000D02*
X68857500Y-69255000D01*
X67627500Y-95885000D02*
X67627500Y-70485000D01*
X68857500Y-69255000D02*
X70467500Y-69255000D01*
X69532500Y-97790000D02*
X67627500Y-95885000D01*
X72077500Y-97790000D02*
X69532500Y-97790000D01*
X73342500Y-69850000D02*
X72747500Y-69255000D01*
X73347500Y-69850000D02*
X73342500Y-69850000D01*
X85412500Y-81915000D02*
X73347500Y-69850000D01*
X72747500Y-69255000D02*
X70467500Y-69255000D01*
%TO.N,12V_Keyed_Raw*%
X75287500Y-56555000D02*
X85407500Y-66675000D01*
X70467500Y-56555000D02*
X75287500Y-56555000D01*
D28*
%TO.N,+5V*%
X156527500Y-52070000D02*
X157797500Y-53340000D01*
X157797500Y-53340000D02*
X157797500Y-57150000D01*
X98742500Y-57150000D02*
X103822500Y-52070000D01*
X98742500Y-73025000D02*
X98742500Y-57150000D01*
X103822500Y-52070000D02*
X156527500Y-52070000D01*
%TO.N,+3.3V*%
X160337500Y-57150000D02*
X160337500Y-50800000D01*
X160337500Y-50800000D02*
X170497500Y-50800000D01*
X140017500Y-50800000D02*
X160337500Y-50800000D01*
X173037500Y-46990000D02*
X173047500Y-46980000D01*
X173037500Y-48260000D02*
X173037500Y-46990000D01*
X170497500Y-50800000D02*
X173037500Y-48260000D01*
X173047500Y-46980000D02*
X173047500Y-41265000D01*
X133032500Y-43815000D02*
X140017500Y-50800000D01*
X94297500Y-41275000D02*
X94297500Y-43815000D01*
X94297500Y-43815000D02*
X88582500Y-43815000D01*
X96837500Y-43815000D02*
X94297500Y-43815000D01*
X86042500Y-41275000D02*
X86042500Y-34925000D01*
X88582500Y-43815000D02*
X86042500Y-41275000D01*
X113347500Y-43815000D02*
X96837500Y-43815000D01*
X115887500Y-43815000D02*
X113347500Y-43815000D01*
X113347500Y-41275000D02*
X113347500Y-43815000D01*
X94297500Y-41275000D02*
X94297500Y-34925000D01*
X113347500Y-41275000D02*
X113347500Y-34925000D01*
X133032500Y-43815000D02*
X115887500Y-43815000D01*
X133032500Y-43815000D02*
X133032500Y-34925000D01*
X173037500Y-41275000D02*
X175577500Y-41275000D01*
X173047500Y-41265000D02*
X173037500Y-41275000D01*
X173047500Y-38745000D02*
X173047500Y-41265000D01*
X188277500Y-41275000D02*
X175577500Y-41275000D01*
X190817500Y-38735000D02*
X188277500Y-41275000D01*
X173047500Y-38745000D02*
X173047500Y-34925000D01*
X190817500Y-34925000D02*
X190817500Y-38735000D01*
%TD*%
M02*
