M48
; DRILL file {KiCad 8.0.2} date 2024-05-12T20:24:51-0600
; FORMAT={-:-/ absolute / metric / decimal}
; #@! TF.CreationDate,2024-05-12T20:24:51-06:00
; #@! TF.GenerationSoftware,Kicad,Pcbnew,8.0.2
; #@! TF.FileFunction,Plated,1,2,PTH
FMAT,2
METRIC
; #@! TA.AperFunction,Plated,PTH,ViaDrill
T1C0.300
; #@! TA.AperFunction,Plated,PTH,ViaDrill
T2C0.400
; #@! TA.AperFunction,Plated,PTH,ViaDrill
T3C0.600
; #@! TA.AperFunction,Plated,PTH,ComponentDrill
T4C0.800
; #@! TA.AperFunction,Plated,PTH,ComponentDrill
T5C0.850
; #@! TA.AperFunction,Plated,PTH,ComponentDrill
T6C0.900
; #@! TA.AperFunction,Plated,PTH,ComponentDrill
T7C1.000
; #@! TA.AperFunction,Plated,PTH,ComponentDrill
T8C1.100
; #@! TA.AperFunction,Plated,PTH,ComponentDrill
T9C1.300
%
G90
G05
T1
X99.377Y-45.72
X110.807Y-114.3
X118.427Y-45.72
X122.237Y-45.72
X124.142Y-114.3
X125.412Y-83.82
X125.412Y-88.9
X132.398Y-70.485
X137.477Y-65.405
X139.382Y-45.085
X140.017Y-132.715
X141.287Y-70.485
X141.877Y-128.315
X143.192Y-132.715
X146.368Y-107.95
X146.368Y-111.76
X148.907Y-101.6
X151.447Y-83.82
X151.447Y-88.9
X151.447Y-126.365
X152.718Y-67.31
X152.718Y-75.565
X153.352Y-126.365
X156.528Y-127.635
X159.067Y-94.615
X159.067Y-104.14
X159.702Y-126.365
X159.702Y-127.635
X161.607Y-94.615
X161.607Y-104.14
X161.607Y-124.46
X169.862Y-49.53
X173.672Y-49.53
X175.577Y-43.18
X175.577Y-45.72
X178.752Y-125.615
X178.752Y-128.905
X181.292Y-64.135
X181.292Y-108.585
X183.197Y-67.945
X185.102Y-66.675
X185.102Y-73.66
X185.102Y-99.06
X185.102Y-106.045
X187.007Y-63.5
X187.007Y-73.025
X187.007Y-97.155
X187.007Y-104.14
T2
X153.352Y-105.41
T3
X94.932Y-53.34
X99.377Y-53.34
X162.877Y-53.34
T4
X79.697Y-81.915
X79.697Y-92.075
X80.328Y-130.81
X85.407Y-66.675
X85.407Y-76.835
X85.412Y-81.915
X85.412Y-92.075
X90.487Y-130.81
X92.397Y-81.915
X92.397Y-92.075
X93.662Y-130.81
X98.742Y-91.44
X98.742Y-101.6
X102.552Y-91.44
X102.552Y-101.6
X103.822Y-130.81
X107.632Y-130.81
X111.442Y-91.44
X111.442Y-101.6
X115.252Y-91.44
X115.252Y-101.6
X117.792Y-130.81
X121.602Y-130.81
X131.762Y-130.81
T5
X69.487Y-113.03
X89.987Y-113.03
T6
X84.132Y-140.335
X86.672Y-140.335
X97.468Y-140.335
X100.007Y-140.335
X111.438Y-140.335
X113.977Y-140.335
X125.407Y-140.335
X127.947Y-140.335
T7
X68.897Y-128.27
X68.897Y-130.81
X68.897Y-133.35
X68.897Y-135.89
X72.078Y-97.79
X74.617Y-97.79
X75.882Y-34.925
X75.882Y-39.37
X78.422Y-34.925
X80.962Y-34.925
X83.502Y-34.925
X86.042Y-34.925
X93.662Y-73.025
X94.297Y-34.925
X95.567Y-111.745
X95.567Y-114.285
X95.567Y-116.825
X96.203Y-73.025
X96.837Y-34.925
X98.742Y-73.025
X99.377Y-34.925
X101.282Y-73.025
X101.917Y-34.925
X101.917Y-81.28
X101.917Y-83.82
X101.917Y-86.36
X104.457Y-34.925
X104.457Y-39.37
X106.997Y-34.925
X106.997Y-39.37
X112.078Y-65.405
X112.082Y-73.025
X113.347Y-34.925
X113.347Y-111.135
X113.347Y-118.735
X114.617Y-65.405
X114.617Y-81.28
X114.617Y-83.82
X114.617Y-86.36
X114.622Y-73.025
X115.887Y-34.925
X118.427Y-34.925
X120.968Y-34.925
X123.507Y-34.925
X123.507Y-39.37
X126.047Y-34.925
X126.047Y-39.37
X129.857Y-57.15
X129.857Y-59.69
X129.857Y-118.11
X129.857Y-120.65
X132.398Y-57.15
X132.398Y-59.69
X132.398Y-118.11
X132.398Y-120.65
X133.032Y-34.925
X134.938Y-57.15
X134.938Y-59.69
X134.938Y-118.11
X134.938Y-120.65
X135.572Y-34.925
X137.477Y-57.15
X137.477Y-59.69
X137.477Y-118.11
X137.477Y-120.65
X138.112Y-34.925
X140.017Y-57.15
X140.017Y-59.69
X140.017Y-118.11
X140.017Y-120.65
X140.653Y-34.925
X141.877Y-138.43
X142.558Y-57.15
X142.558Y-59.69
X142.558Y-118.11
X142.558Y-120.65
X143.177Y-39.58
X143.192Y-34.925
X144.417Y-138.43
X145.097Y-57.15
X145.097Y-59.69
X145.097Y-118.11
X145.097Y-120.65
X145.718Y-39.58
X145.732Y-34.925
X147.637Y-57.15
X147.637Y-59.69
X147.637Y-118.11
X147.637Y-120.65
X148.257Y-39.58
X148.272Y-34.925
X150.177Y-57.15
X150.177Y-59.69
X150.177Y-118.11
X150.177Y-120.65
X150.797Y-39.58
X150.812Y-34.925
X152.718Y-57.15
X152.718Y-59.69
X152.718Y-118.11
X152.718Y-120.65
X153.947Y-138.43
X155.257Y-57.15
X155.257Y-59.69
X155.257Y-118.11
X155.257Y-120.65
X156.487Y-138.43
X157.797Y-57.15
X157.797Y-59.69
X157.797Y-118.11
X157.797Y-120.65
X160.338Y-57.15
X160.338Y-59.69
X160.338Y-118.11
X160.338Y-120.65
X162.877Y-57.15
X162.877Y-59.69
X162.877Y-118.11
X162.877Y-120.65
X165.417Y-57.15
X165.417Y-59.69
X165.417Y-118.11
X165.417Y-120.65
X165.427Y-34.925
X167.957Y-57.15
X167.957Y-59.69
X167.957Y-118.11
X167.957Y-120.65
X167.968Y-34.925
X170.498Y-57.15
X170.498Y-59.69
X170.498Y-118.11
X170.498Y-120.65
X170.507Y-34.925
X173.037Y-57.15
X173.037Y-59.69
X173.037Y-118.11
X173.037Y-120.65
X173.047Y-34.925
X175.577Y-57.15
X175.577Y-59.69
X175.577Y-118.11
X175.577Y-120.65
X178.117Y-57.15
X178.117Y-59.69
X178.117Y-118.11
X178.117Y-120.65
X188.278Y-34.925
X190.817Y-34.925
X193.357Y-34.925
X195.897Y-34.925
X198.438Y-34.925
X200.977Y-34.925
T8
X71.132Y-82.55
X71.132Y-85.09
X71.132Y-87.63
X167.612Y-135.815
X167.612Y-142.315
X172.112Y-135.815
X172.112Y-142.315
X180.947Y-135.815
X180.947Y-142.315
X185.447Y-135.815
X185.447Y-142.315
X194.282Y-135.815
X194.282Y-142.315
X198.782Y-135.815
X198.782Y-142.315
T9
X70.468Y-56.555
X70.468Y-61.555
X70.468Y-69.255
X70.468Y-74.255
X140.653Y-145.415
X145.653Y-145.415
X152.718Y-145.415
X157.718Y-145.415
M30
