%TF.GenerationSoftware,KiCad,Pcbnew,8.0.2*%
%TF.CreationDate,2024-05-12T20:19:38-06:00*%
%TF.ProjectId,devBoard,64657642-6f61-4726-942e-6b696361645f,rev?*%
%TF.SameCoordinates,Original*%
%TF.FileFunction,Soldermask,Top*%
%TF.FilePolarity,Negative*%
%FSLAX46Y46*%
G04 Gerber Fmt 4.6, Leading zero omitted, Abs format (unit mm)*
G04 Created by KiCad (PCBNEW 8.0.2) date 2024-05-12 20:19:38*
%MOMM*%
%LPD*%
G01*
G04 APERTURE LIST*
%ADD10R,1.700000X1.700000*%
%ADD11O,1.700000X1.700000*%
%ADD12R,2.000000X1.905000*%
%ADD13O,2.000000X1.905000*%
%ADD14C,2.000000*%
%ADD15C,1.600000*%
%ADD16O,1.600000X1.600000*%
%ADD17R,2.500000X2.500000*%
%ADD18C,2.500000*%
%ADD19C,1.800000*%
%ADD20R,1.800000X1.800000*%
%ADD21R,2.000000X2.000000*%
%ADD22O,1.600000X2.000000*%
%ADD23R,1.600000X2.000000*%
G04 APERTURE END LIST*
D10*
%TO.C,J26*%
X114617500Y-65405000D03*
D11*
X112077500Y-65405000D03*
%TD*%
D10*
%TO.C,J25*%
X68897500Y-128270000D03*
D11*
X68897500Y-130810000D03*
X68897500Y-133350000D03*
X68897500Y-135890000D03*
%TD*%
D10*
%TO.C,J20*%
X188277500Y-34925000D03*
D11*
X190817500Y-34925000D03*
X193357500Y-34925000D03*
X195897500Y-34925000D03*
X198437500Y-34925000D03*
X200977500Y-34925000D03*
%TD*%
D10*
%TO.C,J19*%
X101282500Y-73025000D03*
D11*
X98742500Y-73025000D03*
X96202500Y-73025000D03*
X93662500Y-73025000D03*
%TD*%
D10*
%TO.C,J18*%
X173047500Y-34925000D03*
D11*
X170507500Y-34925000D03*
X167967500Y-34925000D03*
X165427500Y-34925000D03*
%TD*%
D10*
%TO.C,J16*%
X133032500Y-34925000D03*
D11*
X135572500Y-34925000D03*
X138112500Y-34925000D03*
X140652500Y-34925000D03*
X143192500Y-34925000D03*
X145732500Y-34925000D03*
X148272500Y-34925000D03*
X150812500Y-34925000D03*
%TD*%
D10*
%TO.C,J14*%
X113347500Y-34925000D03*
D11*
X115887500Y-34925000D03*
X118427500Y-34925000D03*
X120967500Y-34925000D03*
X123507500Y-34925000D03*
X126047500Y-34925000D03*
%TD*%
D10*
%TO.C,J17*%
X86042500Y-34925000D03*
D11*
X83502500Y-34925000D03*
X80962500Y-34925000D03*
X78422500Y-34925000D03*
X75882500Y-34925000D03*
%TD*%
D10*
%TO.C,J15*%
X94297500Y-34925000D03*
D11*
X96837500Y-34925000D03*
X99377500Y-34925000D03*
X101917500Y-34925000D03*
X104457500Y-34925000D03*
X106997500Y-34925000D03*
%TD*%
D10*
%TO.C,J2*%
X178117500Y-120650000D03*
D11*
X178117500Y-118110000D03*
X175577500Y-120650000D03*
X175577500Y-118110000D03*
X173037500Y-120650000D03*
X173037500Y-118110000D03*
X170497500Y-120650000D03*
X170497500Y-118110000D03*
X167957500Y-120650000D03*
X167957500Y-118110000D03*
X165417500Y-120650000D03*
X165417500Y-118110000D03*
X162877500Y-120650000D03*
X162877500Y-118110000D03*
X160337500Y-120650000D03*
X160337500Y-118110000D03*
X157797500Y-120650000D03*
X157797500Y-118110000D03*
X155257500Y-120650000D03*
X155257500Y-118110000D03*
X152717500Y-120650000D03*
X152717500Y-118110000D03*
X150177500Y-120650000D03*
X150177500Y-118110000D03*
X147637500Y-120650000D03*
X147637500Y-118110000D03*
X145097500Y-120650000D03*
X145097500Y-118110000D03*
X142557500Y-120650000D03*
X142557500Y-118110000D03*
X140017500Y-120650000D03*
X140017500Y-118110000D03*
X137477500Y-120650000D03*
X137477500Y-118110000D03*
X134937500Y-120650000D03*
X134937500Y-118110000D03*
X132397500Y-120650000D03*
X132397500Y-118110000D03*
X129857500Y-120650000D03*
X129857500Y-118110000D03*
%TD*%
D10*
%TO.C,J1*%
X178117500Y-59690000D03*
D11*
X178117500Y-57150000D03*
X175577500Y-59690000D03*
X175577500Y-57150000D03*
X173037500Y-59690000D03*
X173037500Y-57150000D03*
X170497500Y-59690000D03*
X170497500Y-57150000D03*
X167957500Y-59690000D03*
X167957500Y-57150000D03*
X165417500Y-59690000D03*
X165417500Y-57150000D03*
X162877500Y-59690000D03*
X162877500Y-57150000D03*
X160337500Y-59690000D03*
X160337500Y-57150000D03*
X157797500Y-59690000D03*
X157797500Y-57150000D03*
X155257500Y-59690000D03*
X155257500Y-57150000D03*
X152717500Y-59690000D03*
X152717500Y-57150000D03*
X150177500Y-59690000D03*
X150177500Y-57150000D03*
X147637500Y-59690000D03*
X147637500Y-57150000D03*
X145097500Y-59690000D03*
X145097500Y-57150000D03*
X142557500Y-59690000D03*
X142557500Y-57150000D03*
X140017500Y-59690000D03*
X140017500Y-57150000D03*
X137477500Y-59690000D03*
X137477500Y-57150000D03*
X134937500Y-59690000D03*
X134937500Y-57150000D03*
X132397500Y-59690000D03*
X132397500Y-57150000D03*
X129857500Y-59690000D03*
X129857500Y-57150000D03*
%TD*%
D10*
%TO.C,J24*%
X75882500Y-39370000D03*
%TD*%
%TO.C,J23*%
X143177500Y-39580000D03*
D11*
X145717500Y-39580000D03*
X148257500Y-39580000D03*
X150797500Y-39580000D03*
%TD*%
D10*
%TO.C,J22*%
X123507500Y-39370000D03*
D11*
X126047500Y-39370000D03*
%TD*%
D10*
%TO.C,J21*%
X104457500Y-39370000D03*
D11*
X106997500Y-39370000D03*
%TD*%
D12*
%TO.C,U1*%
X71132500Y-82550000D03*
D13*
X71132500Y-85090000D03*
X71132500Y-87630000D03*
%TD*%
D14*
%TO.C,SW3*%
X198782500Y-135815000D03*
X198782500Y-142315000D03*
X194282500Y-135815000D03*
X194282500Y-142315000D03*
%TD*%
%TO.C,SW2*%
X185447500Y-135815000D03*
X185447500Y-142315000D03*
X180947500Y-135815000D03*
X180947500Y-142315000D03*
%TD*%
%TO.C,SW1*%
X172112500Y-135815000D03*
X172112500Y-142315000D03*
X167612500Y-135815000D03*
X167612500Y-142315000D03*
%TD*%
D15*
%TO.C,R12*%
X98742500Y-91440000D03*
D16*
X98742500Y-101600000D03*
%TD*%
D15*
%TO.C,R11*%
X102552500Y-91440000D03*
D16*
X102552500Y-101600000D03*
%TD*%
D15*
%TO.C,R10*%
X111442500Y-91440000D03*
D16*
X111442500Y-101600000D03*
%TD*%
%TO.C,R9*%
X115252500Y-101600000D03*
D15*
X115252500Y-91440000D03*
%TD*%
%TO.C,R8*%
X79697500Y-81915000D03*
D16*
X79697500Y-92075000D03*
%TD*%
D15*
%TO.C,R7*%
X85412500Y-81915000D03*
D16*
X85412500Y-92075000D03*
%TD*%
D15*
%TO.C,R6*%
X131762500Y-130810000D03*
D16*
X121602500Y-130810000D03*
%TD*%
D15*
%TO.C,R5*%
X92397500Y-92075000D03*
D16*
X92397500Y-81915000D03*
%TD*%
D15*
%TO.C,R4*%
X85407500Y-66675000D03*
D16*
X85407500Y-76835000D03*
%TD*%
D15*
%TO.C,R3*%
X90487500Y-130810000D03*
D16*
X80327500Y-130810000D03*
%TD*%
D15*
%TO.C,R2*%
X117792500Y-130810000D03*
D16*
X107632500Y-130810000D03*
%TD*%
D15*
%TO.C,R1*%
X103822500Y-130810000D03*
D16*
X93662500Y-130810000D03*
%TD*%
D11*
%TO.C,J13*%
X95567500Y-111745000D03*
X95567500Y-114285000D03*
D10*
X95567500Y-116825000D03*
%TD*%
%TO.C,J12*%
X101917500Y-86360000D03*
D11*
X101917500Y-83820000D03*
X101917500Y-81280000D03*
%TD*%
D10*
%TO.C,J11*%
X114617500Y-86360000D03*
D11*
X114617500Y-83820000D03*
X114617500Y-81280000D03*
%TD*%
D10*
%TO.C,J10*%
X114622500Y-73025000D03*
D11*
X112082500Y-73025000D03*
%TD*%
D10*
%TO.C,J9*%
X141877500Y-138430000D03*
D11*
X144417500Y-138430000D03*
%TD*%
D17*
%TO.C,J8*%
X145652500Y-145415000D03*
D18*
X140652500Y-145415000D03*
%TD*%
D10*
%TO.C,J7*%
X153947500Y-138430000D03*
D11*
X156487500Y-138430000D03*
%TD*%
D17*
%TO.C,J6*%
X157717500Y-145415000D03*
D18*
X152717500Y-145415000D03*
%TD*%
%TO.C,J5*%
X70467500Y-56555000D03*
D17*
X70467500Y-61555000D03*
%TD*%
D10*
%TO.C,J4*%
X74617500Y-97790000D03*
D11*
X72077500Y-97790000D03*
%TD*%
D18*
%TO.C,J3*%
X70467500Y-69255000D03*
D17*
X70467500Y-74255000D03*
%TD*%
D19*
%TO.C,D4*%
X127947500Y-140335000D03*
D20*
X125407500Y-140335000D03*
%TD*%
%TO.C,D3*%
X111437500Y-140335000D03*
D19*
X113977500Y-140335000D03*
%TD*%
D20*
%TO.C,D2*%
X97467500Y-140335000D03*
D19*
X100007500Y-140335000D03*
%TD*%
%TO.C,D1*%
X86672500Y-140335000D03*
D20*
X84132500Y-140335000D03*
%TD*%
D14*
%TO.C,BZ1*%
X113347500Y-118735000D03*
D21*
X113347500Y-111135000D03*
%TD*%
D22*
%TO.C,BT1*%
X69487500Y-113030122D03*
D23*
X89987500Y-113030122D03*
%TD*%
M02*
