%TF.GenerationSoftware,KiCad,Pcbnew,8.0.2*%
%TF.CreationDate,2024-05-12T20:19:38-06:00*%
%TF.ProjectId,devBoard,64657642-6f61-4726-942e-6b696361645f,rev?*%
%TF.SameCoordinates,Original*%
%TF.FileFunction,Profile,NP*%
%FSLAX46Y46*%
G04 Gerber Fmt 4.6, Leading zero omitted, Abs format (unit mm)*
G04 Created by KiCad (PCBNEW 8.0.2) date 2024-05-12 20:19:38*
%MOMM*%
%LPD*%
G01*
G04 APERTURE LIST*
%ADD10C,0.150000*%
%TA.AperFunction,Profile*%
%ADD11C,0.050000*%
%TD*%
G04 APERTURE END LIST*
D10*
X182137319Y-93042856D02*
X182137319Y-93233332D01*
X182137319Y-93233332D02*
X182184938Y-93328570D01*
X182184938Y-93328570D02*
X182232557Y-93376189D01*
X182232557Y-93376189D02*
X182375414Y-93471427D01*
X182375414Y-93471427D02*
X182565890Y-93519046D01*
X182565890Y-93519046D02*
X182946842Y-93519046D01*
X182946842Y-93519046D02*
X183042080Y-93471427D01*
X183042080Y-93471427D02*
X183089700Y-93423808D01*
X183089700Y-93423808D02*
X183137319Y-93328570D01*
X183137319Y-93328570D02*
X183137319Y-93138094D01*
X183137319Y-93138094D02*
X183089700Y-93042856D01*
X183089700Y-93042856D02*
X183042080Y-92995237D01*
X183042080Y-92995237D02*
X182946842Y-92947618D01*
X182946842Y-92947618D02*
X182708747Y-92947618D01*
X182708747Y-92947618D02*
X182613509Y-92995237D01*
X182613509Y-92995237D02*
X182565890Y-93042856D01*
X182565890Y-93042856D02*
X182518271Y-93138094D01*
X182518271Y-93138094D02*
X182518271Y-93328570D01*
X182518271Y-93328570D02*
X182565890Y-93423808D01*
X182565890Y-93423808D02*
X182613509Y-93471427D01*
X182613509Y-93471427D02*
X182708747Y-93519046D01*
X182137319Y-92614284D02*
X182137319Y-91995237D01*
X182137319Y-91995237D02*
X182518271Y-92328570D01*
X182518271Y-92328570D02*
X182518271Y-92185713D01*
X182518271Y-92185713D02*
X182565890Y-92090475D01*
X182565890Y-92090475D02*
X182613509Y-92042856D01*
X182613509Y-92042856D02*
X182708747Y-91995237D01*
X182708747Y-91995237D02*
X182946842Y-91995237D01*
X182946842Y-91995237D02*
X183042080Y-92042856D01*
X183042080Y-92042856D02*
X183089700Y-92090475D01*
X183089700Y-92090475D02*
X183137319Y-92185713D01*
X183137319Y-92185713D02*
X183137319Y-92471427D01*
X183137319Y-92471427D02*
X183089700Y-92566665D01*
X183089700Y-92566665D02*
X183042080Y-92614284D01*
X183042080Y-91566665D02*
X183089700Y-91519046D01*
X183089700Y-91519046D02*
X183137319Y-91566665D01*
X183137319Y-91566665D02*
X183089700Y-91614284D01*
X183089700Y-91614284D02*
X183042080Y-91566665D01*
X183042080Y-91566665D02*
X183137319Y-91566665D01*
X182137319Y-90614285D02*
X182137319Y-91090475D01*
X182137319Y-91090475D02*
X182613509Y-91138094D01*
X182613509Y-91138094D02*
X182565890Y-91090475D01*
X182565890Y-91090475D02*
X182518271Y-90995237D01*
X182518271Y-90995237D02*
X182518271Y-90757142D01*
X182518271Y-90757142D02*
X182565890Y-90661904D01*
X182565890Y-90661904D02*
X182613509Y-90614285D01*
X182613509Y-90614285D02*
X182708747Y-90566666D01*
X182708747Y-90566666D02*
X182946842Y-90566666D01*
X182946842Y-90566666D02*
X183042080Y-90614285D01*
X183042080Y-90614285D02*
X183089700Y-90661904D01*
X183089700Y-90661904D02*
X183137319Y-90757142D01*
X183137319Y-90757142D02*
X183137319Y-90995237D01*
X183137319Y-90995237D02*
X183089700Y-91090475D01*
X183089700Y-91090475D02*
X183042080Y-91138094D01*
X182137319Y-89947618D02*
X182137319Y-89852380D01*
X182137319Y-89852380D02*
X182184938Y-89757142D01*
X182184938Y-89757142D02*
X182232557Y-89709523D01*
X182232557Y-89709523D02*
X182327795Y-89661904D01*
X182327795Y-89661904D02*
X182518271Y-89614285D01*
X182518271Y-89614285D02*
X182756366Y-89614285D01*
X182756366Y-89614285D02*
X182946842Y-89661904D01*
X182946842Y-89661904D02*
X183042080Y-89709523D01*
X183042080Y-89709523D02*
X183089700Y-89757142D01*
X183089700Y-89757142D02*
X183137319Y-89852380D01*
X183137319Y-89852380D02*
X183137319Y-89947618D01*
X183137319Y-89947618D02*
X183089700Y-90042856D01*
X183089700Y-90042856D02*
X183042080Y-90090475D01*
X183042080Y-90090475D02*
X182946842Y-90138094D01*
X182946842Y-90138094D02*
X182756366Y-90185713D01*
X182756366Y-90185713D02*
X182518271Y-90185713D01*
X182518271Y-90185713D02*
X182327795Y-90138094D01*
X182327795Y-90138094D02*
X182232557Y-90090475D01*
X182232557Y-90090475D02*
X182184938Y-90042856D01*
X182184938Y-90042856D02*
X182137319Y-89947618D01*
X182137319Y-88995237D02*
X182137319Y-88899999D01*
X182137319Y-88899999D02*
X182184938Y-88804761D01*
X182184938Y-88804761D02*
X182232557Y-88757142D01*
X182232557Y-88757142D02*
X182327795Y-88709523D01*
X182327795Y-88709523D02*
X182518271Y-88661904D01*
X182518271Y-88661904D02*
X182756366Y-88661904D01*
X182756366Y-88661904D02*
X182946842Y-88709523D01*
X182946842Y-88709523D02*
X183042080Y-88757142D01*
X183042080Y-88757142D02*
X183089700Y-88804761D01*
X183089700Y-88804761D02*
X183137319Y-88899999D01*
X183137319Y-88899999D02*
X183137319Y-88995237D01*
X183137319Y-88995237D02*
X183089700Y-89090475D01*
X183089700Y-89090475D02*
X183042080Y-89138094D01*
X183042080Y-89138094D02*
X182946842Y-89185713D01*
X182946842Y-89185713D02*
X182756366Y-89233332D01*
X182756366Y-89233332D02*
X182518271Y-89233332D01*
X182518271Y-89233332D02*
X182327795Y-89185713D01*
X182327795Y-89185713D02*
X182232557Y-89138094D01*
X182232557Y-89138094D02*
X182184938Y-89090475D01*
X182184938Y-89090475D02*
X182137319Y-88995237D01*
X182137319Y-88042856D02*
X182137319Y-87947618D01*
X182137319Y-87947618D02*
X182184938Y-87852380D01*
X182184938Y-87852380D02*
X182232557Y-87804761D01*
X182232557Y-87804761D02*
X182327795Y-87757142D01*
X182327795Y-87757142D02*
X182518271Y-87709523D01*
X182518271Y-87709523D02*
X182756366Y-87709523D01*
X182756366Y-87709523D02*
X182946842Y-87757142D01*
X182946842Y-87757142D02*
X183042080Y-87804761D01*
X183042080Y-87804761D02*
X183089700Y-87852380D01*
X183089700Y-87852380D02*
X183137319Y-87947618D01*
X183137319Y-87947618D02*
X183137319Y-88042856D01*
X183137319Y-88042856D02*
X183089700Y-88138094D01*
X183089700Y-88138094D02*
X183042080Y-88185713D01*
X183042080Y-88185713D02*
X182946842Y-88233332D01*
X182946842Y-88233332D02*
X182756366Y-88280951D01*
X182756366Y-88280951D02*
X182518271Y-88280951D01*
X182518271Y-88280951D02*
X182327795Y-88233332D01*
X182327795Y-88233332D02*
X182232557Y-88185713D01*
X182232557Y-88185713D02*
X182184938Y-88138094D01*
X182184938Y-88138094D02*
X182137319Y-88042856D01*
X183137319Y-86519046D02*
X182470652Y-86519046D01*
X182565890Y-86519046D02*
X182518271Y-86471427D01*
X182518271Y-86471427D02*
X182470652Y-86376189D01*
X182470652Y-86376189D02*
X182470652Y-86233332D01*
X182470652Y-86233332D02*
X182518271Y-86138094D01*
X182518271Y-86138094D02*
X182613509Y-86090475D01*
X182613509Y-86090475D02*
X183137319Y-86090475D01*
X182613509Y-86090475D02*
X182518271Y-86042856D01*
X182518271Y-86042856D02*
X182470652Y-85947618D01*
X182470652Y-85947618D02*
X182470652Y-85804761D01*
X182470652Y-85804761D02*
X182518271Y-85709522D01*
X182518271Y-85709522D02*
X182613509Y-85661903D01*
X182613509Y-85661903D02*
X183137319Y-85661903D01*
X183137319Y-85185713D02*
X182470652Y-85185713D01*
X182565890Y-85185713D02*
X182518271Y-85138094D01*
X182518271Y-85138094D02*
X182470652Y-85042856D01*
X182470652Y-85042856D02*
X182470652Y-84899999D01*
X182470652Y-84899999D02*
X182518271Y-84804761D01*
X182518271Y-84804761D02*
X182613509Y-84757142D01*
X182613509Y-84757142D02*
X183137319Y-84757142D01*
X182613509Y-84757142D02*
X182518271Y-84709523D01*
X182518271Y-84709523D02*
X182470652Y-84614285D01*
X182470652Y-84614285D02*
X182470652Y-84471428D01*
X182470652Y-84471428D02*
X182518271Y-84376189D01*
X182518271Y-84376189D02*
X182613509Y-84328570D01*
X182613509Y-84328570D02*
X183137319Y-84328570D01*
D11*
X178617500Y-57150000D02*
X184418920Y-57150000D01*
X178617500Y-120650000D02*
X184418920Y-120650000D01*
X183832500Y-57150000D02*
X183832500Y-120650000D01*
X183832500Y-57150000D02*
X183832500Y-120650000D01*
X183832500Y-57150000D02*
X184418921Y-58276504D01*
X183832500Y-57150000D02*
X183246079Y-58276504D01*
X183832500Y-120650000D02*
X183246079Y-119523496D01*
X183832500Y-120650000D02*
X184418921Y-119523496D01*
X208747403Y-147320000D02*
G75*
G02*
X205907597Y-147320000I-1419903J0D01*
G01*
X205907597Y-147320000D02*
G75*
G02*
X208747403Y-147320000I1419903J0D01*
G01*
X70317403Y-147320000D02*
G75*
G02*
X67477597Y-147320000I-1419903J0D01*
G01*
X67477597Y-147320000D02*
G75*
G02*
X70317403Y-147320000I1419903J0D01*
G01*
X70317403Y-34290000D02*
G75*
G02*
X67477597Y-34290000I-1419903J0D01*
G01*
X67477597Y-34290000D02*
G75*
G02*
X70317403Y-34290000I1419903J0D01*
G01*
X208747403Y-34290000D02*
G75*
G02*
X205907597Y-34290000I-1419903J0D01*
G01*
X205907597Y-34290000D02*
G75*
G02*
X208747403Y-34290000I1419903J0D01*
G01*
X210502500Y-53340000D02*
X210502500Y-31115000D01*
X198437500Y-53340000D02*
X210502500Y-53340000D01*
X198437500Y-64135000D02*
X198437500Y-53340000D01*
X210502500Y-64135000D02*
X198437500Y-64135000D01*
X210502500Y-113665000D02*
X210502500Y-64135000D01*
X198437500Y-113665000D02*
X210502500Y-113665000D01*
X198437500Y-125095000D02*
X198437500Y-113665000D01*
X210502500Y-125095000D02*
X198437500Y-125095000D01*
X210502500Y-150495000D02*
X210502500Y-125095000D01*
X65722500Y-150495000D02*
X210502500Y-150495000D01*
X65722500Y-31115000D02*
X65722500Y-150495000D01*
X210502500Y-31115000D02*
X65722500Y-31115000D01*
M02*
