M48
; DRILL file {KiCad 8.0.2} date 2024-05-12T20:19:31-0600
; FORMAT={-:-/ absolute / inch / decimal}
; #@! TF.CreationDate,2024-05-12T20:19:31-06:00
; #@! TF.GenerationSoftware,Kicad,Pcbnew,8.0.2
; #@! TF.FileFunction,Plated,1,2,PTH
FMAT,2
INCH
; #@! TA.AperFunction,Plated,PTH,ViaDrill
T1C0.0118
; #@! TA.AperFunction,Plated,PTH,ViaDrill
T2C0.0157
; #@! TA.AperFunction,Plated,PTH,ViaDrill
T3C0.0236
; #@! TA.AperFunction,Plated,PTH,ComponentDrill
T4C0.0315
; #@! TA.AperFunction,Plated,PTH,ComponentDrill
T5C0.0335
; #@! TA.AperFunction,Plated,PTH,ComponentDrill
T6C0.0354
; #@! TA.AperFunction,Plated,PTH,ComponentDrill
T7C0.0394
; #@! TA.AperFunction,Plated,PTH,ComponentDrill
T8C0.0433
; #@! TA.AperFunction,Plated,PTH,ComponentDrill
T9C0.0512
%
G90
G05
T1
X3.9125Y-1.8
X4.3625Y-4.5
X4.6625Y-1.8
X4.8125Y-1.8
X4.8875Y-4.5
X4.9375Y-3.3
X4.9375Y-3.5
X5.2125Y-2.775
X5.4125Y-2.575
X5.4875Y-1.775
X5.5125Y-5.225
X5.5625Y-2.775
X5.5857Y-5.0518
X5.6375Y-5.225
X5.7625Y-4.25
X5.7625Y-4.4
X5.8625Y-4.0
X5.9625Y-3.3
X5.9625Y-3.5
X5.9625Y-4.975
X6.0125Y-2.65
X6.0125Y-2.975
X6.0375Y-4.975
X6.1625Y-5.025
X6.2625Y-3.725
X6.2625Y-4.1
X6.2875Y-4.975
X6.2875Y-5.025
X6.3625Y-3.725
X6.3625Y-4.1
X6.3625Y-4.9
X6.6875Y-1.95
X6.8375Y-1.95
X6.9125Y-1.7
X6.9125Y-1.8
X7.0375Y-4.9455
X7.0375Y-5.075
X7.1375Y-2.525
X7.1375Y-4.275
X7.2125Y-2.675
X7.2875Y-2.625
X7.2875Y-2.9
X7.2875Y-3.9
X7.2875Y-4.175
X7.3625Y-2.5
X7.3625Y-2.875
X7.3625Y-3.825
X7.3625Y-4.1
T2
X6.0375Y-4.15
T3
X3.7375Y-2.1
X3.9125Y-2.1
X6.4125Y-2.1
T4
X3.1377Y-3.225
X3.1377Y-3.625
X3.1625Y-5.15
X3.3625Y-2.625
X3.3625Y-3.025
X3.3627Y-3.225
X3.3627Y-3.625
X3.5625Y-5.15
X3.6377Y-3.225
X3.6377Y-3.625
X3.6875Y-5.15
X3.8875Y-3.6
X3.8875Y-4.0
X4.0375Y-3.6
X4.0375Y-4.0
X4.0875Y-5.15
X4.2375Y-5.15
X4.3875Y-3.6
X4.3875Y-4.0
X4.5375Y-3.6
X4.5375Y-4.0
X4.6375Y-5.15
X4.7875Y-5.15
X5.1875Y-5.15
T5
X2.7357Y-4.45
X3.5428Y-4.45
T6
X3.3123Y-5.525
X3.4123Y-5.525
X3.8373Y-5.525
X3.9373Y-5.525
X4.3873Y-5.525
X4.4873Y-5.525
X4.9373Y-5.525
X5.0373Y-5.525
T7
X2.7125Y-5.05
X2.7125Y-5.15
X2.7125Y-5.25
X2.7125Y-5.35
X2.8377Y-3.85
X2.9377Y-3.85
X2.9875Y-1.375
X2.9875Y-1.55
X3.0875Y-1.375
X3.1875Y-1.375
X3.2875Y-1.375
X3.3875Y-1.375
X3.6875Y-2.875
X3.7125Y-1.375
X3.7625Y-4.3994
X3.7625Y-4.4994
X3.7625Y-4.5994
X3.7875Y-2.875
X3.8125Y-1.375
X3.8875Y-2.875
X3.9125Y-1.375
X3.9875Y-2.875
X4.0125Y-1.375
X4.0125Y-3.2
X4.0125Y-3.3
X4.0125Y-3.4
X4.1125Y-1.375
X4.1125Y-1.55
X4.2125Y-1.375
X4.2125Y-1.55
X4.4125Y-2.575
X4.4127Y-2.875
X4.4625Y-1.375
X4.4625Y-4.3754
X4.4625Y-4.6746
X4.5125Y-2.575
X4.5125Y-3.2
X4.5125Y-3.3
X4.5125Y-3.4
X4.5127Y-2.875
X4.5625Y-1.375
X4.6625Y-1.375
X4.7625Y-1.375
X4.8625Y-1.375
X4.8625Y-1.55
X4.9625Y-1.375
X4.9625Y-1.55
X5.1125Y-2.25
X5.1125Y-2.35
X5.1125Y-4.65
X5.1125Y-4.75
X5.2125Y-2.25
X5.2125Y-2.35
X5.2125Y-4.65
X5.2125Y-4.75
X5.2375Y-1.375
X5.3125Y-2.25
X5.3125Y-2.35
X5.3125Y-4.65
X5.3125Y-4.75
X5.3375Y-1.375
X5.4125Y-2.25
X5.4125Y-2.35
X5.4125Y-4.65
X5.4125Y-4.75
X5.4375Y-1.375
X5.5125Y-2.25
X5.5125Y-2.35
X5.5125Y-4.65
X5.5125Y-4.75
X5.5375Y-1.375
X5.5857Y-5.45
X5.6125Y-2.25
X5.6125Y-2.35
X5.6125Y-4.65
X5.6125Y-4.75
X5.6369Y-1.5583
X5.6375Y-1.375
X5.6857Y-5.45
X5.7125Y-2.25
X5.7125Y-2.35
X5.7125Y-4.65
X5.7125Y-4.75
X5.7369Y-1.5583
X5.7375Y-1.375
X5.8125Y-2.25
X5.8125Y-2.35
X5.8125Y-4.65
X5.8125Y-4.75
X5.8369Y-1.5583
X5.8375Y-1.375
X5.9125Y-2.25
X5.9125Y-2.35
X5.9125Y-4.65
X5.9125Y-4.75
X5.9369Y-1.5583
X5.9375Y-1.375
X6.0125Y-2.25
X6.0125Y-2.35
X6.0125Y-4.65
X6.0125Y-4.75
X6.0609Y-5.45
X6.1125Y-2.25
X6.1125Y-2.35
X6.1125Y-4.65
X6.1125Y-4.75
X6.1609Y-5.45
X6.2125Y-2.25
X6.2125Y-2.35
X6.2125Y-4.65
X6.2125Y-4.75
X6.3125Y-2.25
X6.3125Y-2.35
X6.3125Y-4.65
X6.3125Y-4.75
X6.4125Y-2.25
X6.4125Y-2.35
X6.4125Y-4.65
X6.4125Y-4.75
X6.5125Y-2.25
X6.5125Y-2.35
X6.5125Y-4.65
X6.5125Y-4.75
X6.5129Y-1.375
X6.6125Y-2.25
X6.6125Y-2.35
X6.6125Y-4.65
X6.6125Y-4.75
X6.6129Y-1.375
X6.7125Y-2.25
X6.7125Y-2.35
X6.7125Y-4.65
X6.7125Y-4.75
X6.7129Y-1.375
X6.8125Y-2.25
X6.8125Y-2.35
X6.8125Y-4.65
X6.8125Y-4.75
X6.8129Y-1.375
X6.9125Y-2.25
X6.9125Y-2.35
X6.9125Y-4.65
X6.9125Y-4.75
X7.0125Y-2.25
X7.0125Y-2.35
X7.0125Y-4.65
X7.0125Y-4.75
X7.4125Y-1.375
X7.5125Y-1.375
X7.6125Y-1.375
X7.7125Y-1.375
X7.8125Y-1.375
X7.9125Y-1.375
T8
X2.8005Y-3.25
X2.8005Y-3.35
X2.8005Y-3.45
X6.5989Y-5.347
X6.5989Y-5.603
X6.7761Y-5.347
X6.7761Y-5.603
X7.1239Y-5.347
X7.1239Y-5.603
X7.3011Y-5.347
X7.3011Y-5.603
X7.6489Y-5.347
X7.6489Y-5.603
X7.8261Y-5.347
X7.8261Y-5.603
T9
X2.7743Y-2.2266
X2.7743Y-2.4234
X2.7743Y-2.7266
X2.7743Y-2.9234
X5.5375Y-5.725
X5.7344Y-5.725
X6.0125Y-5.725
X6.2094Y-5.725
M30
